<?xml version="1.0" encoding="UTF-8" standalone="no"?><svg xmlns="http://www.w3.org/2000/svg" xmlns:xlink="http://www.w3.org/1999/xlink" clip-rule="evenodd" stroke-miterlimit="10" viewBox="0 0 1920 1080"><desc>SVG generated by Keynote</desc><defs></defs><g transform="matrix(1.00, 0.00, -0.00, -1.00, 0.0, 1080.0)"><g><clipPath id="clip0x7fad3f6b5350"><path d="M 0.0 1080.0 L 1920.0 1080.0 L 1920.0 0.0 L 0.0 0.0 Z M 0.0 1080.0 "></path></clipPath><g clip-path="url(#clip0x7fad3f6b5350)"><image xlink:href="../../D96BE7B2-ED93-443D-8026-784A345E870E/assets/0BF7C4DE38584FF55ABE8E2C53BD5CCD.jpeg" width="2048.00" height="1536.00" transform="matrix(0.94, 0.00, -0.00, -0.70, 0.0, 1080.0)"></image></g></g><path d="M 0.1 0.1 L 1378.1 0.1 L 1378.1 1021.1 L 0.1 1021.1 Z M 0.0 0.0 " fill="none" stroke="#83817C" stroke-width="2.00" transform="matrix(1.00, 0.00, 0.00, -1.00, 270.9, 1049.1)"></path><text xml:space="preserve" font-family="HelveticaNeue-CondensedBold,Helvetica Neue" font-weight="bold" font-size="168.0" fill="#558AAA" transform="matrix(1.00, 0.00, -0.00, -1.00, 275.2, 478.0)">h</text><text xml:space="preserve" font-family="HelveticaNeue-CondensedBold,Helvetica Neue" font-weight="bold" font-size="168.0" fill="#558AAA" transform="matrix(1.00, 0.00, -0.00, -1.00, 359.2, 478.0)">t</text><text xml:space="preserve" font-family="HelveticaNeue-CondensedBold,Helvetica Neue" font-weight="bold" font-size="168.0" fill="#558AAA" transform="matrix(1.00, 0.00, -0.00, -1.00, 408.9, 478.0)">t</text><text xml:space="preserve" font-family="HelveticaNeue-CondensedBold,Helvetica Neue" font-weight="bold" font-size="168.0" fill="#558AAA" transform="matrix(1.00, 0.00, -0.00, -1.00, 458.6, 478.0)">p</text><text xml:space="preserve" font-family="HelveticaNeue-CondensedBold,Helvetica Neue" font-weight="bold" font-size="168.0" fill="#558AAA" transform="matrix(1.00, 0.00, -0.00, -1.00, 542.6, 478.0)">:</text><text xml:space="preserve" font-family="HelveticaNeue-CondensedBold,Helvetica Neue" font-weight="bold" font-size="168.0" fill="#558AAA" transform="matrix(1.00, 0.00, -0.00, -1.00, 582.9, 478.0)">/</text><text xml:space="preserve" font-family="HelveticaNeue-CondensedBold,Helvetica Neue" font-weight="bold" font-size="168.0" fill="#558AAA" transform="matrix(1.00, 0.00, -0.00, -1.00, 638.7, 478.0)">/</text><text xml:space="preserve" font-family="HelveticaNeue-CondensedBold,Helvetica Neue" font-weight="bold" font-size="168.0" fill="#558AAA" transform="matrix(1.00, 0.00, -0.00, -1.00, 694.5, 478.0)">s</text><text xml:space="preserve" font-family="HelveticaNeue-CondensedBold,Helvetica Neue" font-weight="bold" font-size="168.0" fill="#558AAA" transform="matrix(1.00, 0.00, -0.00, -1.00, 769.1, 478.0)">e</text><text xml:space="preserve" font-family="HelveticaNeue-CondensedBold,Helvetica Neue" font-weight="bold" font-size="168.0" fill="#558AAA" transform="matrix(1.00, 0.00, -0.00, -1.00, 846.9, 478.0)">r</text><text xml:space="preserve" font-family="HelveticaNeue-CondensedBold,Helvetica Neue" font-weight="bold" font-size="168.0" fill="#558AAA" transform="matrix(1.00, 0.00, -0.00, -1.00, 902.8, 478.0)">i</text><text xml:space="preserve" font-family="HelveticaNeue-CondensedBold,Helvetica Neue" font-weight="bold" font-size="168.0" fill="#558AAA" transform="matrix(1.00, 0.00, -0.00, -1.00, 943.1, 478.0)">o</text><text xml:space="preserve" font-family="HelveticaNeue-CondensedBold,Helvetica Neue" font-weight="bold" font-size="168.0" fill="#558AAA" transform="matrix(1.00, 0.00, -0.00, -1.00, 1023.8, 478.0)">t</text><text xml:space="preserve" font-family="HelveticaNeue-CondensedBold,Helvetica Neue" font-weight="bold" font-size="168.0" fill="#558AAA" transform="matrix(1.00, 0.00, -0.00, -1.00, 1073.5, 478.0)">i</text><text xml:space="preserve" font-family="HelveticaNeue-CondensedBold,Helvetica Neue" font-weight="bold" font-size="168.0" fill="#558AAA" transform="matrix(1.00, 0.00, -0.00, -1.00, 1113.8, 478.0)">c</text><text xml:space="preserve" font-family="HelveticaNeue-CondensedBold,Helvetica Neue" font-weight="bold" font-size="168.0" fill="#558AAA" transform="matrix(1.00, 0.00, -0.00, -1.00, 1191.6, 478.0)">s</text><text xml:space="preserve" font-family="HelveticaNeue-CondensedBold,Helvetica Neue" font-weight="bold" font-size="168.0" fill="#558AAA" transform="matrix(1.00, 0.00, -0.00, -1.00, 1266.2, 478.0)">.</text><text xml:space="preserve" font-family="HelveticaNeue-CondensedBold,Helvetica Neue" font-weight="bold" font-size="168.0" fill="#558AAA" transform="matrix(1.00, 0.00, -0.00, -1.00, 1306.5, 478.0)">i</text><text xml:space="preserve" font-family="HelveticaNeue-CondensedBold,Helvetica Neue" font-weight="bold" font-size="168.0" fill="#558AAA" transform="matrix(1.00, 0.00, -0.00, -1.00, 1346.8, 478.0)">n</text><text xml:space="preserve" font-family="HelveticaNeue-CondensedBold,Helvetica Neue" font-weight="bold" font-size="168.0" fill="#558AAA" transform="matrix(1.00, 0.00, -0.00, -1.00, 1430.8, 478.0)">f</text><text xml:space="preserve" font-family="HelveticaNeue-CondensedBold,Helvetica Neue" font-weight="bold" font-size="168.0" fill="#558AAA" transform="matrix(1.00, 0.00, -0.00, -1.00, 1480.6, 478.0)">o</text><g><clipPath id="clip0x7fad3f6c27d0"><path d="M 274.2 456.0 L 1561.2 456.0 L 1561.2 466.4 L 274.2 466.4 Z M 274.2 456.0 "></path></clipPath><g clip-path="url(#clip0x7fad3f6c27d0)"><path d="M 5.6 183.6 L 1291.7 183.6 " fill="none" stroke="#558AAA" stroke-width="8.40" transform="matrix(1.00, 0.00, 0.00, -1.00, 269.5, 644.8)"></path></g></g></g></svg>