<?xml version="1.0" encoding="UTF-8" standalone="no"?><svg xmlns="http://www.w3.org/2000/svg" xmlns:xlink="http://www.w3.org/1999/xlink" clip-rule="evenodd" stroke-miterlimit="10" viewBox="0 0 1920 1080"><desc>SVG generated by Keynote</desc><defs></defs><g transform="matrix(1.00, 0.00, -0.00, -1.00, 0.0, 1080.0)"><g><clipPath id="clip0x7fad4407e380"><path d="M 0.0 1080.0 L 1920.0 1080.0 L 1920.0 0.0 L 0.0 0.0 Z M 0.0 1080.0 "></path></clipPath><g clip-path="url(#clip0x7fad4407e380)"><image xlink:href="../../6A4B1499-DFD1-4034-AD5F-2EBA4967C7C1/assets/D36CE392FB50DB87B0725C05E3D219AA.jpeg" width="2048.00" height="1536.00" transform="matrix(0.94, 0.00, -0.00, -0.70, 0.0, 1080.0)"></image></g></g><path d="M 0.1 0.1 L 1378.1 0.1 L 1378.1 1021.1 L 0.1 1021.1 Z M 0.0 0.0 " fill="none" stroke="#83817C" stroke-width="2.00" transform="matrix(1.00, 0.00, 0.00, -1.00, 270.9, 1049.1)"></path><path d="M 26.2 0.4 C 11.8 0.0 -0.1 11.8 -0.1 26.2 L -0.1 210.0 L -105.0 262.5 L -0.1 315.0 L -0.1 643.0 C -0.1 657.5 11.8 669.4 26.2 669.4 L 442.1 669.4 C 456.6 669.4 467.9 657.5 467.9 643.0 L 467.9 26.2 C 467.9 11.8 456.6 0.4 442.1 0.4 L 26.2 0.4 Z M 26.2 0.0 " fill="none" stroke="#83817C" stroke-width="2.00" transform="matrix(1.00, 0.00, 0.00, -1.00, 1162.1, 1001.4)"></path><text xml:space="preserve" font-family="HelveticaNeue-CondensedBold,Helvetica Neue" font-weight="bold" font-size="50.0" fill="#FBFEFF" transform="matrix(1.00, 0.00, -0.00, -1.00, 1250.5, 904.2)">J</text><text xml:space="preserve" font-family="HelveticaNeue-CondensedBold,Helvetica Neue" font-weight="bold" font-size="50.0" fill="#FBFEFF" transform="matrix(1.00, 0.00, -0.00, -1.00, 1273.7, 904.2)">S</text><text xml:space="preserve" font-family="HelveticaNeue-CondensedBold,Helvetica Neue" font-weight="bold" font-size="50.0" fill="#FBFEFF" transform="matrix(1.00, 0.00, -0.00, -1.00, 1299.6, 904.2)">O</text><text xml:space="preserve" font-family="HelveticaNeue-CondensedBold,Helvetica Neue" font-weight="bold" font-size="50.0" fill="#FBFEFF" transform="matrix(1.00, 0.00, -0.00, -1.00, 1327.4, 904.2)">N</text><text xml:space="preserve" font-family="HelveticaNeue-CondensedBold,Helvetica Neue" font-weight="bold" font-size="50.0" fill="#FBFEFF" transform="matrix(1.00, 0.00, -0.00, -1.00, 1356.1, 904.2)"> </text><text xml:space="preserve" font-family="HelveticaNeue-CondensedBold,Helvetica Neue" font-weight="bold" font-size="50.0" fill="#FBFEFF" transform="matrix(1.00, 0.00, -0.00, -1.00, 1368.1, 904.2)">m</text><text xml:space="preserve" font-family="HelveticaNeue-CondensedBold,Helvetica Neue" font-weight="bold" font-size="50.0" fill="#FBFEFF" transform="matrix(1.00, 0.00, -0.00, -1.00, 1406.0, 904.2)">e</text><text xml:space="preserve" font-family="HelveticaNeue-CondensedBold,Helvetica Neue" font-weight="bold" font-size="50.0" fill="#FBFEFF" transform="matrix(1.00, 0.00, -0.00, -1.00, 1429.2, 904.2)">s</text><text xml:space="preserve" font-family="HelveticaNeue-CondensedBold,Helvetica Neue" font-weight="bold" font-size="50.0" fill="#FBFEFF" transform="matrix(1.00, 0.00, -0.00, -1.00, 1451.4, 904.2)">s</text><text xml:space="preserve" font-family="HelveticaNeue-CondensedBold,Helvetica Neue" font-weight="bold" font-size="50.0" fill="#FBFEFF" transform="matrix(1.00, 0.00, -0.00, -1.00, 1473.6, 904.2)">a</text><text xml:space="preserve" font-family="HelveticaNeue-CondensedBold,Helvetica Neue" font-weight="bold" font-size="50.0" fill="#FBFEFF" transform="matrix(1.00, 0.00, -0.00, -1.00, 1497.6, 904.2)">g</text><text xml:space="preserve" font-family="HelveticaNeue-CondensedBold,Helvetica Neue" font-weight="bold" font-size="50.0" fill="#FBFEFF" transform="matrix(1.00, 0.00, -0.00, -1.00, 1522.6, 904.2)">e</text><text xml:space="preserve" font-family="HelveticaNeue-CondensedBold,Helvetica Neue" font-weight="bold" font-size="50.0" fill="#FBFEFF" transform="matrix(1.00, 0.00, -0.00, -1.00, 1545.8, 904.2)"> </text><text xml:space="preserve" font-family="HelveticaNeue-CondensedBold,Helvetica Neue" font-weight="bold" font-size="50.0" fill="#FBFEFF" transform="matrix(1.00, 0.00, -0.00, -1.00, 1250.5, 844.2)"> </text><text xml:space="preserve" font-family="HelveticaNeue-CondensedBold,Helvetica Neue" font-weight="bold" font-size="50.0" fill="#FBFEFF" transform="matrix(1.00, 0.00, -0.00, -1.00, 1262.5, 844.2)"> </text><text xml:space="preserve" font-family="HelveticaNeue-CondensedBold,Helvetica Neue" font-weight="bold" font-size="50.0" fill="#FBFEFF" transform="matrix(1.00, 0.00, -0.00, -1.00, 1274.5, 844.2)"> </text><text xml:space="preserve" font-family="HelveticaNeue-CondensedBold,Helvetica Neue" font-weight="bold" font-size="50.0" fill="#FBFEFF" transform="matrix(1.00, 0.00, -0.00, -1.00, 1286.5, 844.2)"> </text><text xml:space="preserve" font-family="HelveticaNeue-CondensedBold,Helvetica Neue" font-weight="bold" font-size="50.0" fill="#FBFEFF" transform="matrix(1.00, 0.00, -0.00, -1.00, 1298.5, 844.2)"> </text><text xml:space="preserve" font-family="HelveticaNeue-CondensedBold,Helvetica Neue" font-weight="bold" font-size="50.0" fill="#FBFEFF" transform="matrix(1.00, 0.00, -0.00, -1.00, 1310.5, 844.2)">~</text><text xml:space="preserve" font-family="HelveticaNeue-CondensedBold,Helvetica Neue" font-weight="bold" font-size="50.0" fill="#FBFEFF" transform="matrix(1.00, 0.00, -0.00, -1.00, 1340.5, 844.2)"> </text><text xml:space="preserve" font-family="HelveticaNeue-CondensedBold,Helvetica Neue" font-weight="bold" font-size="50.0" fill="#FBFEFF" transform="matrix(1.00, 0.00, -0.00, -1.00, 1352.5, 844.2)">2</text><text xml:space="preserve" font-family="HelveticaNeue-CondensedBold,Helvetica Neue" font-weight="bold" font-size="50.0" fill="#FBFEFF" transform="matrix(1.00, 0.00, -0.00, -1.00, 1376.5, 844.2)">6</text><text xml:space="preserve" font-family="HelveticaNeue-CondensedBold,Helvetica Neue" font-weight="bold" font-size="50.0" fill="#FBFEFF" transform="matrix(1.00, 0.00, -0.00, -1.00, 1400.5, 844.2)">5</text><text xml:space="preserve" font-family="HelveticaNeue-CondensedBold,Helvetica Neue" font-weight="bold" font-size="50.0" fill="#FBFEFF" transform="matrix(1.00, 0.00, -0.00, -1.00, 1424.5, 844.2)"> </text><text xml:space="preserve" font-family="HelveticaNeue-CondensedBold,Helvetica Neue" font-weight="bold" font-size="50.0" fill="#FBFEFF" transform="matrix(1.00, 0.00, -0.00, -1.00, 1436.5, 844.2)">b</text><text xml:space="preserve" font-family="HelveticaNeue-CondensedBold,Helvetica Neue" font-weight="bold" font-size="50.0" fill="#FBFEFF" transform="matrix(1.00, 0.00, -0.00, -1.00, 1461.5, 844.2)">y</text><text xml:space="preserve" font-family="HelveticaNeue-CondensedBold,Helvetica Neue" font-weight="bold" font-size="50.0" fill="#FBFEFF" transform="matrix(1.00, 0.00, -0.00, -1.00, 1483.7, 844.2)">t</text><text xml:space="preserve" font-family="HelveticaNeue-CondensedBold,Helvetica Neue" font-weight="bold" font-size="50.0" fill="#FBFEFF" transform="matrix(1.00, 0.00, -0.00, -1.00, 1498.5, 844.2)">e</text><text xml:space="preserve" font-family="HelveticaNeue-CondensedBold,Helvetica Neue" font-weight="bold" font-size="50.0" fill="#FBFEFF" transform="matrix(1.00, 0.00, -0.00, -1.00, 1521.7, 844.2)">s</text><text xml:space="preserve" font-family="Courier,Courier" font-size="42.0" fill="#FEFDFF" transform="matrix(1.00, 0.00, -0.00, -1.00, 299.5, 869.8)">{</text><text xml:space="preserve" font-family="Courier,Courier" font-size="42.0" fill="#FEFDFF" transform="matrix(1.00, 0.00, -0.00, -1.00, 324.8, 869.8)">“</text><text xml:space="preserve" font-family="Courier,Courier" font-size="42.0" fill="#FEFDFF" transform="matrix(1.00, 0.00, -0.00, -1.00, 350.0, 869.8)">m</text><text xml:space="preserve" font-family="Courier,Courier" font-size="42.0" fill="#FEFDFF" transform="matrix(1.00, 0.00, -0.00, -1.00, 375.2, 869.8)">i</text><text xml:space="preserve" font-family="Courier,Courier" font-size="42.0" fill="#FEFDFF" transform="matrix(1.00, 0.00, -0.00, -1.00, 400.4, 869.8)">n</text><text xml:space="preserve" font-family="Courier,Courier" font-size="42.0" fill="#FEFDFF" transform="matrix(1.00, 0.00, -0.00, -1.00, 425.6, 869.8)">T</text><text xml:space="preserve" font-family="Courier,Courier" font-size="42.0" fill="#FEFDFF" transform="matrix(1.00, 0.00, -0.00, -1.00, 450.8, 869.8)">y</text><text xml:space="preserve" font-family="Courier,Courier" font-size="42.0" fill="#FEFDFF" transform="matrix(1.00, 0.00, -0.00, -1.00, 476.0, 869.8)">p</text><text xml:space="preserve" font-family="Courier,Courier" font-size="42.0" fill="#FEFDFF" transform="matrix(1.00, 0.00, -0.00, -1.00, 501.2, 869.8)">e</text><text xml:space="preserve" font-family="Courier,Courier" font-size="42.0" fill="#FEFDFF" transform="matrix(1.00, 0.00, -0.00, -1.00, 526.4, 869.8)">"</text><text xml:space="preserve" font-family="Courier,Courier" font-size="42.0" fill="#FEFDFF" transform="matrix(1.00, 0.00, -0.00, -1.00, 551.6, 869.8)">:</text><text xml:space="preserve" font-family="Courier,Courier" font-size="42.0" fill="#FEFDFF" transform="matrix(1.00, 0.00, -0.00, -1.00, 576.8, 869.8)">"</text><text xml:space="preserve" font-family="Courier,Courier" font-size="42.0" fill="#FEFDFF" transform="matrix(1.00, 0.00, -0.00, -1.00, 602.0, 869.8)">B</text><text xml:space="preserve" font-family="Courier,Courier" font-size="42.0" fill="#FEFDFF" transform="matrix(1.00, 0.00, -0.00, -1.00, 627.3, 869.8)">A</text><text xml:space="preserve" font-family="Courier,Courier" font-size="42.0" fill="#FEFDFF" transform="matrix(1.00, 0.00, -0.00, -1.00, 652.5, 869.8)">T</text><text xml:space="preserve" font-family="Courier,Courier" font-size="42.0" fill="#FEFDFF" transform="matrix(1.00, 0.00, -0.00, -1.00, 677.7, 869.8)">H</text><text xml:space="preserve" font-family="Courier,Courier" font-size="42.0" fill="#FEFDFF" transform="matrix(1.00, 0.00, -0.00, -1.00, 702.9, 869.8)">R</text><text xml:space="preserve" font-family="Courier,Courier" font-size="42.0" fill="#FEFDFF" transform="matrix(1.00, 0.00, -0.00, -1.00, 728.1, 869.8)">O</text><text xml:space="preserve" font-family="Courier,Courier" font-size="42.0" fill="#FEFDFF" transform="matrix(1.00, 0.00, -0.00, -1.00, 753.3, 869.8)">O</text><text xml:space="preserve" font-family="Courier,Courier" font-size="42.0" fill="#FEFDFF" transform="matrix(1.00, 0.00, -0.00, -1.00, 778.5, 869.8)">M</text><text xml:space="preserve" font-family="Courier,Courier" font-size="42.0" fill="#FEFDFF" transform="matrix(1.00, 0.00, -0.00, -1.00, 803.7, 869.8)">"</text><text xml:space="preserve" font-family="Courier,Courier" font-size="42.0" fill="#FEFDFF" transform="matrix(1.00, 0.00, -0.00, -1.00, 828.9, 869.8)">,</text><text xml:space="preserve" font-family="Courier,Courier" font-size="42.0" fill="#FEFDFF" transform="matrix(1.00, 0.00, -0.00, -1.00, 299.5, 819.8)">“</text><text xml:space="preserve" font-family="Courier,Courier" font-size="42.0" fill="#FEFDFF" transform="matrix(1.00, 0.00, -0.00, -1.00, 324.8, 819.8)">m</text><text xml:space="preserve" font-family="Courier,Courier" font-size="42.0" fill="#FEFDFF" transform="matrix(1.00, 0.00, -0.00, -1.00, 350.0, 819.8)">a</text><text xml:space="preserve" font-family="Courier,Courier" font-size="42.0" fill="#FEFDFF" transform="matrix(1.00, 0.00, -0.00, -1.00, 375.2, 819.8)">j</text><text xml:space="preserve" font-family="Courier,Courier" font-size="42.0" fill="#FEFDFF" transform="matrix(1.00, 0.00, -0.00, -1.00, 400.4, 819.8)">T</text><text xml:space="preserve" font-family="Courier,Courier" font-size="42.0" fill="#FEFDFF" transform="matrix(1.00, 0.00, -0.00, -1.00, 425.6, 819.8)">y</text><text xml:space="preserve" font-family="Courier,Courier" font-size="42.0" fill="#FEFDFF" transform="matrix(1.00, 0.00, -0.00, -1.00, 450.8, 819.8)">p</text><text xml:space="preserve" font-family="Courier,Courier" font-size="42.0" fill="#FEFDFF" transform="matrix(1.00, 0.00, -0.00, -1.00, 476.0, 819.8)">e</text><text xml:space="preserve" font-family="Courier,Courier" font-size="42.0" fill="#FEFDFF" transform="matrix(1.00, 0.00, -0.00, -1.00, 501.2, 819.8)">”</text><text xml:space="preserve" font-family="Courier,Courier" font-size="42.0" fill="#FEFDFF" transform="matrix(1.00, 0.00, -0.00, -1.00, 526.4, 819.8)">:</text><text xml:space="preserve" font-family="Courier,Courier" font-size="42.0" fill="#FEFDFF" transform="matrix(1.00, 0.00, -0.00, -1.00, 551.6, 819.8)">"</text><text xml:space="preserve" font-family="Courier,Courier" font-size="42.0" fill="#FEFDFF" transform="matrix(1.00, 0.00, -0.00, -1.00, 576.8, 819.8)">H</text><text xml:space="preserve" font-family="Courier,Courier" font-size="42.0" fill="#FEFDFF" transform="matrix(1.00, 0.00, -0.00, -1.00, 602.0, 819.8)">U</text><text xml:space="preserve" font-family="Courier,Courier" font-size="42.0" fill="#FEFDFF" transform="matrix(1.00, 0.00, -0.00, -1.00, 627.3, 819.8)">M</text><text xml:space="preserve" font-family="Courier,Courier" font-size="42.0" fill="#FEFDFF" transform="matrix(1.00, 0.00, -0.00, -1.00, 652.5, 819.8)">A</text><text xml:space="preserve" font-family="Courier,Courier" font-size="42.0" fill="#FEFDFF" transform="matrix(1.00, 0.00, -0.00, -1.00, 677.7, 819.8)">N</text><text xml:space="preserve" font-family="Courier,Courier" font-size="42.0" fill="#FEFDFF" transform="matrix(1.00, 0.00, -0.00, -1.00, 702.9, 819.8)">I</text><text xml:space="preserve" font-family="Courier,Courier" font-size="42.0" fill="#FEFDFF" transform="matrix(1.00, 0.00, -0.00, -1.00, 728.1, 819.8)">T</text><text xml:space="preserve" font-family="Courier,Courier" font-size="42.0" fill="#FEFDFF" transform="matrix(1.00, 0.00, -0.00, -1.00, 753.3, 819.8)">A</text><text xml:space="preserve" font-family="Courier,Courier" font-size="42.0" fill="#FEFDFF" transform="matrix(1.00, 0.00, -0.00, -1.00, 778.5, 819.8)">R</text><text xml:space="preserve" font-family="Courier,Courier" font-size="42.0" fill="#FEFDFF" transform="matrix(1.00, 0.00, -0.00, -1.00, 803.7, 819.8)">I</text><text xml:space="preserve" font-family="Courier,Courier" font-size="42.0" fill="#FEFDFF" transform="matrix(1.00, 0.00, -0.00, -1.00, 828.9, 819.8)">A</text><text xml:space="preserve" font-family="Courier,Courier" font-size="42.0" fill="#FEFDFF" transform="matrix(1.00, 0.00, -0.00, -1.00, 854.1, 819.8)">N</text><text xml:space="preserve" font-family="Courier,Courier" font-size="42.0" fill="#FEFDFF" transform="matrix(1.00, 0.00, -0.00, -1.00, 879.3, 819.8)">,</text><text xml:space="preserve" font-family="Courier,Courier" font-size="42.0" fill="#FEFDFF" transform="matrix(1.00, 0.00, -0.00, -1.00, 904.5, 819.8)"> </text><text xml:space="preserve" font-family="Courier,Courier" font-size="42.0" fill="#FEFDFF" transform="matrix(1.00, 0.00, -0.00, -1.00, 299.5, 769.8)">“</text><text xml:space="preserve" font-family="Courier,Courier" font-size="42.0" fill="#FEFDFF" transform="matrix(1.00, 0.00, -0.00, -1.00, 324.8, 769.8)">m</text><text xml:space="preserve" font-family="Courier,Courier" font-size="42.0" fill="#FEFDFF" transform="matrix(1.00, 0.00, -0.00, -1.00, 350.0, 769.8)">a</text><text xml:space="preserve" font-family="Courier,Courier" font-size="42.0" fill="#FEFDFF" transform="matrix(1.00, 0.00, -0.00, -1.00, 375.2, 769.8)">j</text><text xml:space="preserve" font-family="Courier,Courier" font-size="42.0" fill="#FEFDFF" transform="matrix(1.00, 0.00, -0.00, -1.00, 400.4, 769.8)">o</text><text xml:space="preserve" font-family="Courier,Courier" font-size="42.0" fill="#FEFDFF" transform="matrix(1.00, 0.00, -0.00, -1.00, 425.6, 769.8)">r</text><text xml:space="preserve" font-family="Courier,Courier" font-size="42.0" fill="#FEFDFF" transform="matrix(1.00, 0.00, -0.00, -1.00, 450.8, 769.8)">_</text><text xml:space="preserve" font-family="Courier,Courier" font-size="42.0" fill="#FEFDFF" transform="matrix(1.00, 0.00, -0.00, -1.00, 476.0, 769.8)">a</text><text xml:space="preserve" font-family="Courier,Courier" font-size="42.0" fill="#FEFDFF" transform="matrix(1.00, 0.00, -0.00, -1.00, 501.2, 769.8)">r</text><text xml:space="preserve" font-family="Courier,Courier" font-size="42.0" fill="#FEFDFF" transform="matrix(1.00, 0.00, -0.00, -1.00, 526.4, 769.8)">e</text><text xml:space="preserve" font-family="Courier,Courier" font-size="42.0" fill="#FEFDFF" transform="matrix(1.00, 0.00, -0.00, -1.00, 551.6, 769.8)">a</text><text xml:space="preserve" font-family="Courier,Courier" font-size="42.0" fill="#FEFDFF" transform="matrix(1.00, 0.00, -0.00, -1.00, 576.8, 769.8)">_</text><text xml:space="preserve" font-family="Courier,Courier" font-size="42.0" fill="#FEFDFF" transform="matrix(1.00, 0.00, -0.00, -1.00, 602.0, 769.8)">n</text><text xml:space="preserve" font-family="Courier,Courier" font-size="42.0" fill="#FEFDFF" transform="matrix(1.00, 0.00, -0.00, -1.00, 627.3, 769.8)">u</text><text xml:space="preserve" font-family="Courier,Courier" font-size="42.0" fill="#FEFDFF" transform="matrix(1.00, 0.00, -0.00, -1.00, 652.5, 769.8)">m</text><text xml:space="preserve" font-family="Courier,Courier" font-size="42.0" fill="#FEFDFF" transform="matrix(1.00, 0.00, -0.00, -1.00, 677.7, 769.8)">”</text><text xml:space="preserve" font-family="Courier,Courier" font-size="42.0" fill="#FEFDFF" transform="matrix(1.00, 0.00, -0.00, -1.00, 702.9, 769.8)">:</text><text xml:space="preserve" font-family="Courier,Courier" font-size="42.0" fill="#FEFDFF" transform="matrix(1.00, 0.00, -0.00, -1.00, 728.1, 769.8)">1</text><text xml:space="preserve" font-family="Courier,Courier" font-size="42.0" fill="#FEFDFF" transform="matrix(1.00, 0.00, -0.00, -1.00, 753.3, 769.8)">9</text><text xml:space="preserve" font-family="Courier,Courier" font-size="42.0" fill="#FEFDFF" transform="matrix(1.00, 0.00, -0.00, -1.00, 778.5, 769.8)">,</text><text xml:space="preserve" font-family="Courier,Courier" font-size="42.0" fill="#FEFDFF" transform="matrix(1.00, 0.00, -0.00, -1.00, 803.7, 769.8)"> </text><text xml:space="preserve" font-family="Courier,Courier" font-size="42.0" fill="#FEFDFF" transform="matrix(1.00, 0.00, -0.00, -1.00, 299.5, 719.8)">“</text><text xml:space="preserve" font-family="Courier,Courier" font-size="42.0" fill="#FEFDFF" transform="matrix(1.00, 0.00, -0.00, -1.00, 324.8, 719.8)">m</text><text xml:space="preserve" font-family="Courier,Courier" font-size="42.0" fill="#FEFDFF" transform="matrix(1.00, 0.00, -0.00, -1.00, 350.0, 719.8)">i</text><text xml:space="preserve" font-family="Courier,Courier" font-size="42.0" fill="#FEFDFF" transform="matrix(1.00, 0.00, -0.00, -1.00, 375.2, 719.8)">n</text><text xml:space="preserve" font-family="Courier,Courier" font-size="42.0" fill="#FEFDFF" transform="matrix(1.00, 0.00, -0.00, -1.00, 400.4, 719.8)">o</text><text xml:space="preserve" font-family="Courier,Courier" font-size="42.0" fill="#FEFDFF" transform="matrix(1.00, 0.00, -0.00, -1.00, 425.6, 719.8)">r</text><text xml:space="preserve" font-family="Courier,Courier" font-size="42.0" fill="#FEFDFF" transform="matrix(1.00, 0.00, -0.00, -1.00, 450.8, 719.8)">_</text><text xml:space="preserve" font-family="Courier,Courier" font-size="42.0" fill="#FEFDFF" transform="matrix(1.00, 0.00, -0.00, -1.00, 476.0, 719.8)">a</text><text xml:space="preserve" font-family="Courier,Courier" font-size="42.0" fill="#FEFDFF" transform="matrix(1.00, 0.00, -0.00, -1.00, 501.2, 719.8)">r</text><text xml:space="preserve" font-family="Courier,Courier" font-size="42.0" fill="#FEFDFF" transform="matrix(1.00, 0.00, -0.00, -1.00, 526.4, 719.8)">e</text><text xml:space="preserve" font-family="Courier,Courier" font-size="42.0" fill="#FEFDFF" transform="matrix(1.00, 0.00, -0.00, -1.00, 551.6, 719.8)">a</text><text xml:space="preserve" font-family="Courier,Courier" font-size="42.0" fill="#FEFDFF" transform="matrix(1.00, 0.00, -0.00, -1.00, 576.8, 719.8)">_</text><text xml:space="preserve" font-family="Courier,Courier" font-size="42.0" fill="#FEFDFF" transform="matrix(1.00, 0.00, -0.00, -1.00, 602.0, 719.8)">n</text><text xml:space="preserve" font-family="Courier,Courier" font-size="42.0" fill="#FEFDFF" transform="matrix(1.00, 0.00, -0.00, -1.00, 627.3, 719.8)">u</text><text xml:space="preserve" font-family="Courier,Courier" font-size="42.0" fill="#FEFDFF" transform="matrix(1.00, 0.00, -0.00, -1.00, 652.5, 719.8)">m</text><text xml:space="preserve" font-family="Courier,Courier" font-size="42.0" fill="#FEFDFF" transform="matrix(1.00, 0.00, -0.00, -1.00, 677.7, 719.8)">"</text><text xml:space="preserve" font-family="Courier,Courier" font-size="42.0" fill="#FEFDFF" transform="matrix(1.00, 0.00, -0.00, -1.00, 702.9, 719.8)">:</text><text xml:space="preserve" font-family="Courier,Courier" font-size="42.0" fill="#FEFDFF" transform="matrix(1.00, 0.00, -0.00, -1.00, 728.1, 719.8)">4</text><text xml:space="preserve" font-family="Courier,Courier" font-size="42.0" fill="#FEFDFF" transform="matrix(1.00, 0.00, -0.00, -1.00, 753.3, 719.8)">3</text><text xml:space="preserve" font-family="Courier,Courier" font-size="42.0" fill="#FEFDFF" transform="matrix(1.00, 0.00, -0.00, -1.00, 778.5, 719.8)">6</text><text xml:space="preserve" font-family="Courier,Courier" font-size="42.0" fill="#FEFDFF" transform="matrix(1.00, 0.00, -0.00, -1.00, 803.7, 719.8)">,</text><text xml:space="preserve" font-family="Courier,Courier" font-size="42.0" fill="#FEFDFF" transform="matrix(1.00, 0.00, -0.00, -1.00, 299.5, 669.8)">“</text><text xml:space="preserve" font-family="Courier,Courier" font-size="42.0" fill="#FEFDFF" transform="matrix(1.00, 0.00, -0.00, -1.00, 324.8, 669.8)">q</text><text xml:space="preserve" font-family="Courier,Courier" font-size="42.0" fill="#FEFDFF" transform="matrix(1.00, 0.00, -0.00, -1.00, 350.0, 669.8)">u</text><text xml:space="preserve" font-family="Courier,Courier" font-size="42.0" fill="#FEFDFF" transform="matrix(1.00, 0.00, -0.00, -1.00, 375.2, 669.8)">a</text><text xml:space="preserve" font-family="Courier,Courier" font-size="42.0" fill="#FEFDFF" transform="matrix(1.00, 0.00, -0.00, -1.00, 400.4, 669.8)">n</text><text xml:space="preserve" font-family="Courier,Courier" font-size="42.0" fill="#FEFDFF" transform="matrix(1.00, 0.00, -0.00, -1.00, 425.6, 669.8)">t</text><text xml:space="preserve" font-family="Courier,Courier" font-size="42.0" fill="#FEFDFF" transform="matrix(1.00, 0.00, -0.00, -1.00, 450.8, 669.8)">i</text><text xml:space="preserve" font-family="Courier,Courier" font-size="42.0" fill="#FEFDFF" transform="matrix(1.00, 0.00, -0.00, -1.00, 476.0, 669.8)">t</text><text xml:space="preserve" font-family="Courier,Courier" font-size="42.0" fill="#FEFDFF" transform="matrix(1.00, 0.00, -0.00, -1.00, 501.2, 669.8)">y</text><text xml:space="preserve" font-family="Courier,Courier" font-size="42.0" fill="#FEFDFF" transform="matrix(1.00, 0.00, -0.00, -1.00, 526.4, 669.8)">”</text><text xml:space="preserve" font-family="Courier,Courier" font-size="42.0" fill="#FEFDFF" transform="matrix(1.00, 0.00, -0.00, -1.00, 551.6, 669.8)">:</text><text xml:space="preserve" font-family="Courier,Courier" font-size="42.0" fill="#FEFDFF" transform="matrix(1.00, 0.00, -0.00, -1.00, 576.8, 669.8)">3</text><text xml:space="preserve" font-family="Courier,Courier" font-size="42.0" fill="#FEFDFF" transform="matrix(1.00, 0.00, -0.00, -1.00, 602.0, 669.8)">.</text><text xml:space="preserve" font-family="Courier,Courier" font-size="42.0" fill="#FEFDFF" transform="matrix(1.00, 0.00, -0.00, -1.00, 627.3, 669.8)">7</text><text xml:space="preserve" font-family="Courier,Courier" font-size="42.0" fill="#FEFDFF" transform="matrix(1.00, 0.00, -0.00, -1.00, 652.5, 669.8)">8</text><text xml:space="preserve" font-family="Courier,Courier" font-size="42.0" fill="#FEFDFF" transform="matrix(1.00, 0.00, -0.00, -1.00, 677.7, 669.8)">2</text><text xml:space="preserve" font-family="Courier,Courier" font-size="42.0" fill="#FEFDFF" transform="matrix(1.00, 0.00, -0.00, -1.00, 702.9, 669.8)">6</text><text xml:space="preserve" font-family="Courier,Courier" font-size="42.0" fill="#FEFDFF" transform="matrix(1.00, 0.00, -0.00, -1.00, 728.1, 669.8)">,</text><text xml:space="preserve" font-family="Courier,Courier" font-size="42.0" fill="#FEFDFF" transform="matrix(1.00, 0.00, -0.00, -1.00, 299.5, 619.8)">“</text><text xml:space="preserve" font-family="Courier,Courier" font-size="42.0" fill="#FEFDFF" transform="matrix(1.00, 0.00, -0.00, -1.00, 324.8, 619.8)">u</text><text xml:space="preserve" font-family="Courier,Courier" font-size="42.0" fill="#FEFDFF" transform="matrix(1.00, 0.00, -0.00, -1.00, 350.0, 619.8)">n</text><text xml:space="preserve" font-family="Courier,Courier" font-size="42.0" fill="#FEFDFF" transform="matrix(1.00, 0.00, -0.00, -1.00, 375.2, 619.8)">i</text><text xml:space="preserve" font-family="Courier,Courier" font-size="42.0" fill="#FEFDFF" transform="matrix(1.00, 0.00, -0.00, -1.00, 400.4, 619.8)">q</text><text xml:space="preserve" font-family="Courier,Courier" font-size="42.0" fill="#FEFDFF" transform="matrix(1.00, 0.00, -0.00, -1.00, 425.6, 619.8)">u</text><text xml:space="preserve" font-family="Courier,Courier" font-size="42.0" fill="#FEFDFF" transform="matrix(1.00, 0.00, -0.00, -1.00, 450.8, 619.8)">e</text><text xml:space="preserve" font-family="Courier,Courier" font-size="42.0" fill="#FEFDFF" transform="matrix(1.00, 0.00, -0.00, -1.00, 476.0, 619.8)">_</text><text xml:space="preserve" font-family="Courier,Courier" font-size="42.0" fill="#FEFDFF" transform="matrix(1.00, 0.00, -0.00, -1.00, 501.2, 619.8)">i</text><text xml:space="preserve" font-family="Courier,Courier" font-size="42.0" fill="#FEFDFF" transform="matrix(1.00, 0.00, -0.00, -1.00, 526.4, 619.8)">d</text><text xml:space="preserve" font-family="Courier,Courier" font-size="42.0" fill="#FEFDFF" transform="matrix(1.00, 0.00, -0.00, -1.00, 551.6, 619.8)">"</text><text xml:space="preserve" font-family="Courier,Courier" font-size="42.0" fill="#FEFDFF" transform="matrix(1.00, 0.00, -0.00, -1.00, 576.8, 619.8)">:</text><text xml:space="preserve" font-family="Courier,Courier" font-size="42.0" fill="#FEFDFF" transform="matrix(1.00, 0.00, -0.00, -1.00, 602.0, 619.8)">1</text><text xml:space="preserve" font-family="Courier,Courier" font-size="42.0" fill="#FEFDFF" transform="matrix(1.00, 0.00, -0.00, -1.00, 627.3, 619.8)">0</text><text xml:space="preserve" font-family="Courier,Courier" font-size="42.0" fill="#FEFDFF" transform="matrix(1.00, 0.00, -0.00, -1.00, 652.5, 619.8)">0</text><text xml:space="preserve" font-family="Courier,Courier" font-size="42.0" fill="#FEFDFF" transform="matrix(1.00, 0.00, -0.00, -1.00, 677.7, 619.8)">0</text><text xml:space="preserve" font-family="Courier,Courier" font-size="42.0" fill="#FEFDFF" transform="matrix(1.00, 0.00, -0.00, -1.00, 702.9, 619.8)">,</text><text xml:space="preserve" font-family="Courier,Courier" font-size="42.0" fill="#FEFDFF" transform="matrix(1.00, 0.00, -0.00, -1.00, 728.0, 619.8)"> </text><text xml:space="preserve" font-family="Courier,Courier" font-size="42.0" fill="#FEFDFF" transform="matrix(1.00, 0.00, -0.00, -1.00, 299.5, 569.8)">“</text><text xml:space="preserve" font-family="Courier,Courier" font-size="42.0" fill="#FEFDFF" transform="matrix(1.00, 0.00, -0.00, -1.00, 324.8, 569.8)">r</text><text xml:space="preserve" font-family="Courier,Courier" font-size="42.0" fill="#FEFDFF" transform="matrix(1.00, 0.00, -0.00, -1.00, 350.0, 569.8)">u</text><text xml:space="preserve" font-family="Courier,Courier" font-size="42.0" fill="#FEFDFF" transform="matrix(1.00, 0.00, -0.00, -1.00, 375.2, 569.8)">n</text><text xml:space="preserve" font-family="Courier,Courier" font-size="42.0" fill="#FEFDFF" transform="matrix(1.00, 0.00, -0.00, -1.00, 400.4, 569.8)">t</text><text xml:space="preserve" font-family="Courier,Courier" font-size="42.0" fill="#FEFDFF" transform="matrix(1.00, 0.00, -0.00, -1.00, 425.6, 569.8)">i</text><text xml:space="preserve" font-family="Courier,Courier" font-size="42.0" fill="#FEFDFF" transform="matrix(1.00, 0.00, -0.00, -1.00, 450.8, 569.8)">m</text><text xml:space="preserve" font-family="Courier,Courier" font-size="42.0" fill="#FEFDFF" transform="matrix(1.00, 0.00, -0.00, -1.00, 476.0, 569.8)">e</text><text xml:space="preserve" font-family="Courier,Courier" font-size="42.0" fill="#FEFDFF" transform="matrix(1.00, 0.00, -0.00, -1.00, 501.2, 569.8)">"</text><text xml:space="preserve" font-family="Courier,Courier" font-size="42.0" fill="#FEFDFF" transform="matrix(1.00, 0.00, -0.00, -1.00, 526.4, 569.8)">:</text><text xml:space="preserve" font-family="Courier,Courier" font-size="42.0" fill="#FEFDFF" transform="matrix(1.00, 0.00, -0.00, -1.00, 551.6, 569.8)">1</text><text xml:space="preserve" font-family="Courier,Courier" font-size="42.0" fill="#FEFDFF" transform="matrix(1.00, 0.00, -0.00, -1.00, 576.8, 569.8)">4</text><text xml:space="preserve" font-family="Courier,Courier" font-size="42.0" fill="#FEFDFF" transform="matrix(1.00, 0.00, -0.00, -1.00, 602.0, 569.8)">4</text><text xml:space="preserve" font-family="Courier,Courier" font-size="42.0" fill="#FEFDFF" transform="matrix(1.00, 0.00, -0.00, -1.00, 627.3, 569.8)">3</text><text xml:space="preserve" font-family="Courier,Courier" font-size="42.0" fill="#FEFDFF" transform="matrix(1.00, 0.00, -0.00, -1.00, 652.5, 569.8)">2</text><text xml:space="preserve" font-family="Courier,Courier" font-size="42.0" fill="#FEFDFF" transform="matrix(1.00, 0.00, -0.00, -1.00, 677.7, 569.8)">0</text><text xml:space="preserve" font-family="Courier,Courier" font-size="42.0" fill="#FEFDFF" transform="matrix(1.00, 0.00, -0.00, -1.00, 702.9, 569.8)">0</text><text xml:space="preserve" font-family="Courier,Courier" font-size="42.0" fill="#FEFDFF" transform="matrix(1.00, 0.00, -0.00, -1.00, 728.1, 569.8)">8</text><text xml:space="preserve" font-family="Courier,Courier" font-size="42.0" fill="#FEFDFF" transform="matrix(1.00, 0.00, -0.00, -1.00, 753.3, 569.8)">3</text><text xml:space="preserve" font-family="Courier,Courier" font-size="42.0" fill="#FEFDFF" transform="matrix(1.00, 0.00, -0.00, -1.00, 778.5, 569.8)">4</text><text xml:space="preserve" font-family="Courier,Courier" font-size="42.0" fill="#FEFDFF" transform="matrix(1.00, 0.00, -0.00, -1.00, 803.7, 569.8)">3</text><text xml:space="preserve" font-family="Courier,Courier" font-size="42.0" fill="#FEFDFF" transform="matrix(1.00, 0.00, -0.00, -1.00, 828.9, 569.8)">1</text><text xml:space="preserve" font-family="Courier,Courier" font-size="42.0" fill="#FEFDFF" transform="matrix(1.00, 0.00, -0.00, -1.00, 854.1, 569.8)">8</text><text xml:space="preserve" font-family="Courier,Courier" font-size="42.0" fill="#FEFDFF" transform="matrix(1.00, 0.00, -0.00, -1.00, 879.3, 569.8)">,</text><text xml:space="preserve" font-family="Courier,Courier" font-size="42.0" fill="#FEFDFF" transform="matrix(1.00, 0.00, -0.00, -1.00, 299.5, 519.8)">“</text><text xml:space="preserve" font-family="Courier,Courier" font-size="42.0" fill="#FEFDFF" transform="matrix(1.00, 0.00, -0.00, -1.00, 324.8, 519.8)">i</text><text xml:space="preserve" font-family="Courier,Courier" font-size="42.0" fill="#FEFDFF" transform="matrix(1.00, 0.00, -0.00, -1.00, 350.0, 519.8)">t</text><text xml:space="preserve" font-family="Courier,Courier" font-size="42.0" fill="#FEFDFF" transform="matrix(1.00, 0.00, -0.00, -1.00, 375.2, 519.8)">e</text><text xml:space="preserve" font-family="Courier,Courier" font-size="42.0" fill="#FEFDFF" transform="matrix(1.00, 0.00, -0.00, -1.00, 400.4, 519.8)">m</text><text xml:space="preserve" font-family="Courier,Courier" font-size="42.0" fill="#FEFDFF" transform="matrix(1.00, 0.00, -0.00, -1.00, 425.6, 519.8)">_</text><text xml:space="preserve" font-family="Courier,Courier" font-size="42.0" fill="#FEFDFF" transform="matrix(1.00, 0.00, -0.00, -1.00, 450.8, 519.8)">s</text><text xml:space="preserve" font-family="Courier,Courier" font-size="42.0" fill="#FEFDFF" transform="matrix(1.00, 0.00, -0.00, -1.00, 476.0, 519.8)">e</text><text xml:space="preserve" font-family="Courier,Courier" font-size="42.0" fill="#FEFDFF" transform="matrix(1.00, 0.00, -0.00, -1.00, 501.2, 519.8)">n</text><text xml:space="preserve" font-family="Courier,Courier" font-size="42.0" fill="#FEFDFF" transform="matrix(1.00, 0.00, -0.00, -1.00, 526.4, 519.8)">s</text><text xml:space="preserve" font-family="Courier,Courier" font-size="42.0" fill="#FEFDFF" transform="matrix(1.00, 0.00, -0.00, -1.00, 551.6, 519.8)">e</text><text xml:space="preserve" font-family="Courier,Courier" font-size="42.0" fill="#FEFDFF" transform="matrix(1.00, 0.00, -0.00, -1.00, 576.8, 519.8)">d</text><text xml:space="preserve" font-family="Courier,Courier" font-size="42.0" fill="#FEFDFF" transform="matrix(1.00, 0.00, -0.00, -1.00, 602.0, 519.8)">”</text><text xml:space="preserve" font-family="Courier,Courier" font-size="42.0" fill="#FEFDFF" transform="matrix(1.00, 0.00, -0.00, -1.00, 627.3, 519.8)">:</text><text xml:space="preserve" font-family="Courier,Courier" font-size="42.0" fill="#FEFDFF" transform="matrix(1.00, 0.00, -0.00, -1.00, 652.5, 519.8)">"</text><text xml:space="preserve" font-family="Courier,Courier" font-size="42.0" fill="#FEFDFF" transform="matrix(1.00, 0.00, -0.00, -1.00, 677.7, 519.8)">t</text><text xml:space="preserve" font-family="Courier,Courier" font-size="42.0" fill="#FEFDFF" transform="matrix(1.00, 0.00, -0.00, -1.00, 702.9, 519.8)">o</text><text xml:space="preserve" font-family="Courier,Courier" font-size="42.0" fill="#FEFDFF" transform="matrix(1.00, 0.00, -0.00, -1.00, 728.1, 519.8)">i</text><text xml:space="preserve" font-family="Courier,Courier" font-size="42.0" fill="#FEFDFF" transform="matrix(1.00, 0.00, -0.00, -1.00, 753.3, 519.8)">l</text><text xml:space="preserve" font-family="Courier,Courier" font-size="42.0" fill="#FEFDFF" transform="matrix(1.00, 0.00, -0.00, -1.00, 778.5, 519.8)">e</text><text xml:space="preserve" font-family="Courier,Courier" font-size="42.0" fill="#FEFDFF" transform="matrix(1.00, 0.00, -0.00, -1.00, 803.7, 519.8)">t</text><text xml:space="preserve" font-family="Courier,Courier" font-size="42.0" fill="#FEFDFF" transform="matrix(1.00, 0.00, -0.00, -1.00, 828.9, 519.8)">"</text><text xml:space="preserve" font-family="Courier,Courier" font-size="42.0" fill="#FEFDFF" transform="matrix(1.00, 0.00, -0.00, -1.00, 854.1, 519.8)">,</text><text xml:space="preserve" font-family="Courier,Courier" font-size="42.0" fill="#FEFDFF" transform="matrix(1.00, 0.00, -0.00, -1.00, 879.3, 519.8)"> </text><text xml:space="preserve" font-family="Courier,Courier" font-size="42.0" fill="#FEFDFF" transform="matrix(1.00, 0.00, -0.00, -1.00, 299.5, 469.8)">“</text><text xml:space="preserve" font-family="Courier,Courier" font-size="42.0" fill="#FEFDFF" transform="matrix(1.00, 0.00, -0.00, -1.00, 324.8, 469.8)">s</text><text xml:space="preserve" font-family="Courier,Courier" font-size="42.0" fill="#FEFDFF" transform="matrix(1.00, 0.00, -0.00, -1.00, 350.0, 469.8)">u</text><text xml:space="preserve" font-family="Courier,Courier" font-size="42.0" fill="#FEFDFF" transform="matrix(1.00, 0.00, -0.00, -1.00, 375.2, 469.8)">b</text><text xml:space="preserve" font-family="Courier,Courier" font-size="42.0" fill="#FEFDFF" transform="matrix(1.00, 0.00, -0.00, -1.00, 400.4, 469.8)">j</text><text xml:space="preserve" font-family="Courier,Courier" font-size="42.0" fill="#FEFDFF" transform="matrix(1.00, 0.00, -0.00, -1.00, 425.6, 469.8)">e</text><text xml:space="preserve" font-family="Courier,Courier" font-size="42.0" fill="#FEFDFF" transform="matrix(1.00, 0.00, -0.00, -1.00, 450.8, 469.8)">c</text><text xml:space="preserve" font-family="Courier,Courier" font-size="42.0" fill="#FEFDFF" transform="matrix(1.00, 0.00, -0.00, -1.00, 476.0, 469.8)">t</text><text xml:space="preserve" font-family="Courier,Courier" font-size="42.0" fill="#FEFDFF" transform="matrix(1.00, 0.00, -0.00, -1.00, 501.2, 469.8)">_</text><text xml:space="preserve" font-family="Courier,Courier" font-size="42.0" fill="#FEFDFF" transform="matrix(1.00, 0.00, -0.00, -1.00, 526.4, 469.8)">m</text><text xml:space="preserve" font-family="Courier,Courier" font-size="42.0" fill="#FEFDFF" transform="matrix(1.00, 0.00, -0.00, -1.00, 551.6, 469.8)">e</text><text xml:space="preserve" font-family="Courier,Courier" font-size="42.0" fill="#FEFDFF" transform="matrix(1.00, 0.00, -0.00, -1.00, 576.8, 469.8)">a</text><text xml:space="preserve" font-family="Courier,Courier" font-size="42.0" fill="#FEFDFF" transform="matrix(1.00, 0.00, -0.00, -1.00, 602.0, 469.8)">s</text><text xml:space="preserve" font-family="Courier,Courier" font-size="42.0" fill="#FEFDFF" transform="matrix(1.00, 0.00, -0.00, -1.00, 627.3, 469.8)">u</text><text xml:space="preserve" font-family="Courier,Courier" font-size="42.0" fill="#FEFDFF" transform="matrix(1.00, 0.00, -0.00, -1.00, 652.5, 469.8)">r</text><text xml:space="preserve" font-family="Courier,Courier" font-size="42.0" fill="#FEFDFF" transform="matrix(1.00, 0.00, -0.00, -1.00, 677.7, 469.8)">e</text><text xml:space="preserve" font-family="Courier,Courier" font-size="42.0" fill="#FEFDFF" transform="matrix(1.00, 0.00, -0.00, -1.00, 702.9, 469.8)">d</text><text xml:space="preserve" font-family="Courier,Courier" font-size="42.0" fill="#FEFDFF" transform="matrix(1.00, 0.00, -0.00, -1.00, 728.1, 469.8)">”</text><text xml:space="preserve" font-family="Courier,Courier" font-size="42.0" fill="#FEFDFF" transform="matrix(1.00, 0.00, -0.00, -1.00, 753.3, 469.8)">:</text><text xml:space="preserve" font-family="Courier,Courier" font-size="42.0" fill="#FEFDFF" transform="matrix(1.00, 0.00, -0.00, -1.00, 778.5, 469.8)">"</text><text xml:space="preserve" font-family="Courier,Courier" font-size="42.0" fill="#FEFDFF" transform="matrix(1.00, 0.00, -0.00, -1.00, 803.7, 469.8)">w</text><text xml:space="preserve" font-family="Courier,Courier" font-size="42.0" fill="#FEFDFF" transform="matrix(1.00, 0.00, -0.00, -1.00, 828.9, 469.8)">a</text><text xml:space="preserve" font-family="Courier,Courier" font-size="42.0" fill="#FEFDFF" transform="matrix(1.00, 0.00, -0.00, -1.00, 854.1, 469.8)">t</text><text xml:space="preserve" font-family="Courier,Courier" font-size="42.0" fill="#FEFDFF" transform="matrix(1.00, 0.00, -0.00, -1.00, 879.3, 469.8)">e</text><text xml:space="preserve" font-family="Courier,Courier" font-size="42.0" fill="#FEFDFF" transform="matrix(1.00, 0.00, -0.00, -1.00, 904.5, 469.8)">r</text><text xml:space="preserve" font-family="Courier,Courier" font-size="42.0" fill="#FEFDFF" transform="matrix(1.00, 0.00, -0.00, -1.00, 929.8, 469.8)">"</text><text xml:space="preserve" font-family="Courier,Courier" font-size="42.0" fill="#FEFDFF" transform="matrix(1.00, 0.00, -0.00, -1.00, 955.0, 469.8)">,</text><text xml:space="preserve" font-family="Courier,Courier" font-size="42.0" fill="#FEFDFF" transform="matrix(1.00, 0.00, -0.00, -1.00, 299.5, 419.8)">“</text><text xml:space="preserve" font-family="Courier,Courier" font-size="42.0" fill="#FEFDFF" transform="matrix(1.00, 0.00, -0.00, -1.00, 324.8, 419.8)">s</text><text xml:space="preserve" font-family="Courier,Courier" font-size="42.0" fill="#FEFDFF" transform="matrix(1.00, 0.00, -0.00, -1.00, 350.0, 419.8)">e</text><text xml:space="preserve" font-family="Courier,Courier" font-size="42.0" fill="#FEFDFF" transform="matrix(1.00, 0.00, -0.00, -1.00, 375.2, 419.8)">n</text><text xml:space="preserve" font-family="Courier,Courier" font-size="42.0" fill="#FEFDFF" transform="matrix(1.00, 0.00, -0.00, -1.00, 400.4, 419.8)">s</text><text xml:space="preserve" font-family="Courier,Courier" font-size="42.0" fill="#FEFDFF" transform="matrix(1.00, 0.00, -0.00, -1.00, 425.6, 419.8)">o</text><text xml:space="preserve" font-family="Courier,Courier" font-size="42.0" fill="#FEFDFF" transform="matrix(1.00, 0.00, -0.00, -1.00, 450.8, 419.8)">r</text><text xml:space="preserve" font-family="Courier,Courier" font-size="42.0" fill="#FEFDFF" transform="matrix(1.00, 0.00, -0.00, -1.00, 476.0, 419.8)">_</text><text xml:space="preserve" font-family="Courier,Courier" font-size="42.0" fill="#FEFDFF" transform="matrix(1.00, 0.00, -0.00, -1.00, 501.2, 419.8)">l</text><text xml:space="preserve" font-family="Courier,Courier" font-size="42.0" fill="#FEFDFF" transform="matrix(1.00, 0.00, -0.00, -1.00, 526.4, 419.8)">o</text><text xml:space="preserve" font-family="Courier,Courier" font-size="42.0" fill="#FEFDFF" transform="matrix(1.00, 0.00, -0.00, -1.00, 551.6, 419.8)">c</text><text xml:space="preserve" font-family="Courier,Courier" font-size="42.0" fill="#FEFDFF" transform="matrix(1.00, 0.00, -0.00, -1.00, 576.8, 419.8)">a</text><text xml:space="preserve" font-family="Courier,Courier" font-size="42.0" fill="#FEFDFF" transform="matrix(1.00, 0.00, -0.00, -1.00, 602.0, 419.8)">t</text><text xml:space="preserve" font-family="Courier,Courier" font-size="42.0" fill="#FEFDFF" transform="matrix(1.00, 0.00, -0.00, -1.00, 627.3, 419.8)">i</text><text xml:space="preserve" font-family="Courier,Courier" font-size="42.0" fill="#FEFDFF" transform="matrix(1.00, 0.00, -0.00, -1.00, 652.5, 419.8)">o</text><text xml:space="preserve" font-family="Courier,Courier" font-size="42.0" fill="#FEFDFF" transform="matrix(1.00, 0.00, -0.00, -1.00, 677.7, 419.8)">n</text><text xml:space="preserve" font-family="Courier,Courier" font-size="42.0" fill="#FEFDFF" transform="matrix(1.00, 0.00, -0.00, -1.00, 702.9, 419.8)">_</text><text xml:space="preserve" font-family="Courier,Courier" font-size="42.0" fill="#FEFDFF" transform="matrix(1.00, 0.00, -0.00, -1.00, 728.1, 419.8)">n</text><text xml:space="preserve" font-family="Courier,Courier" font-size="42.0" fill="#FEFDFF" transform="matrix(1.00, 0.00, -0.00, -1.00, 753.3, 419.8)">a</text><text xml:space="preserve" font-family="Courier,Courier" font-size="42.0" fill="#FEFDFF" transform="matrix(1.00, 0.00, -0.00, -1.00, 778.5, 419.8)">m</text><text xml:space="preserve" font-family="Courier,Courier" font-size="42.0" fill="#FEFDFF" transform="matrix(1.00, 0.00, -0.00, -1.00, 803.7, 419.8)">e</text><text xml:space="preserve" font-family="Courier,Courier" font-size="42.0" fill="#FEFDFF" transform="matrix(1.00, 0.00, -0.00, -1.00, 828.9, 419.8)">”</text><text xml:space="preserve" font-family="Courier,Courier" font-size="42.0" fill="#FEFDFF" transform="matrix(1.00, 0.00, -0.00, -1.00, 854.1, 419.8)">:</text><text xml:space="preserve" font-family="Courier,Courier" font-size="42.0" fill="#FEFDFF" transform="matrix(1.00, 0.00, -0.00, -1.00, 879.3, 419.8)">"</text><text xml:space="preserve" font-family="Courier,Courier" font-size="42.0" fill="#FEFDFF" transform="matrix(1.00, 0.00, -0.00, -1.00, 904.5, 419.8)">b</text><text xml:space="preserve" font-family="Courier,Courier" font-size="42.0" fill="#FEFDFF" transform="matrix(1.00, 0.00, -0.00, -1.00, 929.8, 419.8)">a</text><text xml:space="preserve" font-family="Courier,Courier" font-size="42.0" fill="#FEFDFF" transform="matrix(1.00, 0.00, -0.00, -1.00, 955.0, 419.8)">t</text><text xml:space="preserve" font-family="Courier,Courier" font-size="42.0" fill="#FEFDFF" transform="matrix(1.00, 0.00, -0.00, -1.00, 980.2, 419.8)">h</text><text xml:space="preserve" font-family="Courier,Courier" font-size="42.0" fill="#FEFDFF" transform="matrix(1.00, 0.00, -0.00, -1.00, 1005.4, 419.8)">r</text><text xml:space="preserve" font-family="Courier,Courier" font-size="42.0" fill="#FEFDFF" transform="matrix(1.00, 0.00, -0.00, -1.00, 1030.6, 419.8)">o</text><text xml:space="preserve" font-family="Courier,Courier" font-size="42.0" fill="#FEFDFF" transform="matrix(1.00, 0.00, -0.00, -1.00, 1055.8, 419.8)">o</text><text xml:space="preserve" font-family="Courier,Courier" font-size="42.0" fill="#FEFDFF" transform="matrix(1.00, 0.00, -0.00, -1.00, 1081.0, 419.8)">m</text><text xml:space="preserve" font-family="Courier,Courier" font-size="42.0" fill="#FEFDFF" transform="matrix(1.00, 0.00, -0.00, -1.00, 1106.2, 419.8)">"</text><text xml:space="preserve" font-family="Courier,Courier" font-size="42.0" fill="#FEFDFF" transform="matrix(1.00, 0.00, -0.00, -1.00, 1131.4, 419.8)">,</text><text xml:space="preserve" font-family="Courier,Courier" font-size="42.0" fill="#FEFDFF" transform="matrix(1.00, 0.00, -0.00, -1.00, 299.5, 369.8)">"</text><text xml:space="preserve" font-family="Courier,Courier" font-size="42.0" fill="#FEFDFF" transform="matrix(1.00, 0.00, -0.00, -1.00, 324.8, 369.8)">t</text><text xml:space="preserve" font-family="Courier,Courier" font-size="42.0" fill="#FEFDFF" transform="matrix(1.00, 0.00, -0.00, -1.00, 350.0, 369.8)">i</text><text xml:space="preserve" font-family="Courier,Courier" font-size="42.0" fill="#FEFDFF" transform="matrix(1.00, 0.00, -0.00, -1.00, 375.2, 369.8)">c</text><text xml:space="preserve" font-family="Courier,Courier" font-size="42.0" fill="#FEFDFF" transform="matrix(1.00, 0.00, -0.00, -1.00, 400.4, 369.8)">k</text><text xml:space="preserve" font-family="Courier,Courier" font-size="42.0" fill="#FEFDFF" transform="matrix(1.00, 0.00, -0.00, -1.00, 425.6, 369.8)">s</text><text xml:space="preserve" font-family="Courier,Courier" font-size="42.0" fill="#FEFDFF" transform="matrix(1.00, 0.00, -0.00, -1.00, 450.8, 369.8)">_</text><text xml:space="preserve" font-family="Courier,Courier" font-size="42.0" fill="#FEFDFF" transform="matrix(1.00, 0.00, -0.00, -1.00, 476.0, 369.8)">s</text><text xml:space="preserve" font-family="Courier,Courier" font-size="42.0" fill="#FEFDFF" transform="matrix(1.00, 0.00, -0.00, -1.00, 501.2, 369.8)">i</text><text xml:space="preserve" font-family="Courier,Courier" font-size="42.0" fill="#FEFDFF" transform="matrix(1.00, 0.00, -0.00, -1.00, 526.4, 369.8)">n</text><text xml:space="preserve" font-family="Courier,Courier" font-size="42.0" fill="#FEFDFF" transform="matrix(1.00, 0.00, -0.00, -1.00, 551.6, 369.8)">c</text><text xml:space="preserve" font-family="Courier,Courier" font-size="42.0" fill="#FEFDFF" transform="matrix(1.00, 0.00, -0.00, -1.00, 576.8, 369.8)">e</text><text xml:space="preserve" font-family="Courier,Courier" font-size="42.0" fill="#FEFDFF" transform="matrix(1.00, 0.00, -0.00, -1.00, 602.0, 369.8)">_</text><text xml:space="preserve" font-family="Courier,Courier" font-size="42.0" fill="#FEFDFF" transform="matrix(1.00, 0.00, -0.00, -1.00, 627.3, 369.8)">t</text><text xml:space="preserve" font-family="Courier,Courier" font-size="42.0" fill="#FEFDFF" transform="matrix(1.00, 0.00, -0.00, -1.00, 652.5, 369.8)">u</text><text xml:space="preserve" font-family="Courier,Courier" font-size="42.0" fill="#FEFDFF" transform="matrix(1.00, 0.00, -0.00, -1.00, 677.7, 369.8)">r</text><text xml:space="preserve" font-family="Courier,Courier" font-size="42.0" fill="#FEFDFF" transform="matrix(1.00, 0.00, -0.00, -1.00, 702.9, 369.8)">n</text><text xml:space="preserve" font-family="Courier,Courier" font-size="42.0" fill="#FEFDFF" transform="matrix(1.00, 0.00, -0.00, -1.00, 728.1, 369.8)">_</text><text xml:space="preserve" font-family="Courier,Courier" font-size="42.0" fill="#FEFDFF" transform="matrix(1.00, 0.00, -0.00, -1.00, 753.3, 369.8)">o</text><text xml:space="preserve" font-family="Courier,Courier" font-size="42.0" fill="#FEFDFF" transform="matrix(1.00, 0.00, -0.00, -1.00, 778.5, 369.8)">n</text><text xml:space="preserve" font-family="Courier,Courier" font-size="42.0" fill="#FEFDFF" transform="matrix(1.00, 0.00, -0.00, -1.00, 803.7, 369.8)">"</text><text xml:space="preserve" font-family="Courier,Courier" font-size="42.0" fill="#FEFDFF" transform="matrix(1.00, 0.00, -0.00, -1.00, 828.9, 369.8)">:</text><text xml:space="preserve" font-family="Courier,Courier" font-size="42.0" fill="#FEFDFF" transform="matrix(1.00, 0.00, -0.00, -1.00, 854.1, 369.8)">2</text><text xml:space="preserve" font-family="Courier,Courier" font-size="42.0" fill="#FEFDFF" transform="matrix(1.00, 0.00, -0.00, -1.00, 879.2, 369.8)">}</text></g></svg>