<?xml version="1.0" encoding="UTF-8" standalone="no"?><svg xmlns="http://www.w3.org/2000/svg" xmlns:xlink="http://www.w3.org/1999/xlink" clip-rule="evenodd" stroke-miterlimit="10" viewBox="0 0 1920 1080"><desc>SVG generated by Keynote</desc><defs></defs><g transform="matrix(1.00, 0.00, -0.00, -1.00, 0.0, 1080.0)"><g><clipPath id="clip0x7fad41114340"><path d="M 0.0 1080.0 L 1920.0 1080.0 L 1920.0 0.0 L 0.0 0.0 Z M 0.0 1080.0 "></path></clipPath><g clip-path="url(#clip0x7fad41114340)"><image xlink:href="../../D96BE7B2-ED93-443D-8026-784A345E870E/assets/0BF7C4DE38584FF55ABE8E2C53BD5CCD.jpeg" width="2048.00" height="1536.00" transform="matrix(0.94, 0.00, -0.00, -0.70, 0.0, 1080.0)"></image></g></g><path d="M 0.1 0.1 L 1378.1 0.1 L 1378.1 1021.1 L 0.1 1021.1 Z M 0.0 0.0 " fill="none" stroke="#83817C" stroke-width="2.00" transform="matrix(1.00, 0.00, 0.00, -1.00, 270.9, 1049.1)"></path><image xlink:href="../../D96BE7B2-ED93-443D-8026-784A345E870E/assets/EDD541C691274D8211265DC897279074.png" width="474.00" height="516.00" transform="matrix(0.65, 0.00, -0.00, -0.65, 1357.0, 732.0)"></image><text xml:space="preserve" font-family="HelveticaNeue-Light,Helvetica Neue" font-size="100.0" fill="#558AAA" transform="matrix(1.00, 0.00, -0.00, -1.00, 478.4, 76.5)">P</text><text xml:space="preserve" font-family="HelveticaNeue-Light,Helvetica Neue" font-size="100.0" fill="#558AAA" transform="matrix(1.00, 0.00, -0.00, -1.00, 541.4, 76.5)">r</text><text xml:space="preserve" font-family="HelveticaNeue-Light,Helvetica Neue" font-size="100.0" fill="#558AAA" transform="matrix(1.00, 0.00, -0.00, -1.00, 571.1, 76.5)">o</text><text xml:space="preserve" font-family="HelveticaNeue-Light,Helvetica Neue" font-size="100.0" fill="#558AAA" transform="matrix(1.00, 0.00, -0.00, -1.00, 626.7, 76.5)">d</text><text xml:space="preserve" font-family="HelveticaNeue-Light,Helvetica Neue" font-size="100.0" fill="#558AAA" transform="matrix(1.00, 0.00, -0.00, -1.00, 684.1, 76.5)">u</text><text xml:space="preserve" font-family="HelveticaNeue-Light,Helvetica Neue" font-size="100.0" fill="#558AAA" transform="matrix(1.00, 0.00, -0.00, -1.00, 737.8, 76.5)">c</text><text xml:space="preserve" font-family="HelveticaNeue-Light,Helvetica Neue" font-size="100.0" fill="#558AAA" transform="matrix(1.00, 0.00, -0.00, -1.00, 789.7, 76.5)">e</text><text xml:space="preserve" font-family="HelveticaNeue-Light,Helvetica Neue" font-size="100.0" fill="#558AAA" transform="matrix(1.00, 0.00, -0.00, -1.00, 841.6, 76.5)">r</text><text xml:space="preserve" font-family="HelveticaNeue-Light,Helvetica Neue" font-size="100.0" fill="#558AAA" transform="matrix(1.00, 0.00, -0.00, -1.00, 873.1, 76.5)"> </text><text xml:space="preserve" font-family="HelveticaNeue-Light,Helvetica Neue" font-size="100.0" fill="#558AAA" transform="matrix(1.00, 0.00, -0.00, -1.00, 900.9, 76.5)">S</text><text xml:space="preserve" font-family="HelveticaNeue-Light,Helvetica Neue" font-size="100.0" fill="#558AAA" transform="matrix(1.00, 0.00, -0.00, -1.00, 963.9, 76.5)">e</text><text xml:space="preserve" font-family="HelveticaNeue-Light,Helvetica Neue" font-size="100.0" fill="#558AAA" transform="matrix(1.00, 0.00, -0.00, -1.00, 1015.8, 76.5)">r</text><text xml:space="preserve" font-family="HelveticaNeue-Light,Helvetica Neue" font-size="100.0" fill="#558AAA" transform="matrix(1.00, 0.00, -0.00, -1.00, 1047.3, 76.5)">i</text><text xml:space="preserve" font-family="HelveticaNeue-Light,Helvetica Neue" font-size="100.0" fill="#558AAA" transform="matrix(1.00, 0.00, -0.00, -1.00, 1065.8, 76.5)">a</text><text xml:space="preserve" font-family="HelveticaNeue-Light,Helvetica Neue" font-size="100.0" fill="#558AAA" transform="matrix(1.00, 0.00, -0.00, -1.00, 1117.7, 76.5)">l</text><text xml:space="preserve" font-family="HelveticaNeue-Light,Helvetica Neue" font-size="100.0" fill="#558AAA" transform="matrix(1.00, 0.00, -0.00, -1.00, 1136.2, 76.5)">i</text><text xml:space="preserve" font-family="HelveticaNeue-Light,Helvetica Neue" font-size="100.0" fill="#558AAA" transform="matrix(1.00, 0.00, -0.00, -1.00, 1154.7, 76.5)">z</text><text xml:space="preserve" font-family="HelveticaNeue-Light,Helvetica Neue" font-size="100.0" fill="#558AAA" transform="matrix(1.00, 0.00, -0.00, -1.00, 1201.0, 76.5)">a</text><text xml:space="preserve" font-family="HelveticaNeue-Light,Helvetica Neue" font-size="100.0" fill="#558AAA" transform="matrix(1.00, 0.00, -0.00, -1.00, 1252.9, 76.5)">t</text><text xml:space="preserve" font-family="HelveticaNeue-Light,Helvetica Neue" font-size="100.0" fill="#558AAA" transform="matrix(1.00, 0.00, -0.00, -1.00, 1282.5, 76.5)">i</text><text xml:space="preserve" font-family="HelveticaNeue-Light,Helvetica Neue" font-size="100.0" fill="#558AAA" transform="matrix(1.00, 0.00, -0.00, -1.00, 1301.0, 76.5)">o</text><text xml:space="preserve" font-family="HelveticaNeue-Light,Helvetica Neue" font-size="100.0" fill="#558AAA" transform="matrix(1.00, 0.00, -0.00, -1.00, 1356.6, 76.5)">n</text><image xlink:href="../../D96BE7B2-ED93-443D-8026-784A345E870E/assets/931714F196A50ACB6BA2A47480109345.png" width="680.00" height="224.00" transform="matrix(0.79, 0.00, -0.00, -0.79, 698.0, 828.0)"></image><image xlink:href="../../D96BE7B2-ED93-443D-8026-784A345E870E/assets/CC864B3B8B1CE1523620DB0C21C27C85.png" width="518.00" height="518.00" transform="matrix(0.67, 0.00, -0.00, -0.67, 231.0, 763.0)"></image><image xlink:href="../../D96BE7B2-ED93-443D-8026-784A345E870E/assets/7F26C4B6FE54BA208550D028796B669E.png" width="690.00" height="330.00" transform="matrix(0.54, 0.00, -0.00, -0.54, 782.0, 645.0)"></image><g><clipPath id="clip0x7fad42907730"><path d="M 1387.2 813.4 L 1507.2 813.4 L 1507.2 935.1 L 1387.2 935.1 Z M 1387.2 813.4 "></path></clipPath><g clip-path="url(#clip0x7fad42907730)"><path d="M 99.0 17.2 C 121.6 40.2 121.6 77.5 99.0 100.5 C 76.3 123.5 39.6 123.5 17.0 100.5 C -5.7 77.5 -5.7 40.2 17.0 17.2 C 39.6 -5.7 76.3 -5.7 99.0 17.2 Z M 99.0 17.2 " fill="none" stroke="#83817C" stroke-width="2.00" transform="matrix(1.00, 0.00, 0.00, -1.00, 1389.2, 933.1)"></path></g></g><g><clipPath id="clip0x7fad411d3150"><path d="M 1389.2 815.4 L 1505.2 815.4 L 1505.2 933.1 L 1389.2 933.1 Z M 1389.2 815.4 "></path></clipPath><g clip-path="url(#clip0x7fad411d3150)"><text xml:space="preserve" font-family="HelveticaNeue,Helvetica Neue" font-size="35.0" fill="#727272" transform="matrix(1.00, 0.00, -0.00, -1.00, 1431.9, 884.5)">t</text><text xml:space="preserve" font-family="HelveticaNeue,Helvetica Neue" font-size="35.0" fill="#727272" transform="matrix(1.00, 0.00, -0.00, -1.00, 1443.0, 884.5)">2</text><text xml:space="preserve" font-family="HelveticaNeue,Helvetica Neue" font-size="35.0" fill="#727272" transform="matrix(1.00, 0.00, -0.00, -1.00, 1462.4, 884.5)"> </text><text xml:space="preserve" font-family="HelveticaNeue,Helvetica Neue" font-size="35.0" fill="#727272" transform="matrix(1.00, 0.00, -0.00, -1.00, 1412.5, 843.5)">m</text><text xml:space="preserve" font-family="HelveticaNeue,Helvetica Neue" font-size="35.0" fill="#727272" transform="matrix(1.00, 0.00, -0.00, -1.00, 1442.3, 843.5)">e</text><text xml:space="preserve" font-family="HelveticaNeue,Helvetica Neue" font-size="35.0" fill="#727272" transform="matrix(1.00, 0.00, -0.00, -1.00, 1461.1, 843.5)">d</text></g></g><g><clipPath id="clip0x7fad4110c560"><path d="M 1513.5 813.4 L 1633.5 813.4 L 1633.5 935.1 L 1513.5 935.1 Z M 1513.5 813.4 "></path></clipPath><g clip-path="url(#clip0x7fad4110c560)"><path d="M 99.0 17.2 C 121.6 40.2 121.6 77.5 99.0 100.5 C 76.3 123.5 39.6 123.5 17.0 100.5 C -5.7 77.5 -5.7 40.2 17.0 17.2 C 39.6 -5.7 76.3 -5.7 99.0 17.2 Z M 99.0 17.2 " fill="none" stroke="#83817C" stroke-width="2.00" transform="matrix(1.00, 0.00, 0.00, -1.00, 1515.5, 933.1)"></path></g></g><g><clipPath id="clip0x7fad4110d760"><path d="M 1515.5 815.4 L 1631.5 815.4 L 1631.5 933.1 L 1515.5 933.1 Z M 1515.5 815.4 "></path></clipPath><g clip-path="url(#clip0x7fad4110d760)"><text xml:space="preserve" font-family="HelveticaNeue,Helvetica Neue" font-size="35.0" fill="#727272" transform="matrix(1.00, 0.00, -0.00, -1.00, 1558.3, 884.5)">t</text><text xml:space="preserve" font-family="HelveticaNeue,Helvetica Neue" font-size="35.0" fill="#727272" transform="matrix(1.00, 0.00, -0.00, -1.00, 1569.3, 884.5)">2</text><text xml:space="preserve" font-family="HelveticaNeue,Helvetica Neue" font-size="35.0" fill="#727272" transform="matrix(1.00, 0.00, -0.00, -1.00, 1588.7, 884.5)"> </text><text xml:space="preserve" font-family="HelveticaNeue,Helvetica Neue" font-size="35.0" fill="#727272" transform="matrix(1.00, 0.00, -0.00, -1.00, 1538.8, 843.5)">m</text><text xml:space="preserve" font-family="HelveticaNeue,Helvetica Neue" font-size="35.0" fill="#727272" transform="matrix(1.00, 0.00, -0.00, -1.00, 1568.7, 843.5)">e</text><text xml:space="preserve" font-family="HelveticaNeue,Helvetica Neue" font-size="35.0" fill="#727272" transform="matrix(1.00, 0.00, -0.00, -1.00, 1587.5, 843.5)">d</text></g></g><g><clipPath id="clip0x7fad4288e760"><path d="M 1451.4 920.3 L 1571.4 920.3 L 1571.4 1042.0 L 1451.4 1042.0 Z M 1451.4 920.3 "></path></clipPath><g clip-path="url(#clip0x7fad4288e760)"><path d="M 99.0 17.2 C 121.6 40.2 121.6 77.5 99.0 100.5 C 76.3 123.5 39.6 123.5 17.0 100.5 C -5.7 77.5 -5.7 40.2 17.0 17.2 C 39.6 -5.7 76.3 -5.7 99.0 17.2 Z M 99.0 17.2 " fill="none" stroke="#83817C" stroke-width="2.00" transform="matrix(1.00, 0.00, 0.00, -1.00, 1453.4, 1040.0)"></path></g></g><g><clipPath id="clip0x7fad42891310"><path d="M 1453.4 922.3 L 1569.4 922.3 L 1569.4 1040.0 L 1453.4 1040.0 Z M 1453.4 922.3 "></path></clipPath><g clip-path="url(#clip0x7fad42891310)"><text xml:space="preserve" font-family="HelveticaNeue,Helvetica Neue" font-size="35.0" fill="#727272" transform="matrix(1.00, 0.00, -0.00, -1.00, 1496.1, 991.5)">t</text><text xml:space="preserve" font-family="HelveticaNeue,Helvetica Neue" font-size="35.0" fill="#727272" transform="matrix(1.00, 0.00, -0.00, -1.00, 1507.2, 991.5)">2</text><text xml:space="preserve" font-family="HelveticaNeue,Helvetica Neue" font-size="35.0" fill="#727272" transform="matrix(1.00, 0.00, -0.00, -1.00, 1526.6, 991.5)"> </text><text xml:space="preserve" font-family="HelveticaNeue,Helvetica Neue" font-size="35.0" fill="#727272" transform="matrix(1.00, 0.00, -0.00, -1.00, 1476.7, 950.5)">m</text><text xml:space="preserve" font-family="HelveticaNeue,Helvetica Neue" font-size="35.0" fill="#727272" transform="matrix(1.00, 0.00, -0.00, -1.00, 1506.5, 950.5)">e</text><text xml:space="preserve" font-family="HelveticaNeue,Helvetica Neue" font-size="35.0" fill="#727272" transform="matrix(1.00, 0.00, -0.00, -1.00, 1525.3, 950.5)">d</text></g></g><path d="M 6.1 -0.3 C 2.7 0.0 -0.1 2.7 -0.1 6.1 L -0.1 129.5 C -0.1 132.9 2.7 135.7 6.1 135.7 L 89.4 135.7 L 107.9 184.6 L 126.4 135.7 L 220.9 135.7 C 224.3 135.7 226.9 132.9 226.9 129.5 L 226.9 6.1 C 226.9 2.7 224.3 -0.3 220.9 -0.3 L 6.1 -0.3 Z M 6.1 0.0 " fill="none" stroke="#83817C" stroke-width="2.00" transform="matrix(1.00, 0.00, 0.00, -1.00, 291.1, 957.7)"></path><g><clipPath id="clip0x7fad428967f0"><path d="M 285.4 822.0 L 523.7 822.0 L 523.7 957.7 L 285.4 957.7 Z M 285.4 822.0 "></path></clipPath><g clip-path="url(#clip0x7fad428967f0)"><text xml:space="preserve" font-family="HelveticaNeue,Helvetica Neue" font-size="42.0" fill="#727272" transform="matrix(1.00, 0.00, -0.00, -1.00, 301.9, 875.1)">{</text><text xml:space="preserve" font-family="HelveticaNeue,Helvetica Neue" font-size="42.0" fill="#727272" transform="matrix(1.00, 0.00, -0.00, -1.00, 315.9, 875.1)"> </text><text xml:space="preserve" font-family="HelveticaNeue,Helvetica Neue" font-size="42.0" fill="#727272" transform="matrix(1.00, 0.00, -0.00, -1.00, 327.5, 875.1)">S</text><text xml:space="preserve" font-family="HelveticaNeue,Helvetica Neue" font-size="42.0" fill="#727272" transform="matrix(1.00, 0.00, -0.00, -1.00, 354.8, 875.1)">c</text><text xml:space="preserve" font-family="HelveticaNeue,Helvetica Neue" font-size="42.0" fill="#727272" transform="matrix(1.00, 0.00, -0.00, -1.00, 377.3, 875.1)">h</text><text xml:space="preserve" font-family="HelveticaNeue,Helvetica Neue" font-size="42.0" fill="#727272" transform="matrix(1.00, 0.00, -0.00, -1.00, 400.7, 875.1)">e</text><text xml:space="preserve" font-family="HelveticaNeue,Helvetica Neue" font-size="42.0" fill="#727272" transform="matrix(1.00, 0.00, -0.00, -1.00, 423.2, 875.1)">m</text><text xml:space="preserve" font-family="HelveticaNeue,Helvetica Neue" font-size="42.0" fill="#727272" transform="matrix(1.00, 0.00, -0.00, -1.00, 459.0, 875.1)">a</text><text xml:space="preserve" font-family="HelveticaNeue,Helvetica Neue" font-size="42.0" fill="#727272" transform="matrix(1.00, 0.00, -0.00, -1.00, 481.6, 875.1)"> </text><text xml:space="preserve" font-family="HelveticaNeue,Helvetica Neue" font-size="42.0" fill="#727272" transform="matrix(1.00, 0.00, -0.00, -1.00, 493.3, 875.1)">}</text></g></g><image xlink:href="../../D96BE7B2-ED93-443D-8026-784A345E870E/assets/D53DA544E547B1B356DE30A7E0F50A70.png" width="1350.00" height="615.00" transform="matrix(0.29, 0.00, -0.00, -0.29, 781.0, 415.0)"></image><path d="M -0.3 0.0 L 124.6 0.0 L 126.7 0.0 " fill="none" stroke="#605F5C" stroke-width="4.00" stroke-linecap="round" stroke-dasharray="0.0, 12.0" transform="matrix(1.00, 0.00, 0.00, -1.00, 562.3, 556.0)"></path><path d="M 687.0 547.6 L 703.8 556.0 L 687.0 564.4 Z M 687.0 547.6 " fill="#605F5C"></path><path d="M -0.3 -0.0 L 124.6 -0.0 L 126.7 -0.0 " fill="none" stroke="#605F5C" stroke-width="4.00" stroke-linecap="round" stroke-dasharray="0.0, 12.0" transform="matrix(1.00, 0.00, 0.00, -1.00, 562.3, 390.0)"></path><path d="M 687.0 381.6 L 703.8 390.0 L 687.0 398.4 Z M 687.0 381.6 " fill="#605F5C"></path><path d="M -0.3 0.1 L 124.6 0.1 L 126.7 0.1 " fill="none" stroke="#605F5C" stroke-width="4.00" stroke-linecap="round" stroke-dasharray="0.0, 12.0" transform="matrix(1.00, 0.00, 0.00, -1.00, 562.3, 722.1)"></path><path d="M 687.0 713.6 L 703.8 722.0 L 687.0 730.4 Z M 687.0 713.6 " fill="#605F5C"></path><path d="M 0.2 0.0 L 124.6 0.0 L 126.2 0.0 " fill="none" stroke="#605F5C" stroke-width="4.00" stroke-linecap="round" stroke-dasharray="0.0, 12.0" transform="matrix(1.00, 0.00, 0.00, -1.00, 1208.8, 556.0)"></path><path d="M 1333.0 547.6 L 1349.8 556.0 L 1333.0 564.4 Z M 1333.0 547.6 " fill="#605F5C"></path><path d="M 0.2 -0.0 L 124.6 -0.0 L 126.2 -0.0 " fill="none" stroke="#605F5C" stroke-width="4.00" stroke-linecap="round" stroke-dasharray="0.0, 12.0" transform="matrix(1.00, 0.00, 0.00, -1.00, 1208.8, 390.0)"></path><path d="M 1333.0 381.6 L 1349.8 390.0 L 1333.0 398.4 Z M 1333.0 381.6 " fill="#605F5C"></path><path d="M 0.2 0.1 L 124.6 0.1 L 126.2 0.1 " fill="none" stroke="#605F5C" stroke-width="4.00" stroke-linecap="round" stroke-dasharray="0.0, 12.0" transform="matrix(1.00, 0.00, 0.00, -1.00, 1208.8, 722.1)"></path><path d="M 1333.0 713.6 L 1349.8 722.0 L 1333.0 730.4 Z M 1333.0 713.6 " fill="#605F5C"></path><path d="M 118.4 -50.0 L 99.9 0.1 L 6.1 0.1 C 2.7 0.1 -0.0 2.7 -0.0 6.1 L -0.0 128.4 C -0.0 131.8 2.7 134.1 6.1 134.1 L 220.9 134.1 C 224.3 134.1 227.0 131.8 227.0 128.4 L 227.0 6.1 C 227.0 2.7 224.3 0.1 220.9 0.1 L 137.0 0.1 L 118.4 -50.0 Z M 118.4 -50.0 " fill="none" stroke="#83817C" stroke-width="2.00" transform="matrix(1.00, 0.00, 0.00, -1.00, 291.0, 392.1)"></path><g><clipPath id="clip0x7fad42f090c0"><path d="M 285.4 257.6 L 523.7 257.6 L 523.7 392.1 L 285.4 392.1 Z M 285.4 257.6 "></path></clipPath><g clip-path="url(#clip0x7fad42f090c0)"><text xml:space="preserve" font-family="HelveticaNeue,Helvetica Neue" font-size="42.0" fill="#727272" transform="matrix(1.00, 0.00, -0.00, -1.00, 301.9, 310.1)">{</text><text xml:space="preserve" font-family="HelveticaNeue,Helvetica Neue" font-size="42.0" fill="#727272" transform="matrix(1.00, 0.00, -0.00, -1.00, 315.9, 310.1)"> </text><text xml:space="preserve" font-family="HelveticaNeue,Helvetica Neue" font-size="42.0" fill="#727272" transform="matrix(1.00, 0.00, -0.00, -1.00, 327.5, 310.1)">S</text><text xml:space="preserve" font-family="HelveticaNeue,Helvetica Neue" font-size="42.0" fill="#727272" transform="matrix(1.00, 0.00, -0.00, -1.00, 354.8, 310.1)">c</text><text xml:space="preserve" font-family="HelveticaNeue,Helvetica Neue" font-size="42.0" fill="#727272" transform="matrix(1.00, 0.00, -0.00, -1.00, 377.3, 310.1)">h</text><text xml:space="preserve" font-family="HelveticaNeue,Helvetica Neue" font-size="42.0" fill="#727272" transform="matrix(1.00, 0.00, -0.00, -1.00, 400.7, 310.1)">e</text><text xml:space="preserve" font-family="HelveticaNeue,Helvetica Neue" font-size="42.0" fill="#727272" transform="matrix(1.00, 0.00, -0.00, -1.00, 423.2, 310.1)">m</text><text xml:space="preserve" font-family="HelveticaNeue,Helvetica Neue" font-size="42.0" fill="#727272" transform="matrix(1.00, 0.00, -0.00, -1.00, 459.0, 310.1)">a</text><text xml:space="preserve" font-family="HelveticaNeue,Helvetica Neue" font-size="42.0" fill="#727272" transform="matrix(1.00, 0.00, -0.00, -1.00, 481.6, 310.1)"> </text><text xml:space="preserve" font-family="HelveticaNeue,Helvetica Neue" font-size="42.0" fill="#727272" transform="matrix(1.00, 0.00, -0.00, -1.00, 493.3, 310.1)">}</text></g></g><path d="M 0.3 0.1 L 275.3 0.1 L 275.3 253.1 L 0.3 253.1 Z M 0.0 0.0 " fill="none" stroke="#83817C" stroke-width="2.00" transform="matrix(1.00, 0.00, 0.00, -1.00, 1373.7, 1049.1)"></path></g></svg>