<?xml version="1.0" encoding="UTF-8" standalone="no"?><svg xmlns="http://www.w3.org/2000/svg" xmlns:xlink="http://www.w3.org/1999/xlink" clip-rule="evenodd" stroke-miterlimit="10" viewBox="0 0 1920 1080"><desc>SVG generated by Keynote</desc><defs></defs><g transform="matrix(1.00, 0.00, -0.00, -1.00, 0.0, 1080.0)"><g><clipPath id="clip0x7fad43c5bb60"><path d="M 0.0 1080.0 L 1920.0 1080.0 L 1920.0 0.0 L 0.0 0.0 Z M 0.0 1080.0 "></path></clipPath><g clip-path="url(#clip0x7fad43c5bb60)"><image xlink:href="D36CE392FB50DB87B0725C05E3D219AA.jpeg" width="2048.00" height="1536.00" transform="matrix(0.94, 0.00, -0.00, -0.70, 0.0, 1080.0)"></image></g></g><path d="M 0.1 0.1 L 1378.1 0.1 L 1378.1 1021.1 L 0.1 1021.1 Z M 0.0 0.0 " fill="none" stroke="#83817C" stroke-width="2.00" transform="matrix(1.00, 0.00, 0.00, -1.00, 270.9, 1049.1)"></path><text xml:space="preserve" font-family="HelveticaNeue-Medium,Helvetica Neue" font-size="42.0" fill="#C2C2C2" transform="matrix(1.00, 0.00, -0.00, -1.00, 1267.6, 70.4)">S</text><text xml:space="preserve" font-family="HelveticaNeue-Medium,Helvetica Neue" font-size="42.0" fill="#C2C2C2" transform="matrix(1.00, 0.00, -0.00, -1.00, 1294.8, 70.4)">H</text><text xml:space="preserve" font-family="HelveticaNeue-Medium,Helvetica Neue" font-size="42.0" fill="#C2C2C2" transform="matrix(1.00, 0.00, -0.00, -1.00, 1325.1, 70.4)">A</text><text xml:space="preserve" font-family="HelveticaNeue-Medium,Helvetica Neue" font-size="42.0" fill="#C2C2C2" transform="matrix(1.00, 0.00, -0.00, -1.00, 1353.1, 70.4)">U</text><text xml:space="preserve" font-family="HelveticaNeue-Medium,Helvetica Neue" font-size="42.0" fill="#C2C2C2" transform="matrix(1.00, 0.00, -0.00, -1.00, 1383.5, 70.4)">N</text><text xml:space="preserve" font-family="HelveticaNeue-Medium,Helvetica Neue" font-size="42.0" fill="#C2C2C2" transform="matrix(1.00, 0.00, -0.00, -1.00, 1413.8, 70.4)"> </text><text xml:space="preserve" font-family="HelveticaNeue-Medium,Helvetica Neue" font-size="42.0" fill="#C2C2C2" transform="matrix(1.00, 0.00, -0.00, -1.00, 1425.5, 70.4)">D</text><text xml:space="preserve" font-family="HelveticaNeue-Medium,Helvetica Neue" font-size="42.0" fill="#C2C2C2" transform="matrix(1.00, 0.00, -0.00, -1.00, 1455.8, 70.4)">O</text><text xml:space="preserve" font-family="HelveticaNeue-Medium,Helvetica Neue" font-size="42.0" fill="#C2C2C2" transform="matrix(1.00, 0.00, -0.00, -1.00, 1487.7, 70.4)">N</text><text xml:space="preserve" font-family="HelveticaNeue-Medium,Helvetica Neue" font-size="42.0" fill="#C2C2C2" transform="matrix(1.00, 0.00, -0.00, -1.00, 1518.0, 70.4)">A</text><text xml:space="preserve" font-family="HelveticaNeue-Medium,Helvetica Neue" font-size="42.0" fill="#C2C2C2" transform="matrix(1.00, 0.00, -0.00, -1.00, 1546.0, 70.4)">C</text><text xml:space="preserve" font-family="HelveticaNeue-Medium,Helvetica Neue" font-size="42.0" fill="#C2C2C2" transform="matrix(1.00, 0.00, -0.00, -1.00, 1576.4, 70.4)">H</text><text xml:space="preserve" font-family="HelveticaNeue-Medium,Helvetica Neue" font-size="42.0" fill="#C2C2C2" transform="matrix(1.00, 0.00, -0.00, -1.00, 1606.7, 70.4)">Y</text><image xlink:href="0415ADC03D0C70B97451C0C6BAB09D6A.jpeg" width="1472.00" height="816.00" transform="matrix(0.92, 0.00, -0.00, -0.93, 280.0, 1043.0)"></image><text xml:space="preserve" font-family="HelveticaNeue-Thin,Helvetica Neue" font-size="55.0" fill="#C2C2C2" transform="matrix(1.00, 0.00, -0.00, -1.00, 1063.5, 210.9)">S</text><text xml:space="preserve" font-family="HelveticaNeue-Thin,Helvetica Neue" font-size="55.0" fill="#C2C2C2" transform="matrix(1.00, 0.00, -0.00, -1.00, 1098.1, 210.9)">e</text><text xml:space="preserve" font-family="HelveticaNeue-Thin,Helvetica Neue" font-size="55.0" fill="#C2C2C2" transform="matrix(1.00, 0.00, -0.00, -1.00, 1126.7, 210.9)">r</text><text xml:space="preserve" font-family="HelveticaNeue-Thin,Helvetica Neue" font-size="55.0" fill="#C2C2C2" transform="matrix(1.00, 0.00, -0.00, -1.00, 1142.0, 210.9)">i</text><text xml:space="preserve" font-family="HelveticaNeue-Thin,Helvetica Neue" font-size="55.0" fill="#C2C2C2" transform="matrix(1.00, 0.00, -0.00, -1.00, 1151.2, 210.9)">a</text><text xml:space="preserve" font-family="HelveticaNeue-Thin,Helvetica Neue" font-size="55.0" fill="#C2C2C2" transform="matrix(1.00, 0.00, -0.00, -1.00, 1178.7, 210.9)">l</text><text xml:space="preserve" font-family="HelveticaNeue-Thin,Helvetica Neue" font-size="55.0" fill="#C2C2C2" transform="matrix(1.00, 0.00, -0.00, -1.00, 1188.0, 210.9)">i</text><text xml:space="preserve" font-family="HelveticaNeue-Thin,Helvetica Neue" font-size="55.0" fill="#C2C2C2" transform="matrix(1.00, 0.00, -0.00, -1.00, 1197.2, 210.9)">z</text><text xml:space="preserve" font-family="HelveticaNeue-Thin,Helvetica Neue" font-size="55.0" fill="#C2C2C2" transform="matrix(1.00, 0.00, -0.00, -1.00, 1220.6, 210.9)">a</text><text xml:space="preserve" font-family="HelveticaNeue-Thin,Helvetica Neue" font-size="55.0" fill="#C2C2C2" transform="matrix(1.00, 0.00, -0.00, -1.00, 1248.1, 210.9)">t</text><text xml:space="preserve" font-family="HelveticaNeue-Thin,Helvetica Neue" font-size="55.0" fill="#C2C2C2" transform="matrix(1.00, 0.00, -0.00, -1.00, 1262.4, 210.9)">i</text><text xml:space="preserve" font-family="HelveticaNeue-Thin,Helvetica Neue" font-size="55.0" fill="#C2C2C2" transform="matrix(1.00, 0.00, -0.00, -1.00, 1271.6, 210.9)">o</text><text xml:space="preserve" font-family="HelveticaNeue-Thin,Helvetica Neue" font-size="55.0" fill="#C2C2C2" transform="matrix(1.00, 0.00, -0.00, -1.00, 1301.2, 210.9)">n</text><text xml:space="preserve" font-family="HelveticaNeue-Thin,Helvetica Neue" font-size="55.0" fill="#C2C2C2" transform="matrix(1.00, 0.00, -0.00, -1.00, 1329.7, 210.9)"> </text><text xml:space="preserve" font-family="HelveticaNeue-Thin,Helvetica Neue" font-size="55.0" fill="#C2C2C2" transform="matrix(1.00, 0.00, -0.00, -1.00, 1345.0, 210.9)">m</text><text xml:space="preserve" font-family="HelveticaNeue-Thin,Helvetica Neue" font-size="55.0" fill="#C2C2C2" transform="matrix(1.00, 0.00, -0.00, -1.00, 1388.8, 210.9)">e</text><text xml:space="preserve" font-family="HelveticaNeue-Thin,Helvetica Neue" font-size="55.0" fill="#C2C2C2" transform="matrix(1.00, 0.00, -0.00, -1.00, 1417.3, 210.9)">t</text><text xml:space="preserve" font-family="HelveticaNeue-Thin,Helvetica Neue" font-size="55.0" fill="#C2C2C2" transform="matrix(1.00, 0.00, -0.00, -1.00, 1431.6, 210.9)">r</text><text xml:space="preserve" font-family="HelveticaNeue-Thin,Helvetica Neue" font-size="55.0" fill="#C2C2C2" transform="matrix(1.00, 0.00, -0.00, -1.00, 1446.8, 210.9)">i</text><text xml:space="preserve" font-family="HelveticaNeue-Thin,Helvetica Neue" font-size="55.0" fill="#C2C2C2" transform="matrix(1.00, 0.00, -0.00, -1.00, 1456.1, 210.9)">c</text><text xml:space="preserve" font-family="HelveticaNeue-Thin,Helvetica Neue" font-size="55.0" fill="#C2C2C2" transform="matrix(1.00, 0.00, -0.00, -1.00, 1484.6, 210.9)">s</text><text xml:space="preserve" font-family="HelveticaNeue-Thin,Helvetica Neue" font-size="55.0" fill="#C2C2C2" transform="matrix(1.00, 0.00, -0.00, -1.00, 1511.1, 210.9)"> </text><text xml:space="preserve" font-family="HelveticaNeue-Thin,Helvetica Neue" font-size="55.0" fill="#C2C2C2" transform="matrix(1.00, 0.00, -0.00, -1.00, 1526.4, 210.9)">i</text><text xml:space="preserve" font-family="HelveticaNeue-Thin,Helvetica Neue" font-size="55.0" fill="#C2C2C2" transform="matrix(1.00, 0.00, -0.00, -1.00, 1535.6, 210.9)">n</text><text xml:space="preserve" font-family="HelveticaNeue-Thin,Helvetica Neue" font-size="55.0" fill="#C2C2C2" transform="matrix(1.00, 0.00, -0.00, -1.00, 1564.2, 210.9)"> </text><text xml:space="preserve" font-family="HelveticaNeue-Thin,Helvetica Neue" font-size="55.0" fill="#C2C2C2" transform="matrix(1.00, 0.00, -0.00, -1.00, 1579.5, 210.9)">a</text><text xml:space="preserve" font-family="HelveticaNeue-Thin,Helvetica Neue" font-size="55.0" fill="#C2C2C2" transform="matrix(1.00, 0.00, -0.00, -1.00, 1607.0, 210.9)">n</text><text xml:space="preserve" font-family="HelveticaNeue-Thin,Helvetica Neue" font-size="55.0" fill="#C2C2C2" transform="matrix(1.00, 0.00, -0.00, -1.00, 1635.5, 210.9)"> </text><text xml:space="preserve" font-family="HelveticaNeue-Thin,Helvetica Neue" font-size="55.0" fill="#C2C2C2" transform="matrix(1.00, 0.00, -0.00, -1.00, 1650.8, 210.9)"> </text><text xml:space="preserve" font-family="HelveticaNeue-Thin,Helvetica Neue" font-size="55.0" fill="#C2C2C2" transform="matrix(1.00, 0.00, -0.00, -1.00, 950.9, 150.4)">I</text><text xml:space="preserve" font-family="HelveticaNeue-Thin,Helvetica Neue" font-size="55.0" fill="#C2C2C2" transform="matrix(1.00, 0.00, -0.00, -1.00, 960.2, 150.4)">n</text><text xml:space="preserve" font-family="HelveticaNeue-Thin,Helvetica Neue" font-size="55.0" fill="#C2C2C2" transform="matrix(1.00, 0.00, -0.00, -1.00, 988.8, 150.4)">t</text><text xml:space="preserve" font-family="HelveticaNeue-Thin,Helvetica Neue" font-size="55.0" fill="#C2C2C2" transform="matrix(1.00, 0.00, -0.00, -1.00, 1002.2, 150.4)">e</text><text xml:space="preserve" font-family="HelveticaNeue-Thin,Helvetica Neue" font-size="55.0" fill="#C2C2C2" transform="matrix(1.00, 0.00, -0.00, -1.00, 1030.8, 150.4)">r</text><text xml:space="preserve" font-family="HelveticaNeue-Thin,Helvetica Neue" font-size="55.0" fill="#C2C2C2" transform="matrix(1.00, 0.00, -0.00, -1.00, 1046.1, 150.4)">n</text><text xml:space="preserve" font-family="HelveticaNeue-Thin,Helvetica Neue" font-size="55.0" fill="#C2C2C2" transform="matrix(1.00, 0.00, -0.00, -1.00, 1074.6, 150.4)">e</text><text xml:space="preserve" font-family="HelveticaNeue-Thin,Helvetica Neue" font-size="55.0" fill="#C2C2C2" transform="matrix(1.00, 0.00, -0.00, -1.00, 1103.2, 150.4)">t</text><text xml:space="preserve" font-family="HelveticaNeue-Thin,Helvetica Neue" font-size="55.0" fill="#C2C2C2" transform="matrix(1.00, 0.00, -0.00, -1.00, 1117.4, 150.4)"> </text><text xml:space="preserve" font-family="HelveticaNeue-Thin,Helvetica Neue" font-size="55.0" fill="#C2C2C2" transform="matrix(1.00, 0.00, -0.00, -1.00, 1132.7, 150.4)">o</text><text xml:space="preserve" font-family="HelveticaNeue-Thin,Helvetica Neue" font-size="55.0" fill="#C2C2C2" transform="matrix(1.00, 0.00, -0.00, -1.00, 1162.2, 150.4)">f</text><text xml:space="preserve" font-family="HelveticaNeue-Thin,Helvetica Neue" font-size="55.0" fill="#C2C2C2" transform="matrix(1.00, 0.00, -0.00, -1.00, 1175.5, 150.4)"> </text><text xml:space="preserve" font-family="HelveticaNeue-Thin,Helvetica Neue" font-size="55.0" fill="#C2C2C2" transform="matrix(1.00, 0.00, -0.00, -1.00, 1190.8, 150.4)">T</text><text xml:space="preserve" font-family="HelveticaNeue-Thin,Helvetica Neue" font-size="55.0" fill="#C2C2C2" transform="matrix(1.00, 0.00, -0.00, -1.00, 1219.3, 150.4)">h</text><text xml:space="preserve" font-family="HelveticaNeue-Thin,Helvetica Neue" font-size="55.0" fill="#C2C2C2" transform="matrix(1.00, 0.00, -0.00, -1.00, 1247.9, 150.4)">i</text><text xml:space="preserve" font-family="HelveticaNeue-Thin,Helvetica Neue" font-size="55.0" fill="#C2C2C2" transform="matrix(1.00, 0.00, -0.00, -1.00, 1257.1, 150.4)">n</text><text xml:space="preserve" font-family="HelveticaNeue-Thin,Helvetica Neue" font-size="55.0" fill="#C2C2C2" transform="matrix(1.00, 0.00, -0.00, -1.00, 1285.6, 150.4)">g</text><text xml:space="preserve" font-family="HelveticaNeue-Thin,Helvetica Neue" font-size="55.0" fill="#C2C2C2" transform="matrix(1.00, 0.00, -0.00, -1.00, 1315.2, 150.4)">s</text><text xml:space="preserve" font-family="HelveticaNeue-Thin,Helvetica Neue" font-size="55.0" fill="#C2C2C2" transform="matrix(1.00, 0.00, -0.00, -1.00, 1341.6, 150.4)"> </text><text xml:space="preserve" font-family="HelveticaNeue-Thin,Helvetica Neue" font-size="55.0" fill="#C2C2C2" transform="matrix(1.00, 0.00, -0.00, -1.00, 1356.9, 150.4)">e</text><text xml:space="preserve" font-family="HelveticaNeue-Thin,Helvetica Neue" font-size="55.0" fill="#C2C2C2" transform="matrix(1.00, 0.00, -0.00, -1.00, 1385.5, 150.4)">n</text><text xml:space="preserve" font-family="HelveticaNeue-Thin,Helvetica Neue" font-size="55.0" fill="#C2C2C2" transform="matrix(1.00, 0.00, -0.00, -1.00, 1414.0, 150.4)">v</text><text xml:space="preserve" font-family="HelveticaNeue-Thin,Helvetica Neue" font-size="55.0" fill="#C2C2C2" transform="matrix(1.00, 0.00, -0.00, -1.00, 1438.4, 150.4)">i</text><text xml:space="preserve" font-family="HelveticaNeue-Thin,Helvetica Neue" font-size="55.0" fill="#C2C2C2" transform="matrix(1.00, 0.00, -0.00, -1.00, 1447.7, 150.4)">r</text><text xml:space="preserve" font-family="HelveticaNeue-Thin,Helvetica Neue" font-size="55.0" fill="#C2C2C2" transform="matrix(1.00, 0.00, -0.00, -1.00, 1462.3, 150.4)">o</text><text xml:space="preserve" font-family="HelveticaNeue-Thin,Helvetica Neue" font-size="55.0" fill="#C2C2C2" transform="matrix(1.00, 0.00, -0.00, -1.00, 1491.8, 150.4)">n</text><text xml:space="preserve" font-family="HelveticaNeue-Thin,Helvetica Neue" font-size="55.0" fill="#C2C2C2" transform="matrix(1.00, 0.00, -0.00, -1.00, 1520.4, 150.4)">m</text><text xml:space="preserve" font-family="HelveticaNeue-Thin,Helvetica Neue" font-size="55.0" fill="#C2C2C2" transform="matrix(1.00, 0.00, -0.00, -1.00, 1564.2, 150.4)">e</text><text xml:space="preserve" font-family="HelveticaNeue-Thin,Helvetica Neue" font-size="55.0" fill="#C2C2C2" transform="matrix(1.00, 0.00, -0.00, -1.00, 1592.7, 150.4)">n</text><text xml:space="preserve" font-family="HelveticaNeue-Thin,Helvetica Neue" font-size="55.0" fill="#C2C2C2" transform="matrix(1.00, 0.00, -0.00, -1.00, 1621.3, 150.4)">t</text><image xlink:href="A700679FF7DCA96116D56BE76C0B73AC.png" width="1920.00" height="1200.00" transform="matrix(0.30, 0.00, -0.00, -0.30, 286.0, 344.0)"></image></g></svg>