<?xml version="1.0" encoding="UTF-8" standalone="no"?><svg xmlns="http://www.w3.org/2000/svg" xmlns:xlink="http://www.w3.org/1999/xlink" clip-rule="evenodd" stroke-miterlimit="10" viewBox="0 0 1920 1080"><desc>SVG generated by Keynote</desc><defs></defs><g transform="matrix(1.00, 0.00, -0.00, -1.00, 0.0, 1080.0)"><g><clipPath id="clip0x7fad411e3f50"><path d="M 0.0 1080.0 L 1920.0 1080.0 L 1920.0 0.0 L 0.0 0.0 Z M 0.0 1080.0 "></path></clipPath><g clip-path="url(#clip0x7fad411e3f50)"><image xlink:href="../../6A4B1499-DFD1-4034-AD5F-2EBA4967C7C1/assets/D36CE392FB50DB87B0725C05E3D219AA.jpeg" width="2048.00" height="1536.00" transform="matrix(0.94, 0.00, -0.00, -0.70, 0.0, 1080.0)"></image></g></g><path d="M 0.1 0.1 L 1378.1 0.1 L 1378.1 1021.1 L 0.1 1021.1 Z M 0.0 0.0 " fill="none" stroke="#83817C" stroke-width="2.00" transform="matrix(1.00, 0.00, 0.00, -1.00, 270.9, 1049.1)"></path><path d="M 177.9 465.9 L 1155.9 465.9 " fill="none" stroke="#B8B8B8" stroke-width="1.00" transform="matrix(1.00, 0.00, 0.00, -1.00, 404.1, 863.4)"></path><path d="M 177.9 349.9 L 1155.9 349.9 " fill="none" stroke="#B8B8B8" stroke-width="1.00" transform="matrix(1.00, 0.00, 0.00, -1.00, 404.1, 863.4)"></path><path d="M 177.9 234.9 L 1155.9 234.9 " fill="none" stroke="#B8B8B8" stroke-width="1.00" transform="matrix(1.00, 0.00, 0.00, -1.00, 404.1, 863.4)"></path><path d="M 177.9 118.9 L 1155.9 118.9 " fill="none" stroke="#B8B8B8" stroke-width="1.00" transform="matrix(1.00, 0.00, 0.00, -1.00, 404.1, 863.4)"></path><g><clipPath id="clip0x7fad411ed9b0"><path d="M 404.1 281.8 L 404.1 744.3 L 458.8 744.3 L 458.8 281.8 Z M 404.1 281.8 "></path></clipPath><g clip-path="url(#clip0x7fad411ed9b0)"><text xml:space="preserve" font-family="HelveticaNeue,Helvetica Neue" font-size="32.0" fill="#808080" transform="matrix(0.00, 1.00, 1.00, -0.00, 434.4, 288.7)">R</text><text xml:space="preserve" font-family="HelveticaNeue,Helvetica Neue" font-size="32.0" fill="#808080" transform="matrix(0.00, 1.00, 1.00, -0.00, 434.4, 310.6)">e</text><text xml:space="preserve" font-family="HelveticaNeue,Helvetica Neue" font-size="32.0" fill="#808080" transform="matrix(0.00, 1.00, 1.00, -0.00, 434.4, 327.8)">c</text><text xml:space="preserve" font-family="HelveticaNeue,Helvetica Neue" font-size="32.0" fill="#808080" transform="matrix(0.00, 1.00, 1.00, -0.00, 434.4, 345.0)">o</text><text xml:space="preserve" font-family="HelveticaNeue,Helvetica Neue" font-size="32.0" fill="#808080" transform="matrix(0.00, 1.00, 1.00, -0.00, 434.4, 363.3)">r</text><text xml:space="preserve" font-family="HelveticaNeue,Helvetica Neue" font-size="32.0" fill="#808080" transform="matrix(0.00, 1.00, 1.00, -0.00, 434.4, 373.4)">d</text><text xml:space="preserve" font-family="HelveticaNeue,Helvetica Neue" font-size="32.0" fill="#808080" transform="matrix(0.00, 1.00, 1.00, -0.00, 434.4, 392.4)">s</text><text xml:space="preserve" font-family="HelveticaNeue,Helvetica Neue" font-size="32.0" fill="#808080" transform="matrix(0.00, 1.00, 1.00, -0.00, 434.4, 408.4)"> </text><text xml:space="preserve" font-family="HelveticaNeue,Helvetica Neue" font-size="32.0" fill="#808080" transform="matrix(0.00, 1.00, 1.00, -0.00, 434.4, 417.3)">p</text><text xml:space="preserve" font-family="HelveticaNeue,Helvetica Neue" font-size="32.0" fill="#808080" transform="matrix(0.00, 1.00, 1.00, -0.00, 434.4, 436.3)">r</text><text xml:space="preserve" font-family="HelveticaNeue,Helvetica Neue" font-size="32.0" fill="#808080" transform="matrix(0.00, 1.00, 1.00, -0.00, 434.4, 446.4)">o</text><text xml:space="preserve" font-family="HelveticaNeue,Helvetica Neue" font-size="32.0" fill="#808080" transform="matrix(0.00, 1.00, 1.00, -0.00, 434.4, 464.7)">c</text><text xml:space="preserve" font-family="HelveticaNeue,Helvetica Neue" font-size="32.0" fill="#808080" transform="matrix(0.00, 1.00, 1.00, -0.00, 434.4, 481.9)">e</text><text xml:space="preserve" font-family="HelveticaNeue,Helvetica Neue" font-size="32.0" fill="#808080" transform="matrix(0.00, 1.00, 1.00, -0.00, 434.4, 499.1)">s</text><text xml:space="preserve" font-family="HelveticaNeue,Helvetica Neue" font-size="32.0" fill="#808080" transform="matrix(0.00, 1.00, 1.00, -0.00, 434.4, 515.1)">s</text><text xml:space="preserve" font-family="HelveticaNeue,Helvetica Neue" font-size="32.0" fill="#808080" transform="matrix(0.00, 1.00, 1.00, -0.00, 434.4, 531.1)">e</text><text xml:space="preserve" font-family="HelveticaNeue,Helvetica Neue" font-size="32.0" fill="#808080" transform="matrix(0.00, 1.00, 1.00, -0.00, 434.4, 548.3)">d</text><text xml:space="preserve" font-family="HelveticaNeue,Helvetica Neue" font-size="32.0" fill="#808080" transform="matrix(0.00, 1.00, 1.00, -0.00, 434.4, 567.3)"> </text><text xml:space="preserve" font-family="HelveticaNeue,Helvetica Neue" font-size="32.0" fill="#808080" transform="matrix(0.00, 1.00, 1.00, -0.00, 434.4, 576.1)">p</text><text xml:space="preserve" font-family="HelveticaNeue,Helvetica Neue" font-size="32.0" fill="#808080" transform="matrix(0.00, 1.00, 1.00, -0.00, 434.4, 595.1)">e</text><text xml:space="preserve" font-family="HelveticaNeue,Helvetica Neue" font-size="32.0" fill="#808080" transform="matrix(0.00, 1.00, 1.00, -0.00, 434.4, 612.3)">r</text><text xml:space="preserve" font-family="HelveticaNeue,Helvetica Neue" font-size="32.0" fill="#808080" transform="matrix(0.00, 1.00, 1.00, -0.00, 434.4, 623.0)"> </text><text xml:space="preserve" font-family="HelveticaNeue,Helvetica Neue" font-size="32.0" fill="#808080" transform="matrix(0.00, 1.00, 1.00, -0.00, 434.4, 631.9)">s</text><text xml:space="preserve" font-family="HelveticaNeue,Helvetica Neue" font-size="32.0" fill="#808080" transform="matrix(0.00, 1.00, 1.00, -0.00, 434.4, 647.9)">e</text><text xml:space="preserve" font-family="HelveticaNeue,Helvetica Neue" font-size="32.0" fill="#808080" transform="matrix(0.00, 1.00, 1.00, -0.00, 434.4, 665.0)">c</text><text xml:space="preserve" font-family="HelveticaNeue,Helvetica Neue" font-size="32.0" fill="#808080" transform="matrix(0.00, 1.00, 1.00, -0.00, 434.4, 682.2)">o</text><text xml:space="preserve" font-family="HelveticaNeue,Helvetica Neue" font-size="32.0" fill="#808080" transform="matrix(0.00, 1.00, 1.00, -0.00, 434.4, 700.6)">n</text><text xml:space="preserve" font-family="HelveticaNeue,Helvetica Neue" font-size="32.0" fill="#808080" transform="matrix(0.00, 1.00, 1.00, -0.00, 434.4, 718.4)">d</text></g></g><g><clipPath id="clip0x7fad411f84c0"><path d="M 541.2 263.2 L 560.9 263.2 L 560.9 300.3 L 541.2 300.3 Z M 541.2 263.2 "></path></clipPath><g clip-path="url(#clip0x7fad411f84c0)"><text xml:space="preserve" font-family="HelveticaNeue,Helvetica Neue" font-size="30.0" fill="#808080" transform="matrix(1.00, 0.00, -0.00, -1.00, 542.7, 270.6)">0</text></g></g><g><clipPath id="clip0x7fad411f97a0"><path d="M 474.5 378.8 L 560.9 378.8 L 560.9 416.0 L 474.5 416.0 Z M 474.5 378.8 "></path></clipPath><g clip-path="url(#clip0x7fad411f97a0)"><text xml:space="preserve" font-family="HelveticaNeue,Helvetica Neue" font-size="30.0" fill="#808080" transform="matrix(1.00, 0.00, -0.00, -1.00, 476.0, 386.2)">3</text><text xml:space="preserve" font-family="HelveticaNeue,Helvetica Neue" font-size="30.0" fill="#808080" transform="matrix(1.00, 0.00, -0.00, -1.00, 492.7, 386.2)">2</text><text xml:space="preserve" font-family="HelveticaNeue,Helvetica Neue" font-size="30.0" fill="#808080" transform="matrix(1.00, 0.00, -0.00, -1.00, 509.3, 386.2)">5</text><text xml:space="preserve" font-family="HelveticaNeue,Helvetica Neue" font-size="30.0" fill="#808080" transform="matrix(1.00, 0.00, -0.00, -1.00, 526.0, 386.2)">0</text><text xml:space="preserve" font-family="HelveticaNeue,Helvetica Neue" font-size="30.0" fill="#808080" transform="matrix(1.00, 0.00, -0.00, -1.00, 542.7, 386.2)">0</text></g></g><g><clipPath id="clip0x7fad41200250"><path d="M 474.5 494.4 L 560.9 494.4 L 560.9 531.6 L 474.5 531.6 Z M 474.5 494.4 "></path></clipPath><g clip-path="url(#clip0x7fad41200250)"><text xml:space="preserve" font-family="HelveticaNeue,Helvetica Neue" font-size="30.0" fill="#808080" transform="matrix(1.00, 0.00, -0.00, -1.00, 476.0, 501.8)">6</text><text xml:space="preserve" font-family="HelveticaNeue,Helvetica Neue" font-size="30.0" fill="#808080" transform="matrix(1.00, 0.00, -0.00, -1.00, 492.7, 501.8)">5</text><text xml:space="preserve" font-family="HelveticaNeue,Helvetica Neue" font-size="30.0" fill="#808080" transform="matrix(1.00, 0.00, -0.00, -1.00, 509.3, 501.8)">0</text><text xml:space="preserve" font-family="HelveticaNeue,Helvetica Neue" font-size="30.0" fill="#808080" transform="matrix(1.00, 0.00, -0.00, -1.00, 526.0, 501.8)">0</text><text xml:space="preserve" font-family="HelveticaNeue,Helvetica Neue" font-size="30.0" fill="#808080" transform="matrix(1.00, 0.00, -0.00, -1.00, 542.7, 501.8)">0</text></g></g><g><clipPath id="clip0x7fad41202db0"><path d="M 474.5 610.1 L 560.9 610.1 L 560.9 647.2 L 474.5 647.2 Z M 474.5 610.1 "></path></clipPath><g clip-path="url(#clip0x7fad41202db0)"><text xml:space="preserve" font-family="HelveticaNeue,Helvetica Neue" font-size="30.0" fill="#808080" transform="matrix(1.00, 0.00, -0.00, -1.00, 476.0, 617.5)">9</text><text xml:space="preserve" font-family="HelveticaNeue,Helvetica Neue" font-size="30.0" fill="#808080" transform="matrix(1.00, 0.00, -0.00, -1.00, 492.7, 617.5)">7</text><text xml:space="preserve" font-family="HelveticaNeue,Helvetica Neue" font-size="30.0" fill="#808080" transform="matrix(1.00, 0.00, -0.00, -1.00, 509.3, 617.5)">5</text><text xml:space="preserve" font-family="HelveticaNeue,Helvetica Neue" font-size="30.0" fill="#808080" transform="matrix(1.00, 0.00, -0.00, -1.00, 526.0, 617.5)">0</text><text xml:space="preserve" font-family="HelveticaNeue,Helvetica Neue" font-size="30.0" fill="#808080" transform="matrix(1.00, 0.00, -0.00, -1.00, 542.7, 617.5)">0</text></g></g><g><clipPath id="clip0x7fad41205970"><path d="M 457.8 725.7 L 560.9 725.7 L 560.9 762.9 L 457.8 762.9 Z M 457.8 725.7 "></path></clipPath><g clip-path="url(#clip0x7fad41205970)"><text xml:space="preserve" font-family="HelveticaNeue,Helvetica Neue" font-size="30.0" fill="#808080" transform="matrix(1.00, 0.00, -0.00, -1.00, 459.3, 733.1)">1</text><text xml:space="preserve" font-family="HelveticaNeue,Helvetica Neue" font-size="30.0" fill="#808080" transform="matrix(1.00, 0.00, -0.00, -1.00, 476.0, 733.1)">3</text><text xml:space="preserve" font-family="HelveticaNeue,Helvetica Neue" font-size="30.0" fill="#808080" transform="matrix(1.00, 0.00, -0.00, -1.00, 492.7, 733.1)">0</text><text xml:space="preserve" font-family="HelveticaNeue,Helvetica Neue" font-size="30.0" fill="#808080" transform="matrix(1.00, 0.00, -0.00, -1.00, 509.3, 733.1)">0</text><text xml:space="preserve" font-family="HelveticaNeue,Helvetica Neue" font-size="30.0" fill="#808080" transform="matrix(1.00, 0.00, -0.00, -1.00, 526.0, 733.1)">0</text><text xml:space="preserve" font-family="HelveticaNeue,Helvetica Neue" font-size="30.0" fill="#808080" transform="matrix(1.00, 0.00, -0.00, -1.00, 542.7, 733.1)">0</text></g></g><path d="M 178.4 581.9 L 1155.4 581.9 " fill="none" stroke="#000000" stroke-width="1.00" stroke-linecap="square" transform="matrix(1.00, 0.00, 0.00, -1.00, 404.1, 863.4)"></path><g><clipPath id="clip0x7fad412093e0"><path d="M 582.4 70.6 L 1559.5 70.6 L 1559.5 130.2 L 582.4 130.2 Z M 582.4 70.6 "></path></clipPath><g clip-path="url(#clip0x7fad412093e0)"><text xml:space="preserve" font-family="HelveticaNeue,Helvetica Neue" font-size="36.0" fill="#808080" transform="matrix(1.00, 0.00, -0.00, -1.00, 862.0, 78.3)">M</text><text xml:space="preserve" font-family="HelveticaNeue,Helvetica Neue" font-size="36.0" fill="#808080" transform="matrix(1.00, 0.00, -0.00, -1.00, 893.3, 78.3)">i</text><text xml:space="preserve" font-family="HelveticaNeue,Helvetica Neue" font-size="36.0" fill="#808080" transform="matrix(1.00, 0.00, -0.00, -1.00, 901.3, 78.3)">c</text><text xml:space="preserve" font-family="HelveticaNeue,Helvetica Neue" font-size="36.0" fill="#808080" transform="matrix(1.00, 0.00, -0.00, -1.00, 920.7, 78.3)">r</text><text xml:space="preserve" font-family="HelveticaNeue,Helvetica Neue" font-size="36.0" fill="#808080" transform="matrix(1.00, 0.00, -0.00, -1.00, 932.0, 78.3)">o</text><text xml:space="preserve" font-family="HelveticaNeue,Helvetica Neue" font-size="36.0" fill="#808080" transform="matrix(1.00, 0.00, -0.00, -1.00, 952.7, 78.3)">-</text><text xml:space="preserve" font-family="HelveticaNeue,Helvetica Neue" font-size="36.0" fill="#808080" transform="matrix(1.00, 0.00, -0.00, -1.00, 966.7, 78.3)">B</text><text xml:space="preserve" font-family="HelveticaNeue,Helvetica Neue" font-size="36.0" fill="#808080" transform="matrix(1.00, 0.00, -0.00, -1.00, 991.3, 78.3)">a</text><text xml:space="preserve" font-family="HelveticaNeue,Helvetica Neue" font-size="36.0" fill="#808080" transform="matrix(1.00, 0.00, -0.00, -1.00, 1010.7, 78.3)">t</text><text xml:space="preserve" font-family="HelveticaNeue,Helvetica Neue" font-size="36.0" fill="#808080" transform="matrix(1.00, 0.00, -0.00, -1.00, 1022.0, 78.3)">c</text><text xml:space="preserve" font-family="HelveticaNeue,Helvetica Neue" font-size="36.0" fill="#808080" transform="matrix(1.00, 0.00, -0.00, -1.00, 1041.3, 78.3)">h</text><text xml:space="preserve" font-family="HelveticaNeue,Helvetica Neue" font-size="36.0" fill="#808080" transform="matrix(1.00, 0.00, -0.00, -1.00, 1061.3, 78.3)"> </text><text xml:space="preserve" font-family="HelveticaNeue,Helvetica Neue" font-size="36.0" fill="#808080" transform="matrix(1.00, 0.00, -0.00, -1.00, 1071.3, 78.3)">W</text><text xml:space="preserve" font-family="HelveticaNeue,Helvetica Neue" font-size="36.0" fill="#808080" transform="matrix(1.00, 0.00, -0.00, -1.00, 1104.7, 78.3)">i</text><text xml:space="preserve" font-family="HelveticaNeue,Helvetica Neue" font-size="36.0" fill="#808080" transform="matrix(1.00, 0.00, -0.00, -1.00, 1112.7, 78.3)">n</text><text xml:space="preserve" font-family="HelveticaNeue,Helvetica Neue" font-size="36.0" fill="#808080" transform="matrix(1.00, 0.00, -0.00, -1.00, 1132.7, 78.3)">d</text><text xml:space="preserve" font-family="HelveticaNeue,Helvetica Neue" font-size="36.0" fill="#808080" transform="matrix(1.00, 0.00, -0.00, -1.00, 1154.0, 78.3)">o</text><text xml:space="preserve" font-family="HelveticaNeue,Helvetica Neue" font-size="36.0" fill="#808080" transform="matrix(1.00, 0.00, -0.00, -1.00, 1174.7, 78.3)">w</text><text xml:space="preserve" font-family="HelveticaNeue,Helvetica Neue" font-size="36.0" fill="#808080" transform="matrix(1.00, 0.00, -0.00, -1.00, 1202.0, 78.3)"> </text><text xml:space="preserve" font-family="HelveticaNeue,Helvetica Neue" font-size="36.0" fill="#808080" transform="matrix(1.00, 0.00, -0.00, -1.00, 1212.0, 78.3)">S</text><text xml:space="preserve" font-family="HelveticaNeue,Helvetica Neue" font-size="36.0" fill="#808080" transform="matrix(1.00, 0.00, -0.00, -1.00, 1235.3, 78.3)">i</text><text xml:space="preserve" font-family="HelveticaNeue,Helvetica Neue" font-size="36.0" fill="#808080" transform="matrix(1.00, 0.00, -0.00, -1.00, 1243.3, 78.3)">z</text><text xml:space="preserve" font-family="HelveticaNeue,Helvetica Neue" font-size="36.0" fill="#808080" transform="matrix(1.00, 0.00, -0.00, -1.00, 1260.6, 78.3)">e</text></g></g><g><clipPath id="clip0x7fad41212ce0"><path d="M 641.2 166.8 L 741.5 267.2 L 767.8 240.9 L 667.5 140.6 Z M 641.2 166.8 "></path></clipPath><g clip-path="url(#clip0x7fad41212ce0)"><text xml:space="preserve" font-family="HelveticaNeue,Helvetica Neue" font-size="30.0" fill="#808080" transform="matrix(0.71, 0.71, 0.71, -0.71, 663.3, 146.8)">2</text><text xml:space="preserve" font-family="HelveticaNeue,Helvetica Neue" font-size="30.0" fill="#808080" transform="matrix(0.71, 0.71, 0.71, -0.71, 675.1, 158.6)"> </text><text xml:space="preserve" font-family="HelveticaNeue,Helvetica Neue" font-size="30.0" fill="#808080" transform="matrix(0.71, 0.71, 0.71, -0.71, 681.0, 164.5)">s</text><text xml:space="preserve" font-family="HelveticaNeue,Helvetica Neue" font-size="30.0" fill="#808080" transform="matrix(0.71, 0.71, 0.71, -0.71, 691.6, 175.1)">e</text><text xml:space="preserve" font-family="HelveticaNeue,Helvetica Neue" font-size="30.0" fill="#808080" transform="matrix(0.71, 0.71, 0.71, -0.71, 703.0, 186.5)">c</text><text xml:space="preserve" font-family="HelveticaNeue,Helvetica Neue" font-size="30.0" fill="#808080" transform="matrix(0.71, 0.71, 0.71, -0.71, 714.4, 197.9)">o</text><text xml:space="preserve" font-family="HelveticaNeue,Helvetica Neue" font-size="30.0" fill="#808080" transform="matrix(0.71, 0.71, 0.71, -0.71, 726.6, 210.1)">n</text><text xml:space="preserve" font-family="HelveticaNeue,Helvetica Neue" font-size="30.0" fill="#808080" transform="matrix(0.71, 0.71, 0.71, -0.71, 738.4, 221.9)">d</text><text xml:space="preserve" font-family="HelveticaNeue,Helvetica Neue" font-size="30.0" fill="#808080" transform="matrix(0.71, 0.71, 0.71, -0.71, 750.9, 234.5)">s</text></g></g><g><clipPath id="clip0x7fad41217080"><path d="M 885.5 166.8 L 985.8 267.2 L 1012.1 240.9 L 911.8 140.6 Z M 885.5 166.8 "></path></clipPath><g clip-path="url(#clip0x7fad41217080)"><text xml:space="preserve" font-family="HelveticaNeue,Helvetica Neue" font-size="30.0" fill="#808080" transform="matrix(0.71, 0.71, 0.71, -0.71, 907.6, 146.8)">5</text><text xml:space="preserve" font-family="HelveticaNeue,Helvetica Neue" font-size="30.0" fill="#808080" transform="matrix(0.71, 0.71, 0.71, -0.71, 919.4, 158.6)"> </text><text xml:space="preserve" font-family="HelveticaNeue,Helvetica Neue" font-size="30.0" fill="#808080" transform="matrix(0.71, 0.71, 0.71, -0.71, 925.3, 164.5)">s</text><text xml:space="preserve" font-family="HelveticaNeue,Helvetica Neue" font-size="30.0" fill="#808080" transform="matrix(0.71, 0.71, 0.71, -0.71, 935.9, 175.1)">e</text><text xml:space="preserve" font-family="HelveticaNeue,Helvetica Neue" font-size="30.0" fill="#808080" transform="matrix(0.71, 0.71, 0.71, -0.71, 947.3, 186.5)">c</text><text xml:space="preserve" font-family="HelveticaNeue,Helvetica Neue" font-size="30.0" fill="#808080" transform="matrix(0.71, 0.71, 0.71, -0.71, 958.7, 197.9)">o</text><text xml:space="preserve" font-family="HelveticaNeue,Helvetica Neue" font-size="30.0" fill="#808080" transform="matrix(0.71, 0.71, 0.71, -0.71, 970.9, 210.1)">n</text><text xml:space="preserve" font-family="HelveticaNeue,Helvetica Neue" font-size="30.0" fill="#808080" transform="matrix(0.71, 0.71, 0.71, -0.71, 982.6, 221.9)">d</text><text xml:space="preserve" font-family="HelveticaNeue,Helvetica Neue" font-size="30.0" fill="#808080" transform="matrix(0.71, 0.71, 0.71, -0.71, 995.2, 234.5)">s</text></g></g><g><clipPath id="clip0x7fad4121b400"><path d="M 1123.9 155.0 L 1236.0 267.2 L 1262.3 240.9 L 1150.2 128.8 Z M 1123.9 155.0 "></path></clipPath><g clip-path="url(#clip0x7fad4121b400)"><text xml:space="preserve" font-family="HelveticaNeue,Helvetica Neue" font-size="30.0" fill="#808080" transform="matrix(0.71, 0.71, 0.71, -0.71, 1146.0, 135.1)">1</text><text xml:space="preserve" font-family="HelveticaNeue,Helvetica Neue" font-size="30.0" fill="#808080" transform="matrix(0.71, 0.71, 0.71, -0.71, 1157.8, 146.8)">0</text><text xml:space="preserve" font-family="HelveticaNeue,Helvetica Neue" font-size="30.0" fill="#808080" transform="matrix(0.71, 0.71, 0.71, -0.71, 1169.6, 158.6)"> </text><text xml:space="preserve" font-family="HelveticaNeue,Helvetica Neue" font-size="30.0" fill="#808080" transform="matrix(0.71, 0.71, 0.71, -0.71, 1175.5, 164.5)">s</text><text xml:space="preserve" font-family="HelveticaNeue,Helvetica Neue" font-size="30.0" fill="#808080" transform="matrix(0.71, 0.71, 0.71, -0.71, 1186.1, 175.1)">e</text><text xml:space="preserve" font-family="HelveticaNeue,Helvetica Neue" font-size="30.0" fill="#808080" transform="matrix(0.71, 0.71, 0.71, -0.71, 1197.5, 186.5)">c</text><text xml:space="preserve" font-family="HelveticaNeue,Helvetica Neue" font-size="30.0" fill="#808080" transform="matrix(0.71, 0.71, 0.71, -0.71, 1208.9, 197.9)">o</text><text xml:space="preserve" font-family="HelveticaNeue,Helvetica Neue" font-size="30.0" fill="#808080" transform="matrix(0.71, 0.71, 0.71, -0.71, 1221.0, 210.1)">n</text><text xml:space="preserve" font-family="HelveticaNeue,Helvetica Neue" font-size="30.0" fill="#808080" transform="matrix(0.71, 0.71, 0.71, -0.71, 1232.8, 221.9)">d</text><text xml:space="preserve" font-family="HelveticaNeue,Helvetica Neue" font-size="30.0" fill="#808080" transform="matrix(0.71, 0.71, 0.71, -0.71, 1245.4, 234.5)">s</text></g></g><g><clipPath id="clip0x7fad4121fe20"><path d="M 1368.2 155.0 L 1480.3 267.2 L 1506.6 240.9 L 1394.5 128.8 Z M 1368.2 155.0 "></path></clipPath><g clip-path="url(#clip0x7fad4121fe20)"><text xml:space="preserve" font-family="HelveticaNeue,Helvetica Neue" font-size="30.0" fill="#808080" transform="matrix(0.71, 0.71, 0.71, -0.71, 1390.3, 135.1)">1</text><text xml:space="preserve" font-family="HelveticaNeue,Helvetica Neue" font-size="30.0" fill="#808080" transform="matrix(0.71, 0.71, 0.71, -0.71, 1402.1, 146.8)">5</text><text xml:space="preserve" font-family="HelveticaNeue,Helvetica Neue" font-size="30.0" fill="#808080" transform="matrix(0.71, 0.71, 0.71, -0.71, 1413.9, 158.6)"> </text><text xml:space="preserve" font-family="HelveticaNeue,Helvetica Neue" font-size="30.0" fill="#808080" transform="matrix(0.71, 0.71, 0.71, -0.71, 1419.8, 164.5)">s</text><text xml:space="preserve" font-family="HelveticaNeue,Helvetica Neue" font-size="30.0" fill="#808080" transform="matrix(0.71, 0.71, 0.71, -0.71, 1430.4, 175.1)">e</text><text xml:space="preserve" font-family="HelveticaNeue,Helvetica Neue" font-size="30.0" fill="#808080" transform="matrix(0.71, 0.71, 0.71, -0.71, 1441.8, 186.5)">c</text><text xml:space="preserve" font-family="HelveticaNeue,Helvetica Neue" font-size="30.0" fill="#808080" transform="matrix(0.71, 0.71, 0.71, -0.71, 1453.2, 197.9)">o</text><text xml:space="preserve" font-family="HelveticaNeue,Helvetica Neue" font-size="30.0" fill="#808080" transform="matrix(0.71, 0.71, 0.71, -0.71, 1465.3, 210.1)">n</text><text xml:space="preserve" font-family="HelveticaNeue,Helvetica Neue" font-size="30.0" fill="#808080" transform="matrix(0.71, 0.71, 0.71, -0.71, 1477.1, 221.9)">d</text><text xml:space="preserve" font-family="HelveticaNeue,Helvetica Neue" font-size="30.0" fill="#808080" transform="matrix(0.71, 0.71, 0.71, -0.71, 1489.7, 234.5)">s</text></g></g><g><clipPath id="clip0x7fad412247b0"><path d="M 582.4 281.8 L 1559.5 281.8 L 1559.5 744.3 L 582.4 744.3 Z M 582.4 281.8 "></path></clipPath><g clip-path="url(#clip0x7fad412247b0)"><path d="M 740.0 607.0 L 791.0 607.0 L 791.0 282.0 L 740.0 282.0 Z M 740.0 607.0 " fill="#A4A4A4"></path></g></g><g><clipPath id="clip0x7fad41225530"><path d="M 582.4 281.8 L 1559.5 281.8 L 1559.5 744.3 L 582.4 744.3 Z M 582.4 281.8 "></path></clipPath><g clip-path="url(#clip0x7fad41225530)"><path d="M 984.0 714.0 L 1035.0 714.0 L 1035.0 282.0 L 984.0 282.0 Z M 984.0 714.0 " fill="#A4A4A4"></path></g></g><g><clipPath id="clip0x7fad412262d0"><path d="M 582.4 281.8 L 1559.5 281.8 L 1559.5 744.3 L 582.4 744.3 Z M 582.4 281.8 "></path></clipPath><g clip-path="url(#clip0x7fad412262d0)"><path d="M 1229.0 712.0 L 1280.0 712.0 L 1280.0 282.0 L 1229.0 282.0 Z M 1229.0 712.0 " fill="#A4A4A4"></path></g></g><g><clipPath id="clip0x7fad41227070"><path d="M 582.4 281.8 L 1559.5 281.8 L 1559.5 744.3 L 582.4 744.3 Z M 582.4 281.8 "></path></clipPath><g clip-path="url(#clip0x7fad41227070)"><path d="M 1473.0 696.0 L 1524.0 696.0 L 1524.0 282.0 L 1473.0 282.0 Z M 1473.0 696.0 " fill="#A4A4A4"></path></g></g><g><clipPath id="clip0x7fad41227e10"><path d="M 582.4 281.8 L 1559.5 281.8 L 1559.5 744.3 L 582.4 744.3 Z M 582.4 281.8 "></path></clipPath><g clip-path="url(#clip0x7fad41227e10)"><path d="M 679.0 642.0 L 730.0 642.0 L 730.0 282.0 L 679.0 282.0 Z M 679.0 642.0 " fill="#980605"></path></g></g><g><clipPath id="clip0x7fad41228c20"><path d="M 582.4 281.8 L 1559.5 281.8 L 1559.5 744.3 L 582.4 744.3 Z M 582.4 281.8 "></path></clipPath><g clip-path="url(#clip0x7fad41228c20)"><path d="M 923.0 718.0 L 974.0 718.0 L 974.0 282.0 L 923.0 282.0 Z M 923.0 718.0 " fill="#980605"></path></g></g><g><clipPath id="clip0x7fad412299c0"><path d="M 582.4 281.8 L 1559.5 281.8 L 1559.5 744.3 L 582.4 744.3 Z M 582.4 281.8 "></path></clipPath><g clip-path="url(#clip0x7fad412299c0)"><path d="M 1168.0 714.0 L 1219.0 714.0 L 1219.0 282.0 L 1168.0 282.0 Z M 1168.0 714.0 " fill="#980605"></path></g></g><g><clipPath id="clip0x7fad4122a760"><path d="M 582.4 281.8 L 1559.5 281.8 L 1559.5 744.3 L 582.4 744.3 Z M 582.4 281.8 "></path></clipPath><g clip-path="url(#clip0x7fad4122a760)"><path d="M 1412.0 687.0 L 1463.0 687.0 L 1463.0 282.0 L 1412.0 282.0 Z M 1412.0 687.0 " fill="#980605"></path></g></g><g><clipPath id="clip0x7fad4122b500"><path d="M 582.4 281.8 L 1559.5 281.8 L 1559.5 744.3 L 582.4 744.3 Z M 582.4 281.8 "></path></clipPath><g clip-path="url(#clip0x7fad4122b500)"><path d="M 618.0 376.0 L 669.0 376.0 L 669.0 282.0 L 618.0 282.0 Z M 618.0 376.0 " fill="#6C7472"></path></g></g><g><clipPath id="clip0x7fad4122c310"><path d="M 582.4 281.8 L 1559.5 281.8 L 1559.5 744.3 L 582.4 744.3 Z M 582.4 281.8 "></path></clipPath><g clip-path="url(#clip0x7fad4122c310)"><path d="M 862.0 386.0 L 913.0 386.0 L 913.0 282.0 L 862.0 282.0 Z M 862.0 386.0 " fill="#6C7472"></path></g></g><g><clipPath id="clip0x7fad4122d0b0"><path d="M 582.4 281.8 L 1559.5 281.8 L 1559.5 744.3 L 582.4 744.3 Z M 582.4 281.8 "></path></clipPath><g clip-path="url(#clip0x7fad4122d0b0)"><path d="M 1107.0 407.0 L 1157.0 407.0 L 1157.0 282.0 L 1107.0 282.0 Z M 1107.0 407.0 " fill="#6C7472"></path></g></g><g><clipPath id="clip0x7fad4122de50"><path d="M 582.4 281.8 L 1559.5 281.8 L 1559.5 744.3 L 582.4 744.3 Z M 582.4 281.8 "></path></clipPath><g clip-path="url(#clip0x7fad4122de50)"><path d="M 1351.0 390.0 L 1402.0 390.0 L 1402.0 282.0 L 1351.0 282.0 Z M 1351.0 390.0 " fill="#6C7472"></path></g></g><path d="M 646.0 860.0 L 675.0 860.0 L 675.0 832.0 L 646.0 832.0 Z M 646.0 860.0 " fill="#6C7472"></path><text xml:space="preserve" font-family="HelveticaNeue,Helvetica Neue" font-size="30.0" fill="#808080" transform="matrix(1.00, 0.00, -0.00, -1.00, 692.3, 834.7)">J</text><text xml:space="preserve" font-family="HelveticaNeue,Helvetica Neue" font-size="30.0" fill="#808080" transform="matrix(1.00, 0.00, -0.00, -1.00, 707.9, 834.7)">S</text><text xml:space="preserve" font-family="HelveticaNeue,Helvetica Neue" font-size="30.0" fill="#808080" transform="matrix(1.00, 0.00, -0.00, -1.00, 727.3, 834.7)">O</text><text xml:space="preserve" font-family="HelveticaNeue,Helvetica Neue" font-size="30.0" fill="#808080" transform="matrix(1.00, 0.00, -0.00, -1.00, 750.1, 834.7)">N</text><path d="M 905.0 860.0 L 933.0 860.0 L 933.0 832.0 L 905.0 832.0 Z M 905.0 860.0 " fill="#980605"></path><text xml:space="preserve" font-family="HelveticaNeue,Helvetica Neue" font-size="30.0" fill="#808080" transform="matrix(1.00, 0.00, -0.00, -1.00, 950.7, 834.7)">A</text><text xml:space="preserve" font-family="HelveticaNeue,Helvetica Neue" font-size="30.0" fill="#808080" transform="matrix(1.00, 0.00, -0.00, -1.00, 968.8, 834.7)">V</text><text xml:space="preserve" font-family="HelveticaNeue,Helvetica Neue" font-size="30.0" fill="#808080" transform="matrix(1.00, 0.00, -0.00, -1.00, 987.1, 834.7)">R</text><text xml:space="preserve" font-family="HelveticaNeue,Helvetica Neue" font-size="30.0" fill="#808080" transform="matrix(1.00, 0.00, -0.00, -1.00, 1007.7, 834.7)">O</text><path d="M 1163.0 860.0 L 1192.0 860.0 L 1192.0 832.0 L 1163.0 832.0 Z M 1163.0 860.0 " fill="#A4A4A4"></path><text xml:space="preserve" font-family="HelveticaNeue,Helvetica Neue" font-size="30.0" fill="#808080" transform="matrix(1.00, 0.00, -0.00, -1.00, 1209.4, 834.7)">P</text><text xml:space="preserve" font-family="HelveticaNeue,Helvetica Neue" font-size="30.0" fill="#808080" transform="matrix(1.00, 0.00, -0.00, -1.00, 1228.9, 834.7)">R</text><text xml:space="preserve" font-family="HelveticaNeue,Helvetica Neue" font-size="30.0" fill="#808080" transform="matrix(1.00, 0.00, -0.00, -1.00, 1249.4, 834.7)">O</text><text xml:space="preserve" font-family="HelveticaNeue,Helvetica Neue" font-size="30.0" fill="#808080" transform="matrix(1.00, 0.00, -0.00, -1.00, 1272.2, 834.7)">T</text><text xml:space="preserve" font-family="HelveticaNeue,Helvetica Neue" font-size="30.0" fill="#808080" transform="matrix(1.00, 0.00, -0.00, -1.00, 1289.4, 834.7)">O</text><text xml:space="preserve" font-family="HelveticaNeue,Helvetica Neue" font-size="30.0" fill="#808080" transform="matrix(1.00, 0.00, -0.00, -1.00, 1312.2, 834.7)">B</text><text xml:space="preserve" font-family="HelveticaNeue,Helvetica Neue" font-size="30.0" fill="#808080" transform="matrix(1.00, 0.00, -0.00, -1.00, 1332.8, 834.7)">U</text><text xml:space="preserve" font-family="HelveticaNeue,Helvetica Neue" font-size="30.0" fill="#808080" transform="matrix(1.00, 0.00, -0.00, -1.00, 1354.5, 834.7)">F</text><text xml:space="preserve" font-family="HelveticaNeue-CondensedBold,Helvetica Neue" font-weight="bold" font-size="58.0" fill="#DDDDDD" transform="matrix(1.00, 0.00, -0.00, -1.00, 382.6, 958.2)">C</text><text xml:space="preserve" font-family="HelveticaNeue-CondensedBold,Helvetica Neue" font-weight="bold" font-size="58.0" fill="#DDDDDD" transform="matrix(1.00, 0.00, -0.00, -1.00, 413.7, 958.2)">O</text><text xml:space="preserve" font-family="HelveticaNeue-CondensedBold,Helvetica Neue" font-weight="bold" font-size="58.0" fill="#DDDDDD" transform="matrix(1.00, 0.00, -0.00, -1.00, 445.9, 958.2)">M</text><text xml:space="preserve" font-family="HelveticaNeue-CondensedBold,Helvetica Neue" font-weight="bold" font-size="58.0" fill="#DDDDDD" transform="matrix(1.00, 0.00, -0.00, -1.00, 488.9, 958.2)">P</text><text xml:space="preserve" font-family="HelveticaNeue-CondensedBold,Helvetica Neue" font-weight="bold" font-size="58.0" fill="#DDDDDD" transform="matrix(1.00, 0.00, -0.00, -1.00, 516.8, 958.2)">A</text><text xml:space="preserve" font-family="HelveticaNeue-CondensedBold,Helvetica Neue" font-weight="bold" font-size="58.0" fill="#DDDDDD" transform="matrix(1.00, 0.00, -0.00, -1.00, 549.1, 958.2)">R</text><text xml:space="preserve" font-family="HelveticaNeue-CondensedBold,Helvetica Neue" font-weight="bold" font-size="58.0" fill="#DDDDDD" transform="matrix(1.00, 0.00, -0.00, -1.00, 581.3, 958.2)">I</text><text xml:space="preserve" font-family="HelveticaNeue-CondensedBold,Helvetica Neue" font-weight="bold" font-size="58.0" fill="#DDDDDD" transform="matrix(1.00, 0.00, -0.00, -1.00, 596.3, 958.2)">S</text><text xml:space="preserve" font-family="HelveticaNeue-CondensedBold,Helvetica Neue" font-weight="bold" font-size="58.0" fill="#DDDDDD" transform="matrix(1.00, 0.00, -0.00, -1.00, 626.4, 958.2)">O</text><text xml:space="preserve" font-family="HelveticaNeue-CondensedBold,Helvetica Neue" font-weight="bold" font-size="58.0" fill="#DDDDDD" transform="matrix(1.00, 0.00, -0.00, -1.00, 658.6, 958.2)">N</text><text xml:space="preserve" font-family="HelveticaNeue-CondensedBold,Helvetica Neue" font-weight="bold" font-size="58.0" fill="#DDDDDD" transform="matrix(1.00, 0.00, -0.00, -1.00, 691.9, 958.2)"> </text><text xml:space="preserve" font-family="HelveticaNeue-CondensedBold,Helvetica Neue" font-weight="bold" font-size="58.0" fill="#DDDDDD" transform="matrix(1.00, 0.00, -0.00, -1.00, 705.8, 958.2)">O</text><text xml:space="preserve" font-family="HelveticaNeue-CondensedBold,Helvetica Neue" font-weight="bold" font-size="58.0" fill="#DDDDDD" transform="matrix(1.00, 0.00, -0.00, -1.00, 738.1, 958.2)">F</text><text xml:space="preserve" font-family="HelveticaNeue-CondensedBold,Helvetica Neue" font-weight="bold" font-size="58.0" fill="#DDDDDD" transform="matrix(1.00, 0.00, -0.00, -1.00, 764.9, 958.2)"> </text><text xml:space="preserve" font-family="HelveticaNeue-CondensedBold,Helvetica Neue" font-weight="bold" font-size="58.0" fill="#DDDDDD" transform="matrix(1.00, 0.00, -0.00, -1.00, 778.9, 958.2)">S</text><text xml:space="preserve" font-family="HelveticaNeue-CondensedBold,Helvetica Neue" font-weight="bold" font-size="58.0" fill="#DDDDDD" transform="matrix(1.00, 0.00, -0.00, -1.00, 809.0, 958.2)">E</text><text xml:space="preserve" font-family="HelveticaNeue-CondensedBold,Helvetica Neue" font-weight="bold" font-size="58.0" fill="#DDDDDD" transform="matrix(1.00, 0.00, -0.00, -1.00, 836.9, 958.2)">R</text><text xml:space="preserve" font-family="HelveticaNeue-CondensedBold,Helvetica Neue" font-weight="bold" font-size="58.0" fill="#DDDDDD" transform="matrix(1.00, 0.00, -0.00, -1.00, 869.1, 958.2)">I</text><text xml:space="preserve" font-family="HelveticaNeue-CondensedBold,Helvetica Neue" font-weight="bold" font-size="58.0" fill="#DDDDDD" transform="matrix(1.00, 0.00, -0.00, -1.00, 884.1, 958.2)">A</text><text xml:space="preserve" font-family="HelveticaNeue-CondensedBold,Helvetica Neue" font-weight="bold" font-size="58.0" fill="#DDDDDD" transform="matrix(1.00, 0.00, -0.00, -1.00, 916.3, 958.2)">L</text><text xml:space="preserve" font-family="HelveticaNeue-CondensedBold,Helvetica Neue" font-weight="bold" font-size="58.0" fill="#DDDDDD" transform="matrix(1.00, 0.00, -0.00, -1.00, 943.2, 958.2)">I</text><text xml:space="preserve" font-family="HelveticaNeue-CondensedBold,Helvetica Neue" font-weight="bold" font-size="58.0" fill="#DDDDDD" transform="matrix(1.00, 0.00, -0.00, -1.00, 958.1, 958.2)">Z</text><text xml:space="preserve" font-family="HelveticaNeue-CondensedBold,Helvetica Neue" font-weight="bold" font-size="58.0" fill="#DDDDDD" transform="matrix(1.00, 0.00, -0.00, -1.00, 986.0, 958.2)">A</text><text xml:space="preserve" font-family="HelveticaNeue-CondensedBold,Helvetica Neue" font-weight="bold" font-size="58.0" fill="#DDDDDD" transform="matrix(1.00, 0.00, -0.00, -1.00, 1015.1, 958.2)">T</text><text xml:space="preserve" font-family="HelveticaNeue-CondensedBold,Helvetica Neue" font-weight="bold" font-size="58.0" fill="#DDDDDD" transform="matrix(1.00, 0.00, -0.00, -1.00, 1042.9, 958.2)">I</text><text xml:space="preserve" font-family="HelveticaNeue-CondensedBold,Helvetica Neue" font-weight="bold" font-size="58.0" fill="#DDDDDD" transform="matrix(1.00, 0.00, -0.00, -1.00, 1057.9, 958.2)">O</text><text xml:space="preserve" font-family="HelveticaNeue-CondensedBold,Helvetica Neue" font-weight="bold" font-size="58.0" fill="#DDDDDD" transform="matrix(1.00, 0.00, -0.00, -1.00, 1090.2, 958.2)">N</text><text xml:space="preserve" font-family="HelveticaNeue-CondensedBold,Helvetica Neue" font-weight="bold" font-size="58.0" fill="#DDDDDD" transform="matrix(1.00, 0.00, -0.00, -1.00, 1123.4, 958.2)"> </text><text xml:space="preserve" font-family="HelveticaNeue-CondensedBold,Helvetica Neue" font-weight="bold" font-size="58.0" fill="#DDDDDD" transform="matrix(1.00, 0.00, -0.00, -1.00, 1135.2, 958.2)">A</text><text xml:space="preserve" font-family="HelveticaNeue-CondensedBold,Helvetica Neue" font-weight="bold" font-size="58.0" fill="#DDDDDD" transform="matrix(1.00, 0.00, -0.00, -1.00, 1167.5, 958.2)">N</text><text xml:space="preserve" font-family="HelveticaNeue-CondensedBold,Helvetica Neue" font-weight="bold" font-size="58.0" fill="#DDDDDD" transform="matrix(1.00, 0.00, -0.00, -1.00, 1200.8, 958.2)">D</text><text xml:space="preserve" font-family="HelveticaNeue-CondensedBold,Helvetica Neue" font-weight="bold" font-size="58.0" fill="#DDDDDD" transform="matrix(1.00, 0.00, -0.00, -1.00, 1234.0, 958.2)"> </text><text xml:space="preserve" font-family="HelveticaNeue-CondensedBold,Helvetica Neue" font-weight="bold" font-size="58.0" fill="#DDDDDD" transform="matrix(1.00, 0.00, -0.00, -1.00, 1248.0, 958.2)">B</text><text xml:space="preserve" font-family="HelveticaNeue-CondensedBold,Helvetica Neue" font-weight="bold" font-size="58.0" fill="#DDDDDD" transform="matrix(1.00, 0.00, -0.00, -1.00, 1280.2, 958.2)">A</text><text xml:space="preserve" font-family="HelveticaNeue-CondensedBold,Helvetica Neue" font-weight="bold" font-size="58.0" fill="#DDDDDD" transform="matrix(1.00, 0.00, -0.00, -1.00, 1309.3, 958.2)">T</text><text xml:space="preserve" font-family="HelveticaNeue-CondensedBold,Helvetica Neue" font-weight="bold" font-size="58.0" fill="#DDDDDD" transform="matrix(1.00, 0.00, -0.00, -1.00, 1337.1, 958.2)">C</text><text xml:space="preserve" font-family="HelveticaNeue-CondensedBold,Helvetica Neue" font-weight="bold" font-size="58.0" fill="#DDDDDD" transform="matrix(1.00, 0.00, -0.00, -1.00, 1368.3, 958.2)">H</text><text xml:space="preserve" font-family="HelveticaNeue-CondensedBold,Helvetica Neue" font-weight="bold" font-size="58.0" fill="#DDDDDD" transform="matrix(1.00, 0.00, -0.00, -1.00, 1400.5, 958.2)"> </text><text xml:space="preserve" font-family="HelveticaNeue-CondensedBold,Helvetica Neue" font-weight="bold" font-size="58.0" fill="#DDDDDD" transform="matrix(1.00, 0.00, -0.00, -1.00, 1414.4, 958.2)">S</text><text xml:space="preserve" font-family="HelveticaNeue-CondensedBold,Helvetica Neue" font-weight="bold" font-size="58.0" fill="#DDDDDD" transform="matrix(1.00, 0.00, -0.00, -1.00, 1444.5, 958.2)">I</text><text xml:space="preserve" font-family="HelveticaNeue-CondensedBold,Helvetica Neue" font-weight="bold" font-size="58.0" fill="#DDDDDD" transform="matrix(1.00, 0.00, -0.00, -1.00, 1459.5, 958.2)">Z</text><text xml:space="preserve" font-family="HelveticaNeue-CondensedBold,Helvetica Neue" font-weight="bold" font-size="58.0" fill="#DDDDDD" transform="matrix(1.00, 0.00, -0.00, -1.00, 1487.4, 958.2)">E</text><text xml:space="preserve" font-family="HelveticaNeue-CondensedBold,Helvetica Neue" font-weight="bold" font-size="54.0" fill="#DDDDDD" transform="matrix(1.00, 0.00, -0.00, -1.00, 382.6, 905.0)">3</text><text xml:space="preserve" font-family="HelveticaNeue-CondensedBold,Helvetica Neue" font-weight="bold" font-size="54.0" fill="#DDDDDD" transform="matrix(1.00, 0.00, -0.00, -1.00, 408.5, 905.0)"> </text><text xml:space="preserve" font-family="HelveticaNeue-CondensedBold,Helvetica Neue" font-weight="bold" font-size="54.0" fill="#DDDDDD" transform="matrix(1.00, 0.00, -0.00, -1.00, 421.4, 905.0)">i</text><text xml:space="preserve" font-family="HelveticaNeue-CondensedBold,Helvetica Neue" font-weight="bold" font-size="54.0" fill="#DDDDDD" transform="matrix(1.00, 0.00, -0.00, -1.00, 434.4, 905.0)">n</text><text xml:space="preserve" font-family="HelveticaNeue-CondensedBold,Helvetica Neue" font-weight="bold" font-size="54.0" fill="#DDDDDD" transform="matrix(1.00, 0.00, -0.00, -1.00, 461.4, 905.0)">s</text><text xml:space="preserve" font-family="HelveticaNeue-CondensedBold,Helvetica Neue" font-weight="bold" font-size="54.0" fill="#DDDDDD" transform="matrix(1.00, 0.00, -0.00, -1.00, 485.4, 905.0)">t</text><text xml:space="preserve" font-family="HelveticaNeue-CondensedBold,Helvetica Neue" font-weight="bold" font-size="54.0" fill="#DDDDDD" transform="matrix(1.00, 0.00, -0.00, -1.00, 501.4, 905.0)">a</text><text xml:space="preserve" font-family="HelveticaNeue-CondensedBold,Helvetica Neue" font-weight="bold" font-size="54.0" fill="#DDDDDD" transform="matrix(1.00, 0.00, -0.00, -1.00, 527.3, 905.0)">n</text><text xml:space="preserve" font-family="HelveticaNeue-CondensedBold,Helvetica Neue" font-weight="bold" font-size="54.0" fill="#DDDDDD" transform="matrix(1.00, 0.00, -0.00, -1.00, 554.3, 905.0)">c</text><text xml:space="preserve" font-family="HelveticaNeue-CondensedBold,Helvetica Neue" font-weight="bold" font-size="54.0" fill="#DDDDDD" transform="matrix(1.00, 0.00, -0.00, -1.00, 579.3, 905.0)">e</text><text xml:space="preserve" font-family="HelveticaNeue-CondensedBold,Helvetica Neue" font-weight="bold" font-size="54.0" fill="#DDDDDD" transform="matrix(1.00, 0.00, -0.00, -1.00, 604.3, 905.0)">s</text><text xml:space="preserve" font-family="HelveticaNeue-CondensedBold,Helvetica Neue" font-weight="bold" font-size="54.0" fill="#DDDDDD" transform="matrix(1.00, 0.00, -0.00, -1.00, 628.3, 905.0)">,</text><text xml:space="preserve" font-family="HelveticaNeue-CondensedBold,Helvetica Neue" font-weight="bold" font-size="54.0" fill="#DDDDDD" transform="matrix(1.00, 0.00, -0.00, -1.00, 639.3, 905.0)"> </text><text xml:space="preserve" font-family="HelveticaNeue-CondensedBold,Helvetica Neue" font-weight="bold" font-size="54.0" fill="#DDDDDD" transform="matrix(1.00, 0.00, -0.00, -1.00, 652.2, 905.0)">3</text><text xml:space="preserve" font-family="HelveticaNeue-CondensedBold,Helvetica Neue" font-weight="bold" font-size="54.0" fill="#DDDDDD" transform="matrix(1.00, 0.00, -0.00, -1.00, 678.1, 905.0)"> </text><text xml:space="preserve" font-family="HelveticaNeue-CondensedBold,Helvetica Neue" font-weight="bold" font-size="54.0" fill="#DDDDDD" transform="matrix(1.00, 0.00, -0.00, -1.00, 691.1, 905.0)">J</text><text xml:space="preserve" font-family="HelveticaNeue-CondensedBold,Helvetica Neue" font-weight="bold" font-size="54.0" fill="#DDDDDD" transform="matrix(1.00, 0.00, -0.00, -1.00, 716.1, 905.0)">V</text><text xml:space="preserve" font-family="HelveticaNeue-CondensedBold,Helvetica Neue" font-weight="bold" font-size="54.0" fill="#DDDDDD" transform="matrix(1.00, 0.00, -0.00, -1.00, 744.1, 905.0)">M</text><text xml:space="preserve" font-family="HelveticaNeue-CondensedBold,Helvetica Neue" font-weight="bold" font-size="54.0" fill="#DDDDDD" transform="matrix(1.00, 0.00, -0.00, -1.00, 784.1, 905.0)">s</text><text xml:space="preserve" font-family="HelveticaNeue-CondensedBold,Helvetica Neue" font-weight="bold" font-size="54.0" fill="#DDDDDD" transform="matrix(1.00, 0.00, -0.00, -1.00, 808.1, 905.0)"> </text><text xml:space="preserve" font-family="HelveticaNeue-CondensedBold,Helvetica Neue" font-weight="bold" font-size="54.0" fill="#DDDDDD" transform="matrix(1.00, 0.00, -0.00, -1.00, 821.0, 905.0)">p</text><text xml:space="preserve" font-family="HelveticaNeue-CondensedBold,Helvetica Neue" font-weight="bold" font-size="54.0" fill="#DDDDDD" transform="matrix(1.00, 0.00, -0.00, -1.00, 848.0, 905.0)">e</text><text xml:space="preserve" font-family="HelveticaNeue-CondensedBold,Helvetica Neue" font-weight="bold" font-size="54.0" fill="#DDDDDD" transform="matrix(1.00, 0.00, -0.00, -1.00, 873.0, 905.0)">r</text><text xml:space="preserve" font-family="HelveticaNeue-CondensedBold,Helvetica Neue" font-weight="bold" font-size="54.0" fill="#DDDDDD" transform="matrix(1.00, 0.00, -0.00, -1.00, 891.0, 905.0)"> </text><text xml:space="preserve" font-family="HelveticaNeue-CondensedBold,Helvetica Neue" font-weight="bold" font-size="54.0" fill="#DDDDDD" transform="matrix(1.00, 0.00, -0.00, -1.00, 904.0, 905.0)">i</text><text xml:space="preserve" font-family="HelveticaNeue-CondensedBold,Helvetica Neue" font-weight="bold" font-size="54.0" fill="#DDDDDD" transform="matrix(1.00, 0.00, -0.00, -1.00, 916.9, 905.0)">n</text><text xml:space="preserve" font-family="HelveticaNeue-CondensedBold,Helvetica Neue" font-weight="bold" font-size="54.0" fill="#DDDDDD" transform="matrix(1.00, 0.00, -0.00, -1.00, 943.9, 905.0)">s</text><text xml:space="preserve" font-family="HelveticaNeue-CondensedBold,Helvetica Neue" font-weight="bold" font-size="54.0" fill="#DDDDDD" transform="matrix(1.00, 0.00, -0.00, -1.00, 967.9, 905.0)">t</text><text xml:space="preserve" font-family="HelveticaNeue-CondensedBold,Helvetica Neue" font-weight="bold" font-size="54.0" fill="#DDDDDD" transform="matrix(1.00, 0.00, -0.00, -1.00, 983.9, 905.0)">a</text><text xml:space="preserve" font-family="HelveticaNeue-CondensedBold,Helvetica Neue" font-weight="bold" font-size="54.0" fill="#DDDDDD" transform="matrix(1.00, 0.00, -0.00, -1.00, 1009.9, 905.0)">n</text><text xml:space="preserve" font-family="HelveticaNeue-CondensedBold,Helvetica Neue" font-weight="bold" font-size="54.0" fill="#DDDDDD" transform="matrix(1.00, 0.00, -0.00, -1.00, 1036.9, 905.0)">c</text><text xml:space="preserve" font-family="HelveticaNeue-CondensedBold,Helvetica Neue" font-weight="bold" font-size="54.0" fill="#DDDDDD" transform="matrix(1.00, 0.00, -0.00, -1.00, 1061.9, 905.0)">e</text></g></svg>