<?xml version="1.0" encoding="UTF-8" standalone="no"?><svg xmlns="http://www.w3.org/2000/svg" xmlns:xlink="http://www.w3.org/1999/xlink" clip-rule="evenodd" stroke-miterlimit="10" viewBox="0 0 1920 1080"><desc>SVG generated by Keynote</desc><defs></defs><g transform="matrix(1.00, 0.00, -0.00, -1.00, 0.0, 1080.0)"><g><clipPath id="clip0x7fad41a33c10"><path d="M 0.0 1080.0 L 1920.0 1080.0 L 1920.0 0.0 L 0.0 0.0 Z M 0.0 1080.0 "></path></clipPath><g clip-path="url(#clip0x7fad41a33c10)"><image xlink:href="../../6A4B1499-DFD1-4034-AD5F-2EBA4967C7C1/assets/D36CE392FB50DB87B0725C05E3D219AA.jpeg" width="2048.00" height="1536.00" transform="matrix(0.94, 0.00, -0.00, -0.70, 0.0, 1080.0)"></image></g></g><path d="M 0.1 0.1 L 1378.1 0.1 L 1378.1 1021.1 L 0.1 1021.1 Z M 0.0 0.0 " fill="none" stroke="#83817C" stroke-width="2.00" transform="matrix(1.00, 0.00, 0.00, -1.00, 270.9, 1049.1)"></path><path d="M 159.6 465.9 L 1123.6 465.9 " fill="none" stroke="#B8B8B8" stroke-width="1.00" transform="matrix(1.00, 0.00, 0.00, -1.00, 436.4, 863.4)"></path><path d="M 159.6 349.9 L 1123.6 349.9 " fill="none" stroke="#B8B8B8" stroke-width="1.00" transform="matrix(1.00, 0.00, 0.00, -1.00, 436.4, 863.4)"></path><path d="M 159.6 234.9 L 1123.6 234.9 " fill="none" stroke="#B8B8B8" stroke-width="1.00" transform="matrix(1.00, 0.00, 0.00, -1.00, 436.4, 863.4)"></path><path d="M 159.6 118.9 L 1123.6 118.9 " fill="none" stroke="#B8B8B8" stroke-width="1.00" transform="matrix(1.00, 0.00, 0.00, -1.00, 436.4, 863.4)"></path><g><clipPath id="clip0x7fad41b83360"><path d="M 436.4 281.8 L 436.4 744.3 L 489.1 744.3 L 489.1 281.8 Z M 436.4 281.8 "></path></clipPath><g clip-path="url(#clip0x7fad41b83360)"><text xml:space="preserve" font-family="HelveticaNeue,Helvetica Neue" font-size="30.0" fill="#808080" transform="matrix(0.00, 1.00, 1.00, -0.00, 465.2, 302.7)">R</text><text xml:space="preserve" font-family="HelveticaNeue,Helvetica Neue" font-size="30.0" fill="#808080" transform="matrix(0.00, 1.00, 1.00, -0.00, 465.2, 323.3)">e</text><text xml:space="preserve" font-family="HelveticaNeue,Helvetica Neue" font-size="30.0" fill="#808080" transform="matrix(0.00, 1.00, 1.00, -0.00, 465.2, 339.4)">c</text><text xml:space="preserve" font-family="HelveticaNeue,Helvetica Neue" font-size="30.0" fill="#808080" transform="matrix(0.00, 1.00, 1.00, -0.00, 465.2, 355.5)">o</text><text xml:space="preserve" font-family="HelveticaNeue,Helvetica Neue" font-size="30.0" fill="#808080" transform="matrix(0.00, 1.00, 1.00, -0.00, 465.2, 372.7)">r</text><text xml:space="preserve" font-family="HelveticaNeue,Helvetica Neue" font-size="30.0" fill="#808080" transform="matrix(0.00, 1.00, 1.00, -0.00, 465.2, 382.2)">d</text><text xml:space="preserve" font-family="HelveticaNeue,Helvetica Neue" font-size="30.0" fill="#808080" transform="matrix(0.00, 1.00, 1.00, -0.00, 465.2, 399.9)">s</text><text xml:space="preserve" font-family="HelveticaNeue,Helvetica Neue" font-size="30.0" fill="#808080" transform="matrix(0.00, 1.00, 1.00, -0.00, 465.2, 414.9)"> </text><text xml:space="preserve" font-family="HelveticaNeue,Helvetica Neue" font-size="30.0" fill="#808080" transform="matrix(0.00, 1.00, 1.00, -0.00, 465.2, 423.3)">p</text><text xml:space="preserve" font-family="HelveticaNeue,Helvetica Neue" font-size="30.0" fill="#808080" transform="matrix(0.00, 1.00, 1.00, -0.00, 465.2, 441.1)">r</text><text xml:space="preserve" font-family="HelveticaNeue,Helvetica Neue" font-size="30.0" fill="#808080" transform="matrix(0.00, 1.00, 1.00, -0.00, 465.2, 450.5)">o</text><text xml:space="preserve" font-family="HelveticaNeue,Helvetica Neue" font-size="30.0" fill="#808080" transform="matrix(0.00, 1.00, 1.00, -0.00, 465.2, 467.7)">c</text><text xml:space="preserve" font-family="HelveticaNeue,Helvetica Neue" font-size="30.0" fill="#808080" transform="matrix(0.00, 1.00, 1.00, -0.00, 465.2, 483.9)">e</text><text xml:space="preserve" font-family="HelveticaNeue,Helvetica Neue" font-size="30.0" fill="#808080" transform="matrix(0.00, 1.00, 1.00, -0.00, 465.2, 500.0)">s</text><text xml:space="preserve" font-family="HelveticaNeue,Helvetica Neue" font-size="30.0" fill="#808080" transform="matrix(0.00, 1.00, 1.00, -0.00, 465.2, 515.0)">s</text><text xml:space="preserve" font-family="HelveticaNeue,Helvetica Neue" font-size="30.0" fill="#808080" transform="matrix(0.00, 1.00, 1.00, -0.00, 465.2, 530.0)">e</text><text xml:space="preserve" font-family="HelveticaNeue,Helvetica Neue" font-size="30.0" fill="#808080" transform="matrix(0.00, 1.00, 1.00, -0.00, 465.2, 546.1)">d</text><text xml:space="preserve" font-family="HelveticaNeue,Helvetica Neue" font-size="30.0" fill="#808080" transform="matrix(0.00, 1.00, 1.00, -0.00, 465.2, 563.9)"> </text><text xml:space="preserve" font-family="HelveticaNeue,Helvetica Neue" font-size="30.0" fill="#808080" transform="matrix(0.00, 1.00, 1.00, -0.00, 465.2, 572.2)">p</text><text xml:space="preserve" font-family="HelveticaNeue,Helvetica Neue" font-size="30.0" fill="#808080" transform="matrix(0.00, 1.00, 1.00, -0.00, 465.2, 590.0)">e</text><text xml:space="preserve" font-family="HelveticaNeue,Helvetica Neue" font-size="30.0" fill="#808080" transform="matrix(0.00, 1.00, 1.00, -0.00, 465.2, 606.1)">r</text><text xml:space="preserve" font-family="HelveticaNeue,Helvetica Neue" font-size="30.0" fill="#808080" transform="matrix(0.00, 1.00, 1.00, -0.00, 465.2, 616.1)"> </text><text xml:space="preserve" font-family="HelveticaNeue,Helvetica Neue" font-size="30.0" fill="#808080" transform="matrix(0.00, 1.00, 1.00, -0.00, 465.2, 624.4)">s</text><text xml:space="preserve" font-family="HelveticaNeue,Helvetica Neue" font-size="30.0" fill="#808080" transform="matrix(0.00, 1.00, 1.00, -0.00, 465.2, 639.4)">e</text><text xml:space="preserve" font-family="HelveticaNeue,Helvetica Neue" font-size="30.0" fill="#808080" transform="matrix(0.00, 1.00, 1.00, -0.00, 465.2, 655.5)">c</text><text xml:space="preserve" font-family="HelveticaNeue,Helvetica Neue" font-size="30.0" fill="#808080" transform="matrix(0.00, 1.00, 1.00, -0.00, 465.2, 671.7)">o</text><text xml:space="preserve" font-family="HelveticaNeue,Helvetica Neue" font-size="30.0" fill="#808080" transform="matrix(0.00, 1.00, 1.00, -0.00, 465.2, 688.9)">n</text><text xml:space="preserve" font-family="HelveticaNeue,Helvetica Neue" font-size="30.0" fill="#808080" transform="matrix(0.00, 1.00, 1.00, -0.00, 465.2, 705.6)">d</text></g></g><g><clipPath id="clip0x7fad41ae1b70"><path d="M 554.8 263.2 L 574.5 263.2 L 574.5 300.3 L 554.8 300.3 Z M 554.8 263.2 "></path></clipPath><g clip-path="url(#clip0x7fad41ae1b70)"><text xml:space="preserve" font-family="HelveticaNeue,Helvetica Neue" font-size="30.0" fill="#808080" transform="matrix(1.00, 0.00, -0.00, -1.00, 556.3, 270.6)">0</text></g></g><g><clipPath id="clip0x7fad41ae2e10"><path d="M 504.8 378.8 L 574.5 378.8 L 574.5 416.0 L 504.8 416.0 Z M 504.8 378.8 "></path></clipPath><g clip-path="url(#clip0x7fad41ae2e10)"><text xml:space="preserve" font-family="HelveticaNeue,Helvetica Neue" font-size="30.0" fill="#808080" transform="matrix(1.00, 0.00, -0.00, -1.00, 506.3, 386.2)">9</text><text xml:space="preserve" font-family="HelveticaNeue,Helvetica Neue" font-size="30.0" fill="#808080" transform="matrix(1.00, 0.00, -0.00, -1.00, 523.0, 386.2)">0</text><text xml:space="preserve" font-family="HelveticaNeue,Helvetica Neue" font-size="30.0" fill="#808080" transform="matrix(1.00, 0.00, -0.00, -1.00, 539.7, 386.2)">0</text><text xml:space="preserve" font-family="HelveticaNeue,Helvetica Neue" font-size="30.0" fill="#808080" transform="matrix(1.00, 0.00, -0.00, -1.00, 556.3, 386.2)">0</text></g></g><g><clipPath id="clip0x7fad41ad9b70"><path d="M 488.1 494.4 L 574.5 494.4 L 574.5 531.6 L 488.1 531.6 Z M 488.1 494.4 "></path></clipPath><g clip-path="url(#clip0x7fad41ad9b70)"><text xml:space="preserve" font-family="HelveticaNeue,Helvetica Neue" font-size="30.0" fill="#808080" transform="matrix(1.00, 0.00, -0.00, -1.00, 489.6, 501.8)">1</text><text xml:space="preserve" font-family="HelveticaNeue,Helvetica Neue" font-size="30.0" fill="#808080" transform="matrix(1.00, 0.00, -0.00, -1.00, 506.3, 501.8)">8</text><text xml:space="preserve" font-family="HelveticaNeue,Helvetica Neue" font-size="30.0" fill="#808080" transform="matrix(1.00, 0.00, -0.00, -1.00, 523.0, 501.8)">0</text><text xml:space="preserve" font-family="HelveticaNeue,Helvetica Neue" font-size="30.0" fill="#808080" transform="matrix(1.00, 0.00, -0.00, -1.00, 539.7, 501.8)">0</text><text xml:space="preserve" font-family="HelveticaNeue,Helvetica Neue" font-size="30.0" fill="#808080" transform="matrix(1.00, 0.00, -0.00, -1.00, 556.3, 501.8)">0</text></g></g><g><clipPath id="clip0x7fad41adc660"><path d="M 488.1 610.1 L 574.5 610.1 L 574.5 647.2 L 488.1 647.2 Z M 488.1 610.1 "></path></clipPath><g clip-path="url(#clip0x7fad41adc660)"><text xml:space="preserve" font-family="HelveticaNeue,Helvetica Neue" font-size="30.0" fill="#808080" transform="matrix(1.00, 0.00, -0.00, -1.00, 489.6, 617.5)">2</text><text xml:space="preserve" font-family="HelveticaNeue,Helvetica Neue" font-size="30.0" fill="#808080" transform="matrix(1.00, 0.00, -0.00, -1.00, 506.3, 617.5)">7</text><text xml:space="preserve" font-family="HelveticaNeue,Helvetica Neue" font-size="30.0" fill="#808080" transform="matrix(1.00, 0.00, -0.00, -1.00, 523.0, 617.5)">0</text><text xml:space="preserve" font-family="HelveticaNeue,Helvetica Neue" font-size="30.0" fill="#808080" transform="matrix(1.00, 0.00, -0.00, -1.00, 539.7, 617.5)">0</text><text xml:space="preserve" font-family="HelveticaNeue,Helvetica Neue" font-size="30.0" fill="#808080" transform="matrix(1.00, 0.00, -0.00, -1.00, 556.3, 617.5)">0</text></g></g><g><clipPath id="clip0x7fad41ad67d0"><path d="M 488.1 725.7 L 574.5 725.7 L 574.5 762.9 L 488.1 762.9 Z M 488.1 725.7 "></path></clipPath><g clip-path="url(#clip0x7fad41ad67d0)"><text xml:space="preserve" font-family="HelveticaNeue,Helvetica Neue" font-size="30.0" fill="#808080" transform="matrix(1.00, 0.00, -0.00, -1.00, 489.6, 733.1)">3</text><text xml:space="preserve" font-family="HelveticaNeue,Helvetica Neue" font-size="30.0" fill="#808080" transform="matrix(1.00, 0.00, -0.00, -1.00, 506.3, 733.1)">6</text><text xml:space="preserve" font-family="HelveticaNeue,Helvetica Neue" font-size="30.0" fill="#808080" transform="matrix(1.00, 0.00, -0.00, -1.00, 523.0, 733.1)">0</text><text xml:space="preserve" font-family="HelveticaNeue,Helvetica Neue" font-size="30.0" fill="#808080" transform="matrix(1.00, 0.00, -0.00, -1.00, 539.7, 733.1)">0</text><text xml:space="preserve" font-family="HelveticaNeue,Helvetica Neue" font-size="30.0" fill="#808080" transform="matrix(1.00, 0.00, -0.00, -1.00, 556.3, 733.1)">0</text></g></g><path d="M 160.1 581.9 L 1123.1 581.9 " fill="none" stroke="#000000" stroke-width="1.00" stroke-linecap="square" transform="matrix(1.00, 0.00, 0.00, -1.00, 436.4, 863.4)"></path><g><clipPath id="clip0x7fad41ad5550"><path d="M 596.0 77.4 L 1559.9 77.4 L 1559.9 130.2 L 596.0 130.2 Z M 596.0 77.4 "></path></clipPath><g clip-path="url(#clip0x7fad41ad5550)"><text xml:space="preserve" font-family="HelveticaNeue,Helvetica Neue" font-size="30.0" fill="#808080" transform="matrix(1.00, 0.00, -0.00, -1.00, 903.8, 83.8)">M</text><text xml:space="preserve" font-family="HelveticaNeue,Helvetica Neue" font-size="30.0" fill="#808080" transform="matrix(1.00, 0.00, -0.00, -1.00, 929.9, 83.8)">i</text><text xml:space="preserve" font-family="HelveticaNeue,Helvetica Neue" font-size="30.0" fill="#808080" transform="matrix(1.00, 0.00, -0.00, -1.00, 936.6, 83.8)">c</text><text xml:space="preserve" font-family="HelveticaNeue,Helvetica Neue" font-size="30.0" fill="#808080" transform="matrix(1.00, 0.00, -0.00, -1.00, 952.7, 83.8)">r</text><text xml:space="preserve" font-family="HelveticaNeue,Helvetica Neue" font-size="30.0" fill="#808080" transform="matrix(1.00, 0.00, -0.00, -1.00, 962.1, 83.8)">o</text><text xml:space="preserve" font-family="HelveticaNeue,Helvetica Neue" font-size="30.0" fill="#808080" transform="matrix(1.00, 0.00, -0.00, -1.00, 979.4, 83.8)">-</text><text xml:space="preserve" font-family="HelveticaNeue,Helvetica Neue" font-size="30.0" fill="#808080" transform="matrix(1.00, 0.00, -0.00, -1.00, 991.0, 83.8)">B</text><text xml:space="preserve" font-family="HelveticaNeue,Helvetica Neue" font-size="30.0" fill="#808080" transform="matrix(1.00, 0.00, -0.00, -1.00, 1011.6, 83.8)">a</text><text xml:space="preserve" font-family="HelveticaNeue,Helvetica Neue" font-size="30.0" fill="#808080" transform="matrix(1.00, 0.00, -0.00, -1.00, 1027.7, 83.8)">t</text><text xml:space="preserve" font-family="HelveticaNeue,Helvetica Neue" font-size="30.0" fill="#808080" transform="matrix(1.00, 0.00, -0.00, -1.00, 1037.1, 83.8)">c</text><text xml:space="preserve" font-family="HelveticaNeue,Helvetica Neue" font-size="30.0" fill="#808080" transform="matrix(1.00, 0.00, -0.00, -1.00, 1053.3, 83.8)">h</text><text xml:space="preserve" font-family="HelveticaNeue,Helvetica Neue" font-size="30.0" fill="#808080" transform="matrix(1.00, 0.00, -0.00, -1.00, 1069.9, 83.8)"> </text><text xml:space="preserve" font-family="HelveticaNeue,Helvetica Neue" font-size="30.0" fill="#808080" transform="matrix(1.00, 0.00, -0.00, -1.00, 1078.3, 83.8)">W</text><text xml:space="preserve" font-family="HelveticaNeue,Helvetica Neue" font-size="30.0" fill="#808080" transform="matrix(1.00, 0.00, -0.00, -1.00, 1106.1, 83.8)">i</text><text xml:space="preserve" font-family="HelveticaNeue,Helvetica Neue" font-size="30.0" fill="#808080" transform="matrix(1.00, 0.00, -0.00, -1.00, 1112.7, 83.8)">n</text><text xml:space="preserve" font-family="HelveticaNeue,Helvetica Neue" font-size="30.0" fill="#808080" transform="matrix(1.00, 0.00, -0.00, -1.00, 1129.4, 83.8)">d</text><text xml:space="preserve" font-family="HelveticaNeue,Helvetica Neue" font-size="30.0" fill="#808080" transform="matrix(1.00, 0.00, -0.00, -1.00, 1147.2, 83.8)">o</text><text xml:space="preserve" font-family="HelveticaNeue,Helvetica Neue" font-size="30.0" fill="#808080" transform="matrix(1.00, 0.00, -0.00, -1.00, 1164.4, 83.8)">w</text><text xml:space="preserve" font-family="HelveticaNeue,Helvetica Neue" font-size="30.0" fill="#808080" transform="matrix(1.00, 0.00, -0.00, -1.00, 1187.1, 83.8)"> </text><text xml:space="preserve" font-family="HelveticaNeue,Helvetica Neue" font-size="30.0" fill="#808080" transform="matrix(1.00, 0.00, -0.00, -1.00, 1195.5, 83.8)">S</text><text xml:space="preserve" font-family="HelveticaNeue,Helvetica Neue" font-size="30.0" fill="#808080" transform="matrix(1.00, 0.00, -0.00, -1.00, 1214.9, 83.8)">i</text><text xml:space="preserve" font-family="HelveticaNeue,Helvetica Neue" font-size="30.0" fill="#808080" transform="matrix(1.00, 0.00, -0.00, -1.00, 1221.6, 83.8)">z</text><text xml:space="preserve" font-family="HelveticaNeue,Helvetica Neue" font-size="30.0" fill="#808080" transform="matrix(1.00, 0.00, -0.00, -1.00, 1236.0, 83.8)">e</text></g></g><g><clipPath id="clip0x7fad42db2ab0"><path d="M 653.2 166.8 L 753.5 267.2 L 779.8 240.9 L 679.4 140.6 Z M 653.2 166.8 "></path></clipPath><g clip-path="url(#clip0x7fad42db2ab0)"><text xml:space="preserve" font-family="HelveticaNeue,Helvetica Neue" font-size="30.0" fill="#808080" transform="matrix(0.71, 0.71, 0.71, -0.71, 675.3, 146.8)">2</text><text xml:space="preserve" font-family="HelveticaNeue,Helvetica Neue" font-size="30.0" fill="#808080" transform="matrix(0.71, 0.71, 0.71, -0.71, 687.1, 158.6)"> </text><text xml:space="preserve" font-family="HelveticaNeue,Helvetica Neue" font-size="30.0" fill="#808080" transform="matrix(0.71, 0.71, 0.71, -0.71, 693.0, 164.5)">s</text><text xml:space="preserve" font-family="HelveticaNeue,Helvetica Neue" font-size="30.0" fill="#808080" transform="matrix(0.71, 0.71, 0.71, -0.71, 703.6, 175.1)">e</text><text xml:space="preserve" font-family="HelveticaNeue,Helvetica Neue" font-size="30.0" fill="#808080" transform="matrix(0.71, 0.71, 0.71, -0.71, 715.0, 186.5)">c</text><text xml:space="preserve" font-family="HelveticaNeue,Helvetica Neue" font-size="30.0" fill="#808080" transform="matrix(0.71, 0.71, 0.71, -0.71, 726.4, 197.9)">o</text><text xml:space="preserve" font-family="HelveticaNeue,Helvetica Neue" font-size="30.0" fill="#808080" transform="matrix(0.71, 0.71, 0.71, -0.71, 738.5, 210.1)">n</text><text xml:space="preserve" font-family="HelveticaNeue,Helvetica Neue" font-size="30.0" fill="#808080" transform="matrix(0.71, 0.71, 0.71, -0.71, 750.3, 221.9)">d</text><text xml:space="preserve" font-family="HelveticaNeue,Helvetica Neue" font-size="30.0" fill="#808080" transform="matrix(0.71, 0.71, 0.71, -0.71, 762.9, 234.5)">s</text></g></g><g><clipPath id="clip0x7fad42d82ed0"><path d="M 894.1 166.8 L 994.5 267.2 L 1020.8 240.9 L 920.4 140.6 Z M 894.1 166.8 "></path></clipPath><g clip-path="url(#clip0x7fad42d82ed0)"><text xml:space="preserve" font-family="HelveticaNeue,Helvetica Neue" font-size="30.0" fill="#808080" transform="matrix(0.71, 0.71, 0.71, -0.71, 916.3, 146.8)">5</text><text xml:space="preserve" font-family="HelveticaNeue,Helvetica Neue" font-size="30.0" fill="#808080" transform="matrix(0.71, 0.71, 0.71, -0.71, 928.0, 158.6)"> </text><text xml:space="preserve" font-family="HelveticaNeue,Helvetica Neue" font-size="30.0" fill="#808080" transform="matrix(0.71, 0.71, 0.71, -0.71, 933.9, 164.5)">s</text><text xml:space="preserve" font-family="HelveticaNeue,Helvetica Neue" font-size="30.0" fill="#808080" transform="matrix(0.71, 0.71, 0.71, -0.71, 944.5, 175.1)">e</text><text xml:space="preserve" font-family="HelveticaNeue,Helvetica Neue" font-size="30.0" fill="#808080" transform="matrix(0.71, 0.71, 0.71, -0.71, 955.9, 186.5)">c</text><text xml:space="preserve" font-family="HelveticaNeue,Helvetica Neue" font-size="30.0" fill="#808080" transform="matrix(0.71, 0.71, 0.71, -0.71, 967.3, 197.9)">o</text><text xml:space="preserve" font-family="HelveticaNeue,Helvetica Neue" font-size="30.0" fill="#808080" transform="matrix(0.71, 0.71, 0.71, -0.71, 979.5, 210.1)">n</text><text xml:space="preserve" font-family="HelveticaNeue,Helvetica Neue" font-size="30.0" fill="#808080" transform="matrix(0.71, 0.71, 0.71, -0.71, 991.3, 221.9)">d</text><text xml:space="preserve" font-family="HelveticaNeue,Helvetica Neue" font-size="30.0" fill="#808080" transform="matrix(0.71, 0.71, 0.71, -0.71, 1003.9, 234.5)">s</text></g></g><g><clipPath id="clip0x7fad42d871e0"><path d="M 1129.2 155.0 L 1241.4 267.2 L 1267.6 240.9 L 1155.5 128.8 Z M 1129.2 155.0 "></path></clipPath><g clip-path="url(#clip0x7fad42d871e0)"><text xml:space="preserve" font-family="HelveticaNeue,Helvetica Neue" font-size="30.0" fill="#808080" transform="matrix(0.71, 0.71, 0.71, -0.71, 1151.3, 135.1)">1</text><text xml:space="preserve" font-family="HelveticaNeue,Helvetica Neue" font-size="30.0" fill="#808080" transform="matrix(0.71, 0.71, 0.71, -0.71, 1163.1, 146.8)">0</text><text xml:space="preserve" font-family="HelveticaNeue,Helvetica Neue" font-size="30.0" fill="#808080" transform="matrix(0.71, 0.71, 0.71, -0.71, 1174.9, 158.6)"> </text><text xml:space="preserve" font-family="HelveticaNeue,Helvetica Neue" font-size="30.0" fill="#808080" transform="matrix(0.71, 0.71, 0.71, -0.71, 1180.8, 164.5)">s</text><text xml:space="preserve" font-family="HelveticaNeue,Helvetica Neue" font-size="30.0" fill="#808080" transform="matrix(0.71, 0.71, 0.71, -0.71, 1191.4, 175.1)">e</text><text xml:space="preserve" font-family="HelveticaNeue,Helvetica Neue" font-size="30.0" fill="#808080" transform="matrix(0.71, 0.71, 0.71, -0.71, 1202.8, 186.5)">c</text><text xml:space="preserve" font-family="HelveticaNeue,Helvetica Neue" font-size="30.0" fill="#808080" transform="matrix(0.71, 0.71, 0.71, -0.71, 1214.2, 197.9)">o</text><text xml:space="preserve" font-family="HelveticaNeue,Helvetica Neue" font-size="30.0" fill="#808080" transform="matrix(0.71, 0.71, 0.71, -0.71, 1226.4, 210.1)">n</text><text xml:space="preserve" font-family="HelveticaNeue,Helvetica Neue" font-size="30.0" fill="#808080" transform="matrix(0.71, 0.71, 0.71, -0.71, 1238.2, 221.9)">d</text><text xml:space="preserve" font-family="HelveticaNeue,Helvetica Neue" font-size="30.0" fill="#808080" transform="matrix(0.71, 0.71, 0.71, -0.71, 1250.8, 234.5)">s</text></g></g><g><clipPath id="clip0x7fad42d8bc90"><path d="M 1370.2 155.0 L 1482.3 267.2 L 1508.6 240.9 L 1396.5 128.8 Z M 1370.2 155.0 "></path></clipPath><g clip-path="url(#clip0x7fad42d8bc90)"><text xml:space="preserve" font-family="HelveticaNeue,Helvetica Neue" font-size="30.0" fill="#808080" transform="matrix(0.71, 0.71, 0.71, -0.71, 1392.3, 135.1)">1</text><text xml:space="preserve" font-family="HelveticaNeue,Helvetica Neue" font-size="30.0" fill="#808080" transform="matrix(0.71, 0.71, 0.71, -0.71, 1404.1, 146.8)">5</text><text xml:space="preserve" font-family="HelveticaNeue,Helvetica Neue" font-size="30.0" fill="#808080" transform="matrix(0.71, 0.71, 0.71, -0.71, 1415.9, 158.6)"> </text><text xml:space="preserve" font-family="HelveticaNeue,Helvetica Neue" font-size="30.0" fill="#808080" transform="matrix(0.71, 0.71, 0.71, -0.71, 1421.8, 164.5)">s</text><text xml:space="preserve" font-family="HelveticaNeue,Helvetica Neue" font-size="30.0" fill="#808080" transform="matrix(0.71, 0.71, 0.71, -0.71, 1432.4, 175.1)">e</text><text xml:space="preserve" font-family="HelveticaNeue,Helvetica Neue" font-size="30.0" fill="#808080" transform="matrix(0.71, 0.71, 0.71, -0.71, 1443.8, 186.5)">c</text><text xml:space="preserve" font-family="HelveticaNeue,Helvetica Neue" font-size="30.0" fill="#808080" transform="matrix(0.71, 0.71, 0.71, -0.71, 1455.2, 197.9)">o</text><text xml:space="preserve" font-family="HelveticaNeue,Helvetica Neue" font-size="30.0" fill="#808080" transform="matrix(0.71, 0.71, 0.71, -0.71, 1467.3, 210.1)">n</text><text xml:space="preserve" font-family="HelveticaNeue,Helvetica Neue" font-size="30.0" fill="#808080" transform="matrix(0.71, 0.71, 0.71, -0.71, 1479.1, 221.9)">d</text><text xml:space="preserve" font-family="HelveticaNeue,Helvetica Neue" font-size="30.0" fill="#808080" transform="matrix(0.71, 0.71, 0.71, -0.71, 1491.7, 234.5)">s</text></g></g><g><clipPath id="clip0x7fad42d905c0"><path d="M 596.0 281.8 L 1559.9 281.8 L 1559.9 744.3 L 596.0 744.3 Z M 596.0 281.8 "></path></clipPath><g clip-path="url(#clip0x7fad42d905c0)"><path d="M 752.0 672.0 L 802.0 672.0 L 802.0 282.0 L 752.0 282.0 Z M 752.0 672.0 " fill="#A4A4A4"></path></g></g><g><clipPath id="clip0x7fad42d68680"><path d="M 596.0 281.8 L 1559.9 281.8 L 1559.9 744.3 L 596.0 744.3 Z M 596.0 281.8 "></path></clipPath><g clip-path="url(#clip0x7fad42d68680)"><path d="M 993.0 689.0 L 1043.0 689.0 L 1043.0 282.0 L 993.0 282.0 Z M 993.0 689.0 " fill="#A4A4A4"></path></g></g><g><clipPath id="clip0x7fad42d66cb0"><path d="M 596.0 281.8 L 1559.9 281.8 L 1559.9 744.3 L 596.0 744.3 Z M 596.0 281.8 "></path></clipPath><g clip-path="url(#clip0x7fad42d66cb0)"><path d="M 1234.0 714.0 L 1284.0 714.0 L 1284.0 282.0 L 1234.0 282.0 Z M 1234.0 714.0 " fill="#A4A4A4"></path></g></g><g><clipPath id="clip0x7fad42d67a50"><path d="M 596.0 281.8 L 1559.9 281.8 L 1559.9 744.3 L 596.0 744.3 Z M 596.0 281.8 "></path></clipPath><g clip-path="url(#clip0x7fad42d67a50)"><path d="M 1475.0 663.0 L 1525.0 663.0 L 1525.0 282.0 L 1475.0 282.0 Z M 1475.0 663.0 " fill="#A4A4A4"></path></g></g><g><clipPath id="clip0x7fad42d68210"><path d="M 596.0 281.8 L 1559.9 281.8 L 1559.9 744.3 L 596.0 744.3 Z M 596.0 281.8 "></path></clipPath><g clip-path="url(#clip0x7fad42d68210)"><path d="M 691.0 730.0 L 742.0 730.0 L 742.0 282.0 L 691.0 282.0 Z M 691.0 730.0 " fill="#980605"></path></g></g><g><clipPath id="clip0x7fad42d655d0"><path d="M 596.0 281.8 L 1559.9 281.8 L 1559.9 744.3 L 596.0 744.3 Z M 596.0 281.8 "></path></clipPath><g clip-path="url(#clip0x7fad42d655d0)"><path d="M 932.0 704.0 L 983.0 704.0 L 983.0 282.0 L 932.0 282.0 Z M 932.0 704.0 " fill="#980605"></path></g></g><g><clipPath id="clip0x7fad42d63d00"><path d="M 596.0 281.8 L 1559.9 281.8 L 1559.9 744.3 L 596.0 744.3 Z M 596.0 281.8 "></path></clipPath><g clip-path="url(#clip0x7fad42d63d00)"><path d="M 1173.0 707.0 L 1224.0 707.0 L 1224.0 282.0 L 1173.0 282.0 Z M 1173.0 707.0 " fill="#980605"></path></g></g><g><clipPath id="clip0x7fad42d63410"><path d="M 596.0 281.8 L 1559.9 281.8 L 1559.9 744.3 L 596.0 744.3 Z M 596.0 281.8 "></path></clipPath><g clip-path="url(#clip0x7fad42d63410)"><path d="M 1414.0 703.0 L 1465.0 703.0 L 1465.0 282.0 L 1414.0 282.0 Z M 1414.0 703.0 " fill="#980605"></path></g></g><g><clipPath id="clip0x7fad42d617b0"><path d="M 596.0 281.8 L 1559.9 281.8 L 1559.9 744.3 L 596.0 744.3 Z M 596.0 281.8 "></path></clipPath><g clip-path="url(#clip0x7fad42d617b0)"><path d="M 631.0 573.0 L 681.0 573.0 L 681.0 282.0 L 631.0 282.0 Z M 631.0 573.0 " fill="#6C7472"></path></g></g><g><clipPath id="clip0x7fad42d611c0"><path d="M 596.0 281.8 L 1559.9 281.8 L 1559.9 744.3 L 596.0 744.3 Z M 596.0 281.8 "></path></clipPath><g clip-path="url(#clip0x7fad42d611c0)"><path d="M 872.0 609.0 L 922.0 609.0 L 922.0 282.0 L 872.0 282.0 Z M 872.0 609.0 " fill="#6C7472"></path></g></g><g><clipPath id="clip0x7fad41b80740"><path d="M 596.0 281.8 L 1559.9 281.8 L 1559.9 744.3 L 596.0 744.3 Z M 596.0 281.8 "></path></clipPath><g clip-path="url(#clip0x7fad41b80740)"><path d="M 1113.0 624.0 L 1163.0 624.0 L 1163.0 282.0 L 1113.0 282.0 Z M 1113.0 624.0 " fill="#6C7472"></path></g></g><g><clipPath id="clip0x7fad41b814e0"><path d="M 596.0 281.8 L 1559.9 281.8 L 1559.9 744.3 L 596.0 744.3 Z M 596.0 281.8 "></path></clipPath><g clip-path="url(#clip0x7fad41b814e0)"><path d="M 1354.0 695.0 L 1404.0 695.0 L 1404.0 282.0 L 1354.0 282.0 Z M 1354.0 695.0 " fill="#6C7472"></path></g></g><path d="M 668.0 860.0 L 697.0 860.0 L 697.0 832.0 L 668.0 832.0 Z M 668.0 860.0 " fill="#6C7472"></path><text xml:space="preserve" font-family="HelveticaNeue,Helvetica Neue" font-size="30.0" fill="#808080" transform="matrix(1.00, 0.00, -0.00, -1.00, 714.4, 834.7)">J</text><text xml:space="preserve" font-family="HelveticaNeue,Helvetica Neue" font-size="30.0" fill="#808080" transform="matrix(1.00, 0.00, -0.00, -1.00, 729.9, 834.7)">S</text><text xml:space="preserve" font-family="HelveticaNeue,Helvetica Neue" font-size="30.0" fill="#808080" transform="matrix(1.00, 0.00, -0.00, -1.00, 749.4, 834.7)">O</text><text xml:space="preserve" font-family="HelveticaNeue,Helvetica Neue" font-size="30.0" fill="#808080" transform="matrix(1.00, 0.00, -0.00, -1.00, 772.2, 834.7)">N</text><path d="M 920.0 860.0 L 949.0 860.0 L 949.0 832.0 L 920.0 832.0 Z M 920.0 860.0 " fill="#980605"></path><text xml:space="preserve" font-family="HelveticaNeue,Helvetica Neue" font-size="30.0" fill="#808080" transform="matrix(1.00, 0.00, -0.00, -1.00, 966.1, 834.7)">A</text><text xml:space="preserve" font-family="HelveticaNeue,Helvetica Neue" font-size="30.0" fill="#808080" transform="matrix(1.00, 0.00, -0.00, -1.00, 984.1, 834.7)">V</text><text xml:space="preserve" font-family="HelveticaNeue,Helvetica Neue" font-size="30.0" fill="#808080" transform="matrix(1.00, 0.00, -0.00, -1.00, 1002.5, 834.7)">R</text><text xml:space="preserve" font-family="HelveticaNeue,Helvetica Neue" font-size="30.0" fill="#808080" transform="matrix(1.00, 0.00, -0.00, -1.00, 1023.0, 834.7)">O</text><path d="M 1172.0 860.0 L 1200.0 860.0 L 1200.0 832.0 L 1172.0 832.0 Z M 1172.0 860.0 " fill="#A4A4A4"></path><text xml:space="preserve" font-family="HelveticaNeue,Helvetica Neue" font-size="30.0" fill="#808080" transform="matrix(1.00, 0.00, -0.00, -1.00, 1218.0, 834.7)">P</text><text xml:space="preserve" font-family="HelveticaNeue,Helvetica Neue" font-size="30.0" fill="#808080" transform="matrix(1.00, 0.00, -0.00, -1.00, 1237.5, 834.7)">R</text><text xml:space="preserve" font-family="HelveticaNeue,Helvetica Neue" font-size="30.0" fill="#808080" transform="matrix(1.00, 0.00, -0.00, -1.00, 1258.0, 834.7)">O</text><text xml:space="preserve" font-family="HelveticaNeue,Helvetica Neue" font-size="30.0" fill="#808080" transform="matrix(1.00, 0.00, -0.00, -1.00, 1280.8, 834.7)">T</text><text xml:space="preserve" font-family="HelveticaNeue,Helvetica Neue" font-size="30.0" fill="#808080" transform="matrix(1.00, 0.00, -0.00, -1.00, 1298.0, 834.7)">O</text><text xml:space="preserve" font-family="HelveticaNeue,Helvetica Neue" font-size="30.0" fill="#808080" transform="matrix(1.00, 0.00, -0.00, -1.00, 1320.8, 834.7)">B</text><text xml:space="preserve" font-family="HelveticaNeue,Helvetica Neue" font-size="30.0" fill="#808080" transform="matrix(1.00, 0.00, -0.00, -1.00, 1341.4, 834.7)">U</text><text xml:space="preserve" font-family="HelveticaNeue,Helvetica Neue" font-size="30.0" fill="#808080" transform="matrix(1.00, 0.00, -0.00, -1.00, 1363.0, 834.7)">F</text><text xml:space="preserve" font-family="HelveticaNeue-CondensedBold,Helvetica Neue" font-weight="bold" font-size="58.0" fill="#DDDDDD" transform="matrix(1.00, 0.00, -0.00, -1.00, 382.6, 958.2)">C</text><text xml:space="preserve" font-family="HelveticaNeue-CondensedBold,Helvetica Neue" font-weight="bold" font-size="58.0" fill="#DDDDDD" transform="matrix(1.00, 0.00, -0.00, -1.00, 413.7, 958.2)">O</text><text xml:space="preserve" font-family="HelveticaNeue-CondensedBold,Helvetica Neue" font-weight="bold" font-size="58.0" fill="#DDDDDD" transform="matrix(1.00, 0.00, -0.00, -1.00, 445.9, 958.2)">M</text><text xml:space="preserve" font-family="HelveticaNeue-CondensedBold,Helvetica Neue" font-weight="bold" font-size="58.0" fill="#DDDDDD" transform="matrix(1.00, 0.00, -0.00, -1.00, 488.9, 958.2)">P</text><text xml:space="preserve" font-family="HelveticaNeue-CondensedBold,Helvetica Neue" font-weight="bold" font-size="58.0" fill="#DDDDDD" transform="matrix(1.00, 0.00, -0.00, -1.00, 516.8, 958.2)">A</text><text xml:space="preserve" font-family="HelveticaNeue-CondensedBold,Helvetica Neue" font-weight="bold" font-size="58.0" fill="#DDDDDD" transform="matrix(1.00, 0.00, -0.00, -1.00, 549.1, 958.2)">R</text><text xml:space="preserve" font-family="HelveticaNeue-CondensedBold,Helvetica Neue" font-weight="bold" font-size="58.0" fill="#DDDDDD" transform="matrix(1.00, 0.00, -0.00, -1.00, 581.3, 958.2)">I</text><text xml:space="preserve" font-family="HelveticaNeue-CondensedBold,Helvetica Neue" font-weight="bold" font-size="58.0" fill="#DDDDDD" transform="matrix(1.00, 0.00, -0.00, -1.00, 596.3, 958.2)">S</text><text xml:space="preserve" font-family="HelveticaNeue-CondensedBold,Helvetica Neue" font-weight="bold" font-size="58.0" fill="#DDDDDD" transform="matrix(1.00, 0.00, -0.00, -1.00, 626.4, 958.2)">O</text><text xml:space="preserve" font-family="HelveticaNeue-CondensedBold,Helvetica Neue" font-weight="bold" font-size="58.0" fill="#DDDDDD" transform="matrix(1.00, 0.00, -0.00, -1.00, 658.6, 958.2)">N</text><text xml:space="preserve" font-family="HelveticaNeue-CondensedBold,Helvetica Neue" font-weight="bold" font-size="58.0" fill="#DDDDDD" transform="matrix(1.00, 0.00, -0.00, -1.00, 691.9, 958.2)"> </text><text xml:space="preserve" font-family="HelveticaNeue-CondensedBold,Helvetica Neue" font-weight="bold" font-size="58.0" fill="#DDDDDD" transform="matrix(1.00, 0.00, -0.00, -1.00, 705.8, 958.2)">O</text><text xml:space="preserve" font-family="HelveticaNeue-CondensedBold,Helvetica Neue" font-weight="bold" font-size="58.0" fill="#DDDDDD" transform="matrix(1.00, 0.00, -0.00, -1.00, 738.1, 958.2)">F</text><text xml:space="preserve" font-family="HelveticaNeue-CondensedBold,Helvetica Neue" font-weight="bold" font-size="58.0" fill="#DDDDDD" transform="matrix(1.00, 0.00, -0.00, -1.00, 764.9, 958.2)"> </text><text xml:space="preserve" font-family="HelveticaNeue-CondensedBold,Helvetica Neue" font-weight="bold" font-size="58.0" fill="#DDDDDD" transform="matrix(1.00, 0.00, -0.00, -1.00, 778.9, 958.2)">S</text><text xml:space="preserve" font-family="HelveticaNeue-CondensedBold,Helvetica Neue" font-weight="bold" font-size="58.0" fill="#DDDDDD" transform="matrix(1.00, 0.00, -0.00, -1.00, 809.0, 958.2)">E</text><text xml:space="preserve" font-family="HelveticaNeue-CondensedBold,Helvetica Neue" font-weight="bold" font-size="58.0" fill="#DDDDDD" transform="matrix(1.00, 0.00, -0.00, -1.00, 836.9, 958.2)">R</text><text xml:space="preserve" font-family="HelveticaNeue-CondensedBold,Helvetica Neue" font-weight="bold" font-size="58.0" fill="#DDDDDD" transform="matrix(1.00, 0.00, -0.00, -1.00, 869.1, 958.2)">I</text><text xml:space="preserve" font-family="HelveticaNeue-CondensedBold,Helvetica Neue" font-weight="bold" font-size="58.0" fill="#DDDDDD" transform="matrix(1.00, 0.00, -0.00, -1.00, 884.1, 958.2)">A</text><text xml:space="preserve" font-family="HelveticaNeue-CondensedBold,Helvetica Neue" font-weight="bold" font-size="58.0" fill="#DDDDDD" transform="matrix(1.00, 0.00, -0.00, -1.00, 916.3, 958.2)">L</text><text xml:space="preserve" font-family="HelveticaNeue-CondensedBold,Helvetica Neue" font-weight="bold" font-size="58.0" fill="#DDDDDD" transform="matrix(1.00, 0.00, -0.00, -1.00, 943.2, 958.2)">I</text><text xml:space="preserve" font-family="HelveticaNeue-CondensedBold,Helvetica Neue" font-weight="bold" font-size="58.0" fill="#DDDDDD" transform="matrix(1.00, 0.00, -0.00, -1.00, 958.1, 958.2)">Z</text><text xml:space="preserve" font-family="HelveticaNeue-CondensedBold,Helvetica Neue" font-weight="bold" font-size="58.0" fill="#DDDDDD" transform="matrix(1.00, 0.00, -0.00, -1.00, 986.0, 958.2)">A</text><text xml:space="preserve" font-family="HelveticaNeue-CondensedBold,Helvetica Neue" font-weight="bold" font-size="58.0" fill="#DDDDDD" transform="matrix(1.00, 0.00, -0.00, -1.00, 1015.1, 958.2)">T</text><text xml:space="preserve" font-family="HelveticaNeue-CondensedBold,Helvetica Neue" font-weight="bold" font-size="58.0" fill="#DDDDDD" transform="matrix(1.00, 0.00, -0.00, -1.00, 1042.9, 958.2)">I</text><text xml:space="preserve" font-family="HelveticaNeue-CondensedBold,Helvetica Neue" font-weight="bold" font-size="58.0" fill="#DDDDDD" transform="matrix(1.00, 0.00, -0.00, -1.00, 1057.9, 958.2)">O</text><text xml:space="preserve" font-family="HelveticaNeue-CondensedBold,Helvetica Neue" font-weight="bold" font-size="58.0" fill="#DDDDDD" transform="matrix(1.00, 0.00, -0.00, -1.00, 1090.2, 958.2)">N</text><text xml:space="preserve" font-family="HelveticaNeue-CondensedBold,Helvetica Neue" font-weight="bold" font-size="58.0" fill="#DDDDDD" transform="matrix(1.00, 0.00, -0.00, -1.00, 1123.4, 958.2)"> </text><text xml:space="preserve" font-family="HelveticaNeue-CondensedBold,Helvetica Neue" font-weight="bold" font-size="58.0" fill="#DDDDDD" transform="matrix(1.00, 0.00, -0.00, -1.00, 1135.2, 958.2)">A</text><text xml:space="preserve" font-family="HelveticaNeue-CondensedBold,Helvetica Neue" font-weight="bold" font-size="58.0" fill="#DDDDDD" transform="matrix(1.00, 0.00, -0.00, -1.00, 1167.5, 958.2)">N</text><text xml:space="preserve" font-family="HelveticaNeue-CondensedBold,Helvetica Neue" font-weight="bold" font-size="58.0" fill="#DDDDDD" transform="matrix(1.00, 0.00, -0.00, -1.00, 1200.8, 958.2)">D</text><text xml:space="preserve" font-family="HelveticaNeue-CondensedBold,Helvetica Neue" font-weight="bold" font-size="58.0" fill="#DDDDDD" transform="matrix(1.00, 0.00, -0.00, -1.00, 1234.0, 958.2)"> </text><text xml:space="preserve" font-family="HelveticaNeue-CondensedBold,Helvetica Neue" font-weight="bold" font-size="58.0" fill="#DDDDDD" transform="matrix(1.00, 0.00, -0.00, -1.00, 1248.0, 958.2)">B</text><text xml:space="preserve" font-family="HelveticaNeue-CondensedBold,Helvetica Neue" font-weight="bold" font-size="58.0" fill="#DDDDDD" transform="matrix(1.00, 0.00, -0.00, -1.00, 1280.2, 958.2)">A</text><text xml:space="preserve" font-family="HelveticaNeue-CondensedBold,Helvetica Neue" font-weight="bold" font-size="58.0" fill="#DDDDDD" transform="matrix(1.00, 0.00, -0.00, -1.00, 1309.3, 958.2)">T</text><text xml:space="preserve" font-family="HelveticaNeue-CondensedBold,Helvetica Neue" font-weight="bold" font-size="58.0" fill="#DDDDDD" transform="matrix(1.00, 0.00, -0.00, -1.00, 1337.1, 958.2)">C</text><text xml:space="preserve" font-family="HelveticaNeue-CondensedBold,Helvetica Neue" font-weight="bold" font-size="58.0" fill="#DDDDDD" transform="matrix(1.00, 0.00, -0.00, -1.00, 1368.3, 958.2)">H</text><text xml:space="preserve" font-family="HelveticaNeue-CondensedBold,Helvetica Neue" font-weight="bold" font-size="58.0" fill="#DDDDDD" transform="matrix(1.00, 0.00, -0.00, -1.00, 1400.5, 958.2)"> </text><text xml:space="preserve" font-family="HelveticaNeue-CondensedBold,Helvetica Neue" font-weight="bold" font-size="58.0" fill="#DDDDDD" transform="matrix(1.00, 0.00, -0.00, -1.00, 1414.4, 958.2)">S</text><text xml:space="preserve" font-family="HelveticaNeue-CondensedBold,Helvetica Neue" font-weight="bold" font-size="58.0" fill="#DDDDDD" transform="matrix(1.00, 0.00, -0.00, -1.00, 1444.5, 958.2)">I</text><text xml:space="preserve" font-family="HelveticaNeue-CondensedBold,Helvetica Neue" font-weight="bold" font-size="58.0" fill="#DDDDDD" transform="matrix(1.00, 0.00, -0.00, -1.00, 1459.5, 958.2)">Z</text><text xml:space="preserve" font-family="HelveticaNeue-CondensedBold,Helvetica Neue" font-weight="bold" font-size="58.0" fill="#DDDDDD" transform="matrix(1.00, 0.00, -0.00, -1.00, 1487.4, 958.2)">E</text><text xml:space="preserve" font-family="HelveticaNeue-CondensedBold,Helvetica Neue" font-weight="bold" font-size="54.0" fill="#DDDDDD" transform="matrix(1.00, 0.00, -0.00, -1.00, 382.6, 905.0)">2</text><text xml:space="preserve" font-family="HelveticaNeue-CondensedBold,Helvetica Neue" font-weight="bold" font-size="54.0" fill="#DDDDDD" transform="matrix(1.00, 0.00, -0.00, -1.00, 408.5, 905.0)"> </text><text xml:space="preserve" font-family="HelveticaNeue-CondensedBold,Helvetica Neue" font-weight="bold" font-size="54.0" fill="#DDDDDD" transform="matrix(1.00, 0.00, -0.00, -1.00, 421.4, 905.0)">i</text><text xml:space="preserve" font-family="HelveticaNeue-CondensedBold,Helvetica Neue" font-weight="bold" font-size="54.0" fill="#DDDDDD" transform="matrix(1.00, 0.00, -0.00, -1.00, 434.4, 905.0)">n</text><text xml:space="preserve" font-family="HelveticaNeue-CondensedBold,Helvetica Neue" font-weight="bold" font-size="54.0" fill="#DDDDDD" transform="matrix(1.00, 0.00, -0.00, -1.00, 461.4, 905.0)">s</text><text xml:space="preserve" font-family="HelveticaNeue-CondensedBold,Helvetica Neue" font-weight="bold" font-size="54.0" fill="#DDDDDD" transform="matrix(1.00, 0.00, -0.00, -1.00, 485.4, 905.0)">t</text><text xml:space="preserve" font-family="HelveticaNeue-CondensedBold,Helvetica Neue" font-weight="bold" font-size="54.0" fill="#DDDDDD" transform="matrix(1.00, 0.00, -0.00, -1.00, 501.4, 905.0)">a</text><text xml:space="preserve" font-family="HelveticaNeue-CondensedBold,Helvetica Neue" font-weight="bold" font-size="54.0" fill="#DDDDDD" transform="matrix(1.00, 0.00, -0.00, -1.00, 527.3, 905.0)">n</text><text xml:space="preserve" font-family="HelveticaNeue-CondensedBold,Helvetica Neue" font-weight="bold" font-size="54.0" fill="#DDDDDD" transform="matrix(1.00, 0.00, -0.00, -1.00, 554.3, 905.0)">c</text><text xml:space="preserve" font-family="HelveticaNeue-CondensedBold,Helvetica Neue" font-weight="bold" font-size="54.0" fill="#DDDDDD" transform="matrix(1.00, 0.00, -0.00, -1.00, 579.3, 905.0)">e</text><text xml:space="preserve" font-family="HelveticaNeue-CondensedBold,Helvetica Neue" font-weight="bold" font-size="54.0" fill="#DDDDDD" transform="matrix(1.00, 0.00, -0.00, -1.00, 604.3, 905.0)">s</text><text xml:space="preserve" font-family="HelveticaNeue-CondensedBold,Helvetica Neue" font-weight="bold" font-size="54.0" fill="#DDDDDD" transform="matrix(1.00, 0.00, -0.00, -1.00, 628.3, 905.0)">,</text><text xml:space="preserve" font-family="HelveticaNeue-CondensedBold,Helvetica Neue" font-weight="bold" font-size="54.0" fill="#DDDDDD" transform="matrix(1.00, 0.00, -0.00, -1.00, 639.3, 905.0)"> </text><text xml:space="preserve" font-family="HelveticaNeue-CondensedBold,Helvetica Neue" font-weight="bold" font-size="54.0" fill="#DDDDDD" transform="matrix(1.00, 0.00, -0.00, -1.00, 652.2, 905.0)">1</text><text xml:space="preserve" font-family="HelveticaNeue-CondensedBold,Helvetica Neue" font-weight="bold" font-size="54.0" fill="#DDDDDD" transform="matrix(1.00, 0.00, -0.00, -1.00, 678.1, 905.0)"> </text><text xml:space="preserve" font-family="HelveticaNeue-CondensedBold,Helvetica Neue" font-weight="bold" font-size="54.0" fill="#DDDDDD" transform="matrix(1.00, 0.00, -0.00, -1.00, 691.1, 905.0)">J</text><text xml:space="preserve" font-family="HelveticaNeue-CondensedBold,Helvetica Neue" font-weight="bold" font-size="54.0" fill="#DDDDDD" transform="matrix(1.00, 0.00, -0.00, -1.00, 716.1, 905.0)">V</text><text xml:space="preserve" font-family="HelveticaNeue-CondensedBold,Helvetica Neue" font-weight="bold" font-size="54.0" fill="#DDDDDD" transform="matrix(1.00, 0.00, -0.00, -1.00, 744.1, 905.0)">M</text><text xml:space="preserve" font-family="HelveticaNeue-CondensedBold,Helvetica Neue" font-weight="bold" font-size="54.0" fill="#DDDDDD" transform="matrix(1.00, 0.00, -0.00, -1.00, 784.1, 905.0)"> </text><text xml:space="preserve" font-family="HelveticaNeue-CondensedBold,Helvetica Neue" font-weight="bold" font-size="54.0" fill="#DDDDDD" transform="matrix(1.00, 0.00, -0.00, -1.00, 797.1, 905.0)">p</text><text xml:space="preserve" font-family="HelveticaNeue-CondensedBold,Helvetica Neue" font-weight="bold" font-size="54.0" fill="#DDDDDD" transform="matrix(1.00, 0.00, -0.00, -1.00, 824.1, 905.0)">e</text><text xml:space="preserve" font-family="HelveticaNeue-CondensedBold,Helvetica Neue" font-weight="bold" font-size="54.0" fill="#DDDDDD" transform="matrix(1.00, 0.00, -0.00, -1.00, 849.1, 905.0)">r</text><text xml:space="preserve" font-family="HelveticaNeue-CondensedBold,Helvetica Neue" font-weight="bold" font-size="54.0" fill="#DDDDDD" transform="matrix(1.00, 0.00, -0.00, -1.00, 867.0, 905.0)"> </text><text xml:space="preserve" font-family="HelveticaNeue-CondensedBold,Helvetica Neue" font-weight="bold" font-size="54.0" fill="#DDDDDD" transform="matrix(1.00, 0.00, -0.00, -1.00, 880.0, 905.0)">i</text><text xml:space="preserve" font-family="HelveticaNeue-CondensedBold,Helvetica Neue" font-weight="bold" font-size="54.0" fill="#DDDDDD" transform="matrix(1.00, 0.00, -0.00, -1.00, 893.0, 905.0)">n</text><text xml:space="preserve" font-family="HelveticaNeue-CondensedBold,Helvetica Neue" font-weight="bold" font-size="54.0" fill="#DDDDDD" transform="matrix(1.00, 0.00, -0.00, -1.00, 920.0, 905.0)">s</text><text xml:space="preserve" font-family="HelveticaNeue-CondensedBold,Helvetica Neue" font-weight="bold" font-size="54.0" fill="#DDDDDD" transform="matrix(1.00, 0.00, -0.00, -1.00, 943.9, 905.0)">t</text><text xml:space="preserve" font-family="HelveticaNeue-CondensedBold,Helvetica Neue" font-weight="bold" font-size="54.0" fill="#DDDDDD" transform="matrix(1.00, 0.00, -0.00, -1.00, 959.9, 905.0)">a</text><text xml:space="preserve" font-family="HelveticaNeue-CondensedBold,Helvetica Neue" font-weight="bold" font-size="54.0" fill="#DDDDDD" transform="matrix(1.00, 0.00, -0.00, -1.00, 985.9, 905.0)">n</text><text xml:space="preserve" font-family="HelveticaNeue-CondensedBold,Helvetica Neue" font-weight="bold" font-size="54.0" fill="#DDDDDD" transform="matrix(1.00, 0.00, -0.00, -1.00, 1012.9, 905.0)">c</text><text xml:space="preserve" font-family="HelveticaNeue-CondensedBold,Helvetica Neue" font-weight="bold" font-size="54.0" fill="#DDDDDD" transform="matrix(1.00, 0.00, -0.00, -1.00, 1037.9, 905.0)">e</text></g></svg>