<?xml version="1.0" encoding="UTF-8" standalone="no"?><svg xmlns="http://www.w3.org/2000/svg" xmlns:xlink="http://www.w3.org/1999/xlink" clip-rule="evenodd" stroke-miterlimit="10" viewBox="0 0 1920 1080"><desc>SVG generated by Keynote</desc><defs></defs><g transform="matrix(1.00, 0.00, -0.00, -1.00, 0.0, 1080.0)"><g><clipPath id="clip0x7fad41cd6810"><path d="M 0.0 1080.0 L 1920.0 1080.0 L 1920.0 0.0 L 0.0 0.0 Z M 0.0 1080.0 "></path></clipPath><g clip-path="url(#clip0x7fad41cd6810)"><image xlink:href="../../266D7EC3-77A7-4FB1-A408-621405B4EE8A/assets/0BF7C4DE38584FF55ABE8E2C53BD5CCD.jpeg" width="2048.00" height="1536.00" transform="matrix(0.94, 0.00, -0.00, -0.70, 0.0, 1080.0)"></image></g></g><path d="M 0.1 0.1 L 1378.1 0.1 L 1378.1 1021.1 L 0.1 1021.1 Z M 0.0 0.0 " fill="none" stroke="#83817C" stroke-width="2.00" transform="matrix(1.00, 0.00, 0.00, -1.00, 270.9, 1049.1)"></path><image xlink:href="../../268AA437-0E3B-4ECB-BC0C-3BAEB21897EF/assets/F32888DF5FB03431F58C7A556EF62A54.png" width="500.00" height="150.00" transform="matrix(1.41, 0.00, -0.00, -1.40, 557.0, 645.0)"></image><image xlink:href="../../268AA437-0E3B-4ECB-BC0C-3BAEB21897EF/assets/7A589ED691023DFACD5B4A7DDABBEB69.png" width="180.00" height="180.00" transform="matrix(1.86, 0.00, -0.00, -1.86, 961.0, 330.0)"></image><image xlink:href="../../82F99750-98AA-4BE9-A9A8-287A1AF221EE/assets/4F9E2756828E7730DC2DD9B938927AC8.png" width="320.00" height="218.00" transform="matrix(1.19, 0.00, -0.00, -1.19, 770.0, 1045.0)"></image><g><clipPath id="clip0x7fad4394ff20"><path d="M 950.0 304.0 L 919.1 304.0 L 964.4 239.9 L 1009.6 304.0 L 979.0 304.0 L 979.0 428.0 L 950.0 428.0 Z M 949.9 303.9 "></path></clipPath><g clip-path="url(#clip0x7fad4394ff20)"><image xlink:href="../../268AA437-0E3B-4ECB-BC0C-3BAEB21897EF/assets/AE67849DE1D28B5C07DBB1B2E44FE0A6.png" width="576.00" height="576.00" transform="matrix(0.00, -0.50, -0.50, 0.00, 1009.6, 428.0)"></image></g></g><g><clipPath id="clip0x7fad41cd6040"><path d="M 950.0 671.0 L 919.1 671.0 L 964.4 607.2 L 1009.6 671.0 L 979.0 671.0 L 979.0 795.0 L 950.0 795.0 Z M 949.9 671.2 "></path></clipPath><g clip-path="url(#clip0x7fad41cd6040)"><image xlink:href="../../268AA437-0E3B-4ECB-BC0C-3BAEB21897EF/assets/AE67849DE1D28B5C07DBB1B2E44FE0A6.png" width="576.00" height="576.00" transform="matrix(0.00, -0.50, -0.50, 0.00, 1009.6, 795.0)"></image></g></g><image xlink:href="../../268AA437-0E3B-4ECB-BC0C-3BAEB21897EF/assets/8F1F0ED08412F8E9E93949482DD2C908.png" width="512.00" height="512.00" transform="matrix(0.41, 0.00, -0.00, -0.41, 715.0, 250.0)"></image></g></svg>