<?xml version="1.0" encoding="UTF-8" standalone="no"?><svg xmlns="http://www.w3.org/2000/svg" xmlns:xlink="http://www.w3.org/1999/xlink" clip-rule="evenodd" stroke-miterlimit="10" viewBox="0 0 1920 1080"><desc>SVG generated by Keynote</desc><defs></defs><g transform="matrix(1.00, 0.00, -0.00, -1.00, 0.0, 1080.0)"><g><clipPath id="clip0x7fad42ae4dd0"><path d="M 0.0 1080.0 L 1920.0 1080.0 L 1920.0 0.0 L 0.0 0.0 Z M 0.0 1080.0 "></path></clipPath><g clip-path="url(#clip0x7fad42ae4dd0)"><image xlink:href="../../266D7EC3-77A7-4FB1-A408-621405B4EE8A/assets/0BF7C4DE38584FF55ABE8E2C53BD5CCD.jpeg" width="2048.00" height="1536.00" transform="matrix(0.94, 0.00, -0.00, -0.70, 0.0, 1080.0)"></image></g></g><path d="M 0.1 0.1 L 1378.1 0.1 L 1378.1 1021.1 L 0.1 1021.1 Z M 0.0 0.0 " fill="none" stroke="#83817C" stroke-width="2.00" transform="matrix(1.00, 0.00, 0.00, -1.00, 270.9, 1049.1)"></path><text xml:space="preserve" font-family="HelveticaNeue-Light,Helvetica Neue" font-size="100.0" fill="#558AAA" transform="matrix(1.00, 0.00, -0.00, -1.00, 360.9, 878.0)">I</text><text xml:space="preserve" font-family="HelveticaNeue-Light,Helvetica Neue" font-size="100.0" fill="#558AAA" transform="matrix(1.00, 0.00, -0.00, -1.00, 383.1, 878.0)">m</text><text xml:space="preserve" font-family="HelveticaNeue-Light,Helvetica Neue" font-size="100.0" fill="#558AAA" transform="matrix(1.00, 0.00, -0.00, -1.00, 466.4, 878.0)">a</text><text xml:space="preserve" font-family="HelveticaNeue-Light,Helvetica Neue" font-size="100.0" fill="#558AAA" transform="matrix(1.00, 0.00, -0.00, -1.00, 518.3, 878.0)">g</text><text xml:space="preserve" font-family="HelveticaNeue-Light,Helvetica Neue" font-size="100.0" fill="#558AAA" transform="matrix(1.00, 0.00, -0.00, -1.00, 573.9, 878.0)">e</text><text xml:space="preserve" font-family="HelveticaNeue-Light,Helvetica Neue" font-size="100.0" fill="#558AAA" transform="matrix(1.00, 0.00, -0.00, -1.00, 625.8, 878.0)"> </text><text xml:space="preserve" font-family="HelveticaNeue-Light,Helvetica Neue" font-size="100.0" fill="#558AAA" transform="matrix(1.00, 0.00, -0.00, -1.00, 653.6, 878.0)">c</text><text xml:space="preserve" font-family="HelveticaNeue-Light,Helvetica Neue" font-size="100.0" fill="#558AAA" transform="matrix(1.00, 0.00, -0.00, -1.00, 705.5, 878.0)">r</text><text xml:space="preserve" font-family="HelveticaNeue-Light,Helvetica Neue" font-size="100.0" fill="#558AAA" transform="matrix(1.00, 0.00, -0.00, -1.00, 735.2, 878.0)">e</text><text xml:space="preserve" font-family="HelveticaNeue-Light,Helvetica Neue" font-size="100.0" fill="#558AAA" transform="matrix(1.00, 0.00, -0.00, -1.00, 787.1, 878.0)">d</text><text xml:space="preserve" font-family="HelveticaNeue-Light,Helvetica Neue" font-size="100.0" fill="#558AAA" transform="matrix(1.00, 0.00, -0.00, -1.00, 844.5, 878.0)">i</text><text xml:space="preserve" font-family="HelveticaNeue-Light,Helvetica Neue" font-size="100.0" fill="#558AAA" transform="matrix(1.00, 0.00, -0.00, -1.00, 863.0, 878.0)">t</text><text xml:space="preserve" font-family="HelveticaNeue-Light,Helvetica Neue" font-size="100.0" fill="#558AAA" transform="matrix(1.00, 0.00, -0.00, -1.00, 892.6, 878.0)">s</text><g><clipPath id="clip0x7fad42abce20"><path d="M 360.9 627.7 L 384.2 627.7 L 384.2 651.0 L 360.9 651.0 Z M 360.9 627.7 "></path></clipPath><g clip-path="url(#clip0x7fad42abce20)"><path d="M 371.5 649.8 L 371.5 643.6 L 368.4 648.9 L 366.4 647.8 L 369.5 642.4 L 364.1 645.5 L 362.9 643.5 L 368.3 640.4 L 362.1 640.4 L 362.1 638.1 L 368.3 638.1 L 362.9 635.0 L 364.1 632.9 L 369.5 636.0 L 366.4 630.7 L 368.4 629.5 L 371.5 634.9 L 371.5 628.7 L 373.8 628.7 L 373.8 634.9 L 376.9 629.5 L 379.0 630.7 L 375.9 636.0 L 381.2 632.9 L 382.4 635.0 L 377.0 638.1 L 383.2 638.1 L 383.2 640.4 L 377.0 640.4 L 382.4 643.5 L 381.2 645.5 L 375.9 642.4 L 379.0 647.8 L 376.9 649.0 L 373.8 643.6 L 373.8 649.8 Z M 371.5 649.8 " fill="#497493"></path></g></g><text xml:space="preserve" font-family="HelveticaNeue,Helvetica Neue" font-size="50.0" fill="#727272" transform="matrix(1.00, 0.00, -0.00, -1.00, 409.5, 621.9)">D</text><text xml:space="preserve" font-family="HelveticaNeue,Helvetica Neue" font-size="50.0" fill="#727272" transform="matrix(1.00, 0.00, -0.00, -1.00, 444.7, 621.9)">i</text><text xml:space="preserve" font-family="HelveticaNeue,Helvetica Neue" font-size="50.0" fill="#727272" transform="matrix(1.00, 0.00, -0.00, -1.00, 455.8, 621.9)">s</text><text xml:space="preserve" font-family="HelveticaNeue,Helvetica Neue" font-size="50.0" fill="#727272" transform="matrix(1.00, 0.00, -0.00, -1.00, 480.8, 621.9)">n</text><text xml:space="preserve" font-family="HelveticaNeue,Helvetica Neue" font-size="50.0" fill="#727272" transform="matrix(1.00, 0.00, -0.00, -1.00, 508.6, 621.9)">e</text><text xml:space="preserve" font-family="HelveticaNeue,Helvetica Neue" font-size="50.0" fill="#727272" transform="matrix(1.00, 0.00, -0.00, -1.00, 535.5, 621.9)">y</text><text xml:space="preserve" font-family="HelveticaNeue,Helvetica Neue" font-size="50.0" fill="#727272" transform="matrix(1.00, 0.00, -0.00, -1.00, 556.8, 621.9)">,</text><text xml:space="preserve" font-family="HelveticaNeue,Helvetica Neue" font-size="50.0" fill="#727272" transform="matrix(1.00, 0.00, -0.00, -1.00, 570.7, 621.9)"> </text><text xml:space="preserve" font-family="HelveticaNeue,Helvetica Neue" font-size="50.0" fill="#727272" transform="matrix(1.00, 0.00, -0.00, -1.00, 584.6, 621.9)">S</text><text xml:space="preserve" font-family="HelveticaNeue,Helvetica Neue" font-size="50.0" fill="#727272" transform="matrix(1.00, 0.00, -0.00, -1.00, 617.0, 621.9)">t</text><text xml:space="preserve" font-family="HelveticaNeue,Helvetica Neue" font-size="50.0" fill="#727272" transform="matrix(1.00, 0.00, -0.00, -1.00, 632.7, 621.9)">a</text><text xml:space="preserve" font-family="HelveticaNeue,Helvetica Neue" font-size="50.0" fill="#727272" transform="matrix(1.00, 0.00, -0.00, -1.00, 659.6, 621.9)">r</text><text xml:space="preserve" font-family="HelveticaNeue,Helvetica Neue" font-size="50.0" fill="#727272" transform="matrix(1.00, 0.00, -0.00, -1.00, 676.2, 621.9)"> </text><text xml:space="preserve" font-family="HelveticaNeue,Helvetica Neue" font-size="50.0" fill="#727272" transform="matrix(1.00, 0.00, -0.00, -1.00, 690.1, 621.9)">W</text><text xml:space="preserve" font-family="HelveticaNeue,Helvetica Neue" font-size="50.0" fill="#727272" transform="matrix(1.00, 0.00, -0.00, -1.00, 734.6, 621.9)">a</text><text xml:space="preserve" font-family="HelveticaNeue,Helvetica Neue" font-size="50.0" fill="#727272" transform="matrix(1.00, 0.00, -0.00, -1.00, 761.4, 621.9)">r</text><text xml:space="preserve" font-family="HelveticaNeue,Helvetica Neue" font-size="50.0" fill="#727272" transform="matrix(1.00, 0.00, -0.00, -1.00, 778.1, 621.9)">s</text><text xml:space="preserve" font-family="HelveticaNeue,Helvetica Neue" font-size="50.0" fill="#727272" transform="matrix(1.00, 0.00, -0.00, -1.00, 803.1, 621.9)">
</text><g><clipPath id="clip0x7fad3d407980"><path d="M 360.9 535.7 L 384.2 535.7 L 384.2 559.0 L 360.9 559.0 Z M 360.9 535.7 "></path></clipPath><g clip-path="url(#clip0x7fad3d407980)"><path d="M 371.5 557.8 L 371.5 551.6 L 368.4 556.9 L 366.4 555.8 L 369.5 550.4 L 364.1 553.5 L 362.9 551.5 L 368.3 548.4 L 362.1 548.4 L 362.1 546.1 L 368.3 546.1 L 362.9 543.0 L 364.1 540.9 L 369.5 544.0 L 366.4 538.7 L 368.4 537.5 L 371.5 542.9 L 371.5 536.7 L 373.8 536.7 L 373.8 542.9 L 376.9 537.5 L 379.0 538.7 L 375.9 544.0 L 381.2 540.9 L 382.4 543.0 L 377.0 546.1 L 383.2 546.1 L 383.2 548.4 L 377.0 548.4 L 382.4 551.5 L 381.2 553.5 L 375.9 550.4 L 379.0 555.8 L 376.9 557.0 L 373.8 551.6 L 373.8 557.8 Z M 371.5 557.8 " fill="#497493"></path></g></g><text xml:space="preserve" font-family="HelveticaNeue,Helvetica Neue" font-size="50.0" fill="#727272" transform="matrix(1.00, 0.00, -0.00, -1.00, 409.5, 529.9)">B</text><text xml:space="preserve" font-family="HelveticaNeue,Helvetica Neue" font-size="50.0" fill="#727272" transform="matrix(1.00, 0.00, -0.00, -1.00, 443.8, 529.9)">r</text><text xml:space="preserve" font-family="HelveticaNeue,Helvetica Neue" font-size="50.0" fill="#727272" transform="matrix(1.00, 0.00, -0.00, -1.00, 460.4, 529.9)">a</text><text xml:space="preserve" font-family="HelveticaNeue,Helvetica Neue" font-size="50.0" fill="#727272" transform="matrix(1.00, 0.00, -0.00, -1.00, 487.3, 529.9)">i</text><text xml:space="preserve" font-family="HelveticaNeue,Helvetica Neue" font-size="50.0" fill="#727272" transform="matrix(1.00, 0.00, -0.00, -1.00, 498.4, 529.9)">n</text><text xml:space="preserve" font-family="HelveticaNeue,Helvetica Neue" font-size="50.0" fill="#727272" transform="matrix(1.00, 0.00, -0.00, -1.00, 526.2, 529.9)">l</text><text xml:space="preserve" font-family="HelveticaNeue,Helvetica Neue" font-size="50.0" fill="#727272" transform="matrix(1.00, 0.00, -0.00, -1.00, 537.3, 529.9)">e</text><text xml:space="preserve" font-family="HelveticaNeue,Helvetica Neue" font-size="50.0" fill="#727272" transform="matrix(1.00, 0.00, -0.00, -1.00, 564.1, 529.9)">s</text><text xml:space="preserve" font-family="HelveticaNeue,Helvetica Neue" font-size="50.0" fill="#727272" transform="matrix(1.00, 0.00, -0.00, -1.00, 589.1, 529.9)">s</text><text xml:space="preserve" font-family="HelveticaNeue,Helvetica Neue" font-size="50.0" fill="#727272" transform="matrix(1.00, 0.00, -0.00, -1.00, 614.1, 529.9)">T</text><text xml:space="preserve" font-family="HelveticaNeue,Helvetica Neue" font-size="50.0" fill="#727272" transform="matrix(1.00, 0.00, -0.00, -1.00, 637.3, 529.9)">a</text><text xml:space="preserve" font-family="HelveticaNeue,Helvetica Neue" font-size="50.0" fill="#727272" transform="matrix(1.00, 0.00, -0.00, -1.00, 664.1, 529.9)">l</text><text xml:space="preserve" font-family="HelveticaNeue,Helvetica Neue" font-size="50.0" fill="#727272" transform="matrix(1.00, 0.00, -0.00, -1.00, 675.2, 529.9)">e</text><text xml:space="preserve" font-family="HelveticaNeue,Helvetica Neue" font-size="50.0" fill="#727272" transform="matrix(1.00, 0.00, -0.00, -1.00, 702.1, 529.9)">s</text><text xml:space="preserve" font-family="HelveticaNeue,Helvetica Neue" font-size="50.0" fill="#727272" transform="matrix(1.00, 0.00, -0.00, -1.00, 727.1, 529.9)">.</text><text xml:space="preserve" font-family="HelveticaNeue,Helvetica Neue" font-size="50.0" fill="#727272" transform="matrix(1.00, 0.00, -0.00, -1.00, 741.0, 529.9)">c</text><text xml:space="preserve" font-family="HelveticaNeue,Helvetica Neue" font-size="50.0" fill="#727272" transform="matrix(1.00, 0.00, -0.00, -1.00, 767.8, 529.9)">o</text><text xml:space="preserve" font-family="HelveticaNeue,Helvetica Neue" font-size="50.0" fill="#727272" transform="matrix(1.00, 0.00, -0.00, -1.00, 796.5, 529.9)">m</text><text xml:space="preserve" font-family="HelveticaNeue,Helvetica Neue" font-size="50.0" fill="#727272" transform="matrix(1.00, 0.00, -0.00, -1.00, 839.2, 529.9)">
</text><g><clipPath id="clip0x7fad42d3b910"><path d="M 408.5 522.6 L 839.2 522.6 L 839.2 527.1 L 408.5 527.1 Z M 408.5 522.6 "></path></clipPath><g clip-path="url(#clip0x7fad42d3b910)"><path d="M 54.2 248.6 L 483.9 248.6 " fill="none" stroke="#727272" stroke-width="2.50" transform="matrix(1.00, 0.00, 0.00, -1.00, 355.3, 773.4)"></path></g></g><g><clipPath id="clip0x7fad42d3c950"><path d="M 360.9 443.7 L 384.2 443.7 L 384.2 467.0 L 360.9 467.0 Z M 360.9 443.7 "></path></clipPath><g clip-path="url(#clip0x7fad42d3c950)"><path d="M 371.5 465.8 L 371.5 459.6 L 368.4 464.9 L 366.4 463.8 L 369.5 458.4 L 364.1 461.5 L 362.9 459.5 L 368.3 456.4 L 362.1 456.4 L 362.1 454.1 L 368.3 454.1 L 362.9 451.0 L 364.1 448.9 L 369.5 452.0 L 366.4 446.7 L 368.4 445.5 L 371.5 450.9 L 371.5 444.7 L 373.8 444.7 L 373.8 450.9 L 376.9 445.5 L 379.0 446.7 L 375.9 452.0 L 381.2 448.9 L 382.4 451.0 L 377.0 454.1 L 383.2 454.1 L 383.2 456.4 L 377.0 456.4 L 382.4 459.5 L 381.2 461.5 L 375.9 458.4 L 379.0 463.8 L 376.9 465.0 L 373.8 459.6 L 373.8 465.8 Z M 371.5 465.8 " fill="#497493"></path></g></g><text xml:space="preserve" font-family="HelveticaNeue,Helvetica Neue" font-size="50.0" fill="#727272" transform="matrix(1.00, 0.00, -0.00, -1.00, 409.5, 437.9)">S</text><text xml:space="preserve" font-family="HelveticaNeue,Helvetica Neue" font-size="50.0" fill="#727272" transform="matrix(1.00, 0.00, -0.00, -1.00, 441.9, 437.9)">e</text><text xml:space="preserve" font-family="HelveticaNeue,Helvetica Neue" font-size="50.0" fill="#727272" transform="matrix(1.00, 0.00, -0.00, -1.00, 468.8, 437.9)">t</text><text xml:space="preserve" font-family="HelveticaNeue,Helvetica Neue" font-size="50.0" fill="#727272" transform="matrix(1.00, 0.00, -0.00, -1.00, 484.5, 437.9)">t</text><text xml:space="preserve" font-family="HelveticaNeue,Helvetica Neue" font-size="50.0" fill="#727272" transform="matrix(1.00, 0.00, -0.00, -1.00, 500.3, 437.9)">l</text><text xml:space="preserve" font-family="HelveticaNeue,Helvetica Neue" font-size="50.0" fill="#727272" transform="matrix(1.00, 0.00, -0.00, -1.00, 511.4, 437.9)">e</text><text xml:space="preserve" font-family="HelveticaNeue,Helvetica Neue" font-size="50.0" fill="#727272" transform="matrix(1.00, 0.00, -0.00, -1.00, 538.2, 437.9)">r</text><text xml:space="preserve" font-family="HelveticaNeue,Helvetica Neue" font-size="50.0" fill="#727272" transform="matrix(1.00, 0.00, -0.00, -1.00, 554.9, 437.9)">s</text><text xml:space="preserve" font-family="HelveticaNeue,Helvetica Neue" font-size="50.0" fill="#727272" transform="matrix(1.00, 0.00, -0.00, -1.00, 579.9, 437.9)"> </text><text xml:space="preserve" font-family="HelveticaNeue,Helvetica Neue" font-size="50.0" fill="#727272" transform="matrix(1.00, 0.00, -0.00, -1.00, 593.8, 437.9)">o</text><text xml:space="preserve" font-family="HelveticaNeue,Helvetica Neue" font-size="50.0" fill="#727272" transform="matrix(1.00, 0.00, -0.00, -1.00, 622.5, 437.9)">f</text><text xml:space="preserve" font-family="HelveticaNeue,Helvetica Neue" font-size="50.0" fill="#727272" transform="matrix(1.00, 0.00, -0.00, -1.00, 637.3, 437.9)"> </text><text xml:space="preserve" font-family="HelveticaNeue,Helvetica Neue" font-size="50.0" fill="#727272" transform="matrix(1.00, 0.00, -0.00, -1.00, 651.2, 437.9)">C</text><text xml:space="preserve" font-family="HelveticaNeue,Helvetica Neue" font-size="50.0" fill="#727272" transform="matrix(1.00, 0.00, -0.00, -1.00, 687.3, 437.9)">a</text><text xml:space="preserve" font-family="HelveticaNeue,Helvetica Neue" font-size="50.0" fill="#727272" transform="matrix(1.00, 0.00, -0.00, -1.00, 714.1, 437.9)">t</text><text xml:space="preserve" font-family="HelveticaNeue,Helvetica Neue" font-size="50.0" fill="#727272" transform="matrix(1.00, 0.00, -0.00, -1.00, 729.9, 437.9)">a</text><text xml:space="preserve" font-family="HelveticaNeue,Helvetica Neue" font-size="50.0" fill="#727272" transform="matrix(1.00, 0.00, -0.00, -1.00, 756.7, 437.9)">n</text><text xml:space="preserve" font-family="HelveticaNeue,Helvetica Neue" font-size="50.0" fill="#727272" transform="matrix(1.00, 0.00, -0.00, -1.00, 784.5, 437.9)">
</text><g><clipPath id="clip0x7fad42aca680"><path d="M 360.9 351.7 L 384.2 351.7 L 384.2 375.0 L 360.9 375.0 Z M 360.9 351.7 "></path></clipPath><g clip-path="url(#clip0x7fad42aca680)"><path d="M 371.5 373.8 L 371.5 367.6 L 368.4 372.9 L 366.4 371.8 L 369.5 366.4 L 364.1 369.5 L 362.9 367.5 L 368.3 364.4 L 362.1 364.4 L 362.1 362.1 L 368.3 362.1 L 362.9 359.0 L 364.1 356.9 L 369.5 360.0 L 366.4 354.7 L 368.4 353.5 L 371.5 358.9 L 371.5 352.7 L 373.8 352.7 L 373.8 358.9 L 376.9 353.5 L 379.0 354.7 L 375.9 360.0 L 381.2 356.9 L 382.4 359.0 L 377.0 362.1 L 383.2 362.1 L 383.2 364.4 L 377.0 364.4 L 382.4 367.5 L 381.2 369.5 L 375.9 366.4 L 379.0 371.8 L 376.9 373.0 L 373.8 367.6 L 373.8 373.8 Z M 371.5 373.8 " fill="#497493"></path></g></g><text xml:space="preserve" font-family="HelveticaNeue,Helvetica Neue" font-size="50.0" fill="#727272" transform="matrix(1.00, 0.00, -0.00, -1.00, 409.5, 345.9)">A</text><text xml:space="preserve" font-family="HelveticaNeue,Helvetica Neue" font-size="50.0" fill="#727272" transform="matrix(1.00, 0.00, -0.00, -1.00, 441.9, 345.9)">p</text><text xml:space="preserve" font-family="HelveticaNeue,Helvetica Neue" font-size="50.0" fill="#727272" transform="matrix(1.00, 0.00, -0.00, -1.00, 471.6, 345.9)">a</text><text xml:space="preserve" font-family="HelveticaNeue,Helvetica Neue" font-size="50.0" fill="#727272" transform="matrix(1.00, 0.00, -0.00, -1.00, 498.4, 345.9)">c</text><text xml:space="preserve" font-family="HelveticaNeue,Helvetica Neue" font-size="50.0" fill="#727272" transform="matrix(1.00, 0.00, -0.00, -1.00, 525.3, 345.9)">h</text><text xml:space="preserve" font-family="HelveticaNeue,Helvetica Neue" font-size="50.0" fill="#727272" transform="matrix(1.00, 0.00, -0.00, -1.00, 553.1, 345.9)">e</text><text xml:space="preserve" font-family="HelveticaNeue,Helvetica Neue" font-size="50.0" fill="#727272" transform="matrix(1.00, 0.00, -0.00, -1.00, 579.9, 345.9)">:</text><text xml:space="preserve" font-family="HelveticaNeue,Helvetica Neue" font-size="50.0" fill="#727272" transform="matrix(1.00, 0.00, -0.00, -1.00, 593.8, 345.9)"> </text><text xml:space="preserve" font-family="HelveticaNeue,Helvetica Neue" font-size="50.0" fill="#727272" transform="matrix(1.00, 0.00, -0.00, -1.00, 607.7, 345.9)">S</text><text xml:space="preserve" font-family="HelveticaNeue,Helvetica Neue" font-size="50.0" fill="#727272" transform="matrix(1.00, 0.00, -0.00, -1.00, 640.1, 345.9)">p</text><text xml:space="preserve" font-family="HelveticaNeue,Helvetica Neue" font-size="50.0" fill="#727272" transform="matrix(1.00, 0.00, -0.00, -1.00, 669.8, 345.9)">a</text><text xml:space="preserve" font-family="HelveticaNeue,Helvetica Neue" font-size="50.0" fill="#727272" transform="matrix(1.00, 0.00, -0.00, -1.00, 696.6, 345.9)">r</text><text xml:space="preserve" font-family="HelveticaNeue,Helvetica Neue" font-size="50.0" fill="#727272" transform="matrix(1.00, 0.00, -0.00, -1.00, 713.3, 345.9)">k</text><text xml:space="preserve" font-family="HelveticaNeue,Helvetica Neue" font-size="50.0" fill="#727272" transform="matrix(1.00, 0.00, -0.00, -1.00, 739.2, 345.9)">,</text><text xml:space="preserve" font-family="HelveticaNeue,Helvetica Neue" font-size="50.0" fill="#727272" transform="matrix(1.00, 0.00, -0.00, -1.00, 753.1, 345.9)"> </text><text xml:space="preserve" font-family="HelveticaNeue,Helvetica Neue" font-size="50.0" fill="#727272" transform="matrix(1.00, 0.00, -0.00, -1.00, 767.0, 345.9)">A</text><text xml:space="preserve" font-family="HelveticaNeue,Helvetica Neue" font-size="50.0" fill="#727272" transform="matrix(1.00, 0.00, -0.00, -1.00, 798.5, 345.9)">v</text><text xml:space="preserve" font-family="HelveticaNeue,Helvetica Neue" font-size="50.0" fill="#727272" transform="matrix(1.00, 0.00, -0.00, -1.00, 823.5, 345.9)">r</text><text xml:space="preserve" font-family="HelveticaNeue,Helvetica Neue" font-size="50.0" fill="#727272" transform="matrix(1.00, 0.00, -0.00, -1.00, 839.3, 345.9)">o</text><text xml:space="preserve" font-family="HelveticaNeue,Helvetica Neue" font-size="50.0" fill="#727272" transform="matrix(1.00, 0.00, -0.00, -1.00, 868.0, 345.9)">,</text><text xml:space="preserve" font-family="HelveticaNeue,Helvetica Neue" font-size="50.0" fill="#727272" transform="matrix(1.00, 0.00, -0.00, -1.00, 881.9, 345.9)"> </text><text xml:space="preserve" font-family="HelveticaNeue,Helvetica Neue" font-size="50.0" fill="#727272" transform="matrix(1.00, 0.00, -0.00, -1.00, 895.8, 345.9)">K</text><text xml:space="preserve" font-family="HelveticaNeue,Helvetica Neue" font-size="50.0" fill="#727272" transform="matrix(1.00, 0.00, -0.00, -1.00, 929.1, 345.9)">a</text><text xml:space="preserve" font-family="HelveticaNeue,Helvetica Neue" font-size="50.0" fill="#727272" transform="matrix(1.00, 0.00, -0.00, -1.00, 956.0, 345.9)">f</text><text xml:space="preserve" font-family="HelveticaNeue,Helvetica Neue" font-size="50.0" fill="#727272" transform="matrix(1.00, 0.00, -0.00, -1.00, 970.8, 345.9)">k</text><text xml:space="preserve" font-family="HelveticaNeue,Helvetica Neue" font-size="50.0" fill="#727272" transform="matrix(1.00, 0.00, -0.00, -1.00, 996.7, 345.9)">a</text><text xml:space="preserve" font-family="HelveticaNeue,Helvetica Neue" font-size="50.0" fill="#727272" transform="matrix(1.00, 0.00, -0.00, -1.00, 1023.6, 345.9)">
</text><g><clipPath id="clip0x7fad42ad6480"><path d="M 360.9 259.7 L 384.2 259.7 L 384.2 283.0 L 360.9 283.0 Z M 360.9 259.7 "></path></clipPath><g clip-path="url(#clip0x7fad42ad6480)"><path d="M 371.5 281.8 L 371.5 275.6 L 368.4 280.9 L 366.4 279.8 L 369.5 274.4 L 364.1 277.5 L 362.9 275.5 L 368.3 272.4 L 362.1 272.4 L 362.1 270.1 L 368.3 270.1 L 362.9 267.0 L 364.1 264.9 L 369.5 268.0 L 366.4 262.7 L 368.4 261.5 L 371.5 266.9 L 371.5 260.7 L 373.8 260.7 L 373.8 266.9 L 376.9 261.5 L 379.0 262.7 L 375.9 268.0 L 381.2 264.9 L 382.4 267.0 L 377.0 270.1 L 383.2 270.1 L 383.2 272.4 L 377.0 272.4 L 382.4 275.5 L 381.2 277.5 L 375.9 274.4 L 379.0 279.8 L 376.9 281.0 L 373.8 275.6 L 373.8 281.8 Z M 371.5 281.8 " fill="#497493"></path></g></g><text xml:space="preserve" font-family="HelveticaNeue,Helvetica Neue" font-size="50.0" fill="#727272" transform="matrix(1.00, 0.00, -0.00, -1.00, 409.5, 253.9)">P</text><text xml:space="preserve" font-family="HelveticaNeue,Helvetica Neue" font-size="50.0" fill="#727272" transform="matrix(1.00, 0.00, -0.00, -1.00, 441.9, 253.9)">y</text><text xml:space="preserve" font-family="HelveticaNeue,Helvetica Neue" font-size="50.0" fill="#727272" transform="matrix(1.00, 0.00, -0.00, -1.00, 466.9, 253.9)">t</text><text xml:space="preserve" font-family="HelveticaNeue,Helvetica Neue" font-size="50.0" fill="#727272" transform="matrix(1.00, 0.00, -0.00, -1.00, 482.7, 253.9)">h</text><text xml:space="preserve" font-family="HelveticaNeue,Helvetica Neue" font-size="50.0" fill="#727272" transform="matrix(1.00, 0.00, -0.00, -1.00, 510.5, 253.9)">o</text><text xml:space="preserve" font-family="HelveticaNeue,Helvetica Neue" font-size="50.0" fill="#727272" transform="matrix(1.00, 0.00, -0.00, -1.00, 539.2, 253.9)">n</text><text xml:space="preserve" font-family="HelveticaNeue,Helvetica Neue" font-size="50.0" fill="#727272" transform="matrix(1.00, 0.00, -0.00, -1.00, 567.0, 253.9)">,</text><text xml:space="preserve" font-family="HelveticaNeue,Helvetica Neue" font-size="50.0" fill="#727272" transform="matrix(1.00, 0.00, -0.00, -1.00, 580.9, 253.9)"> </text><text xml:space="preserve" font-family="HelveticaNeue,Helvetica Neue" font-size="50.0" fill="#727272" transform="matrix(1.00, 0.00, -0.00, -1.00, 594.8, 253.9)">r</text><text xml:space="preserve" font-family="HelveticaNeue,Helvetica Neue" font-size="50.0" fill="#727272" transform="matrix(1.00, 0.00, -0.00, -1.00, 610.5, 253.9)">e</text><text xml:space="preserve" font-family="HelveticaNeue,Helvetica Neue" font-size="50.0" fill="#727272" transform="matrix(1.00, 0.00, -0.00, -1.00, 637.4, 253.9)">t</text><text xml:space="preserve" font-family="HelveticaNeue,Helvetica Neue" font-size="50.0" fill="#727272" transform="matrix(1.00, 0.00, -0.00, -1.00, 653.1, 253.9)">h</text><text xml:space="preserve" font-family="HelveticaNeue,Helvetica Neue" font-size="50.0" fill="#727272" transform="matrix(1.00, 0.00, -0.00, -1.00, 680.9, 253.9)">i</text><text xml:space="preserve" font-family="HelveticaNeue,Helvetica Neue" font-size="50.0" fill="#727272" transform="matrix(1.00, 0.00, -0.00, -1.00, 692.0, 253.9)">n</text><text xml:space="preserve" font-family="HelveticaNeue,Helvetica Neue" font-size="50.0" fill="#727272" transform="matrix(1.00, 0.00, -0.00, -1.00, 719.8, 253.9)">k</text><text xml:space="preserve" font-family="HelveticaNeue,Helvetica Neue" font-size="50.0" fill="#727272" transform="matrix(1.00, 0.00, -0.00, -1.00, 745.8, 253.9)">D</text><text xml:space="preserve" font-family="HelveticaNeue,Helvetica Neue" font-size="50.0" fill="#727272" transform="matrix(1.00, 0.00, -0.00, -1.00, 781.0, 253.9)">B</text><text xml:space="preserve" font-family="HelveticaNeue,Helvetica Neue" font-size="50.0" fill="#727272" transform="matrix(1.00, 0.00, -0.00, -1.00, 815.2, 253.9)">,</text><text xml:space="preserve" font-family="HelveticaNeue,Helvetica Neue" font-size="50.0" fill="#727272" transform="matrix(1.00, 0.00, -0.00, -1.00, 829.1, 253.9)"> </text><text xml:space="preserve" font-family="HelveticaNeue,Helvetica Neue" font-size="50.0" fill="#727272" transform="matrix(1.00, 0.00, -0.00, -1.00, 843.0, 253.9)">ﬂ</text><text xml:space="preserve" font-family="HelveticaNeue,Helvetica Neue" font-size="50.0" fill="#727272" transform="matrix(1.00, 0.00, -0.00, -1.00, 868.9, 253.9)">a</text><text xml:space="preserve" font-family="HelveticaNeue,Helvetica Neue" font-size="50.0" fill="#727272" transform="matrix(1.00, 0.00, -0.00, -1.00, 895.8, 253.9)">s</text><text xml:space="preserve" font-family="HelveticaNeue,Helvetica Neue" font-size="50.0" fill="#727272" transform="matrix(1.00, 0.00, -0.00, -1.00, 920.8, 253.9)">k</text></g></svg>