<?xml version="1.0" encoding="UTF-8" standalone="no"?><svg xmlns="http://www.w3.org/2000/svg" xmlns:xlink="http://www.w3.org/1999/xlink" clip-rule="evenodd" stroke-miterlimit="10" viewBox="0 0 1920 1080"><desc>SVG generated by Keynote</desc><defs></defs><g transform="matrix(1.00, 0.00, -0.00, -1.00, 0.0, 1080.0)"><g><clipPath id="clip0x7fad415900f0"><path d="M 0.0 1080.0 L 1920.0 1080.0 L 1920.0 0.0 L 0.0 0.0 Z M 0.0 1080.0 "></path></clipPath><g clip-path="url(#clip0x7fad415900f0)"><image xlink:href="../../D96BE7B2-ED93-443D-8026-784A345E870E/assets/0BF7C4DE38584FF55ABE8E2C53BD5CCD.jpeg" width="2048.00" height="1536.00" transform="matrix(0.94, 0.00, -0.00, -0.70, 0.0, 1080.0)"></image></g></g><path d="M 0.1 0.1 L 1378.1 0.1 L 1378.1 1021.1 L 0.1 1021.1 Z M 0.0 0.0 " fill="none" stroke="#83817C" stroke-width="2.00" transform="matrix(1.00, 0.00, 0.00, -1.00, 270.9, 1049.1)"></path><text xml:space="preserve" font-family="HelveticaNeue-Light,Helvetica Neue" font-size="100.0" fill="#558AAA" transform="matrix(1.00, 0.00, -0.00, -1.00, 360.9, 878.0)">I</text><text xml:space="preserve" font-family="HelveticaNeue-Light,Helvetica Neue" font-size="100.0" fill="#558AAA" transform="matrix(1.00, 0.00, -0.00, -1.00, 383.1, 878.0)">m</text><text xml:space="preserve" font-family="HelveticaNeue-Light,Helvetica Neue" font-size="100.0" fill="#558AAA" transform="matrix(1.00, 0.00, -0.00, -1.00, 466.4, 878.0)">a</text><text xml:space="preserve" font-family="HelveticaNeue-Light,Helvetica Neue" font-size="100.0" fill="#558AAA" transform="matrix(1.00, 0.00, -0.00, -1.00, 518.3, 878.0)">g</text><text xml:space="preserve" font-family="HelveticaNeue-Light,Helvetica Neue" font-size="100.0" fill="#558AAA" transform="matrix(1.00, 0.00, -0.00, -1.00, 573.9, 878.0)">e</text><text xml:space="preserve" font-family="HelveticaNeue-Light,Helvetica Neue" font-size="100.0" fill="#558AAA" transform="matrix(1.00, 0.00, -0.00, -1.00, 625.8, 878.0)"> </text><text xml:space="preserve" font-family="HelveticaNeue-Light,Helvetica Neue" font-size="100.0" fill="#558AAA" transform="matrix(1.00, 0.00, -0.00, -1.00, 653.6, 878.0)">c</text><text xml:space="preserve" font-family="HelveticaNeue-Light,Helvetica Neue" font-size="100.0" fill="#558AAA" transform="matrix(1.00, 0.00, -0.00, -1.00, 705.5, 878.0)">r</text><text xml:space="preserve" font-family="HelveticaNeue-Light,Helvetica Neue" font-size="100.0" fill="#558AAA" transform="matrix(1.00, 0.00, -0.00, -1.00, 735.2, 878.0)">e</text><text xml:space="preserve" font-family="HelveticaNeue-Light,Helvetica Neue" font-size="100.0" fill="#558AAA" transform="matrix(1.00, 0.00, -0.00, -1.00, 787.1, 878.0)">d</text><text xml:space="preserve" font-family="HelveticaNeue-Light,Helvetica Neue" font-size="100.0" fill="#558AAA" transform="matrix(1.00, 0.00, -0.00, -1.00, 844.5, 878.0)">i</text><text xml:space="preserve" font-family="HelveticaNeue-Light,Helvetica Neue" font-size="100.0" fill="#558AAA" transform="matrix(1.00, 0.00, -0.00, -1.00, 863.0, 878.0)">t</text><text xml:space="preserve" font-family="HelveticaNeue-Light,Helvetica Neue" font-size="100.0" fill="#558AAA" transform="matrix(1.00, 0.00, -0.00, -1.00, 892.6, 878.0)">s</text><g><clipPath id="clip0x7fad41596b50"><path d="M 360.9 443.7 L 384.2 443.7 L 384.2 467.0 L 360.9 467.0 Z M 360.9 443.7 "></path></clipPath><g clip-path="url(#clip0x7fad41596b50)"><path d="M 371.5 465.8 L 371.5 459.6 L 368.4 464.9 L 366.4 463.8 L 369.5 458.4 L 364.1 461.5 L 362.9 459.5 L 368.3 456.4 L 362.1 456.4 L 362.1 454.1 L 368.3 454.1 L 362.9 451.0 L 364.1 448.9 L 369.5 452.0 L 366.4 446.7 L 368.4 445.5 L 371.5 450.9 L 371.5 444.7 L 373.8 444.7 L 373.8 450.9 L 376.9 445.5 L 379.0 446.7 L 375.9 452.0 L 381.2 448.9 L 382.4 451.0 L 377.0 454.1 L 383.2 454.1 L 383.2 456.4 L 377.0 456.4 L 382.4 459.5 L 381.2 461.5 L 375.9 458.4 L 379.0 463.8 L 376.9 465.0 L 373.8 459.6 L 373.8 465.8 Z M 371.5 465.8 " fill="#497493"></path></g></g><text xml:space="preserve" font-family="HelveticaNeue,Helvetica Neue" font-size="50.0" fill="#727272" transform="matrix(1.00, 0.00, -0.00, -1.00, 409.5, 437.9)">D</text><text xml:space="preserve" font-family="HelveticaNeue,Helvetica Neue" font-size="50.0" fill="#727272" transform="matrix(1.00, 0.00, -0.00, -1.00, 444.7, 437.9)">i</text><text xml:space="preserve" font-family="HelveticaNeue,Helvetica Neue" font-size="50.0" fill="#727272" transform="matrix(1.00, 0.00, -0.00, -1.00, 455.8, 437.9)">s</text><text xml:space="preserve" font-family="HelveticaNeue,Helvetica Neue" font-size="50.0" fill="#727272" transform="matrix(1.00, 0.00, -0.00, -1.00, 480.8, 437.9)">n</text><text xml:space="preserve" font-family="HelveticaNeue,Helvetica Neue" font-size="50.0" fill="#727272" transform="matrix(1.00, 0.00, -0.00, -1.00, 508.6, 437.9)">e</text><text xml:space="preserve" font-family="HelveticaNeue,Helvetica Neue" font-size="50.0" fill="#727272" transform="matrix(1.00, 0.00, -0.00, -1.00, 535.5, 437.9)">y</text><text xml:space="preserve" font-family="HelveticaNeue,Helvetica Neue" font-size="50.0" fill="#727272" transform="matrix(1.00, 0.00, -0.00, -1.00, 556.8, 437.9)">,</text><text xml:space="preserve" font-family="HelveticaNeue,Helvetica Neue" font-size="50.0" fill="#727272" transform="matrix(1.00, 0.00, -0.00, -1.00, 570.7, 437.9)"> </text><text xml:space="preserve" font-family="HelveticaNeue,Helvetica Neue" font-size="50.0" fill="#727272" transform="matrix(1.00, 0.00, -0.00, -1.00, 584.6, 437.9)">S</text><text xml:space="preserve" font-family="HelveticaNeue,Helvetica Neue" font-size="50.0" fill="#727272" transform="matrix(1.00, 0.00, -0.00, -1.00, 617.0, 437.9)">t</text><text xml:space="preserve" font-family="HelveticaNeue,Helvetica Neue" font-size="50.0" fill="#727272" transform="matrix(1.00, 0.00, -0.00, -1.00, 632.7, 437.9)">a</text><text xml:space="preserve" font-family="HelveticaNeue,Helvetica Neue" font-size="50.0" fill="#727272" transform="matrix(1.00, 0.00, -0.00, -1.00, 659.6, 437.9)">r</text><text xml:space="preserve" font-family="HelveticaNeue,Helvetica Neue" font-size="50.0" fill="#727272" transform="matrix(1.00, 0.00, -0.00, -1.00, 676.2, 437.9)"> </text><text xml:space="preserve" font-family="HelveticaNeue,Helvetica Neue" font-size="50.0" fill="#727272" transform="matrix(1.00, 0.00, -0.00, -1.00, 690.1, 437.9)">W</text><text xml:space="preserve" font-family="HelveticaNeue,Helvetica Neue" font-size="50.0" fill="#727272" transform="matrix(1.00, 0.00, -0.00, -1.00, 734.6, 437.9)">a</text><text xml:space="preserve" font-family="HelveticaNeue,Helvetica Neue" font-size="50.0" fill="#727272" transform="matrix(1.00, 0.00, -0.00, -1.00, 761.4, 437.9)">r</text><text xml:space="preserve" font-family="HelveticaNeue,Helvetica Neue" font-size="50.0" fill="#727272" transform="matrix(1.00, 0.00, -0.00, -1.00, 778.1, 437.9)">s</text></g></svg>