<?xml version="1.0" encoding="UTF-8" standalone="no"?><svg xmlns="http://www.w3.org/2000/svg" xmlns:xlink="http://www.w3.org/1999/xlink" clip-rule="evenodd" stroke-miterlimit="10" viewBox="0 0 1920 1080"><desc>SVG generated by Keynote</desc><defs></defs><g transform="matrix(1.00, 0.00, -0.00, -1.00, 0.0, 1080.0)"><g><clipPath id="clip0x7fad41591ad0"><path d="M 0.0 1080.0 L 1920.0 1080.0 L 1920.0 0.0 L 0.0 0.0 Z M 0.0 1080.0 "></path></clipPath><g clip-path="url(#clip0x7fad41591ad0)"><image xlink:href="../../D96BE7B2-ED93-443D-8026-784A345E870E/assets/0BF7C4DE38584FF55ABE8E2C53BD5CCD.jpeg" width="2048.00" height="1536.00" transform="matrix(0.94, 0.00, -0.00, -0.70, 0.0, 1080.0)"></image></g></g><path d="M 0.1 0.1 L 1378.1 0.1 L 1378.1 1021.1 L 0.1 1021.1 Z M 0.0 0.0 " fill="none" stroke="#83817C" stroke-width="2.00" transform="matrix(1.00, 0.00, 0.00, -1.00, 270.9, 1049.1)"></path><image xlink:href="../../8D887403-EEF9-4CD4-8889-D25076ADA32A/assets/4F9E2756828E7730DC2DD9B938927AC8.png" width="320.00" height="218.00" transform="matrix(1.19, 0.00, -0.00, -1.19, 1243.0, 709.0)"></image><image xlink:href="../../8D887403-EEF9-4CD4-8889-D25076ADA32A/assets/89A50B4606997EFAAE780B5B457B0E7D.png" width="600.00" height="600.00" transform="matrix(0.39, 0.00, -0.00, -0.39, 298.0, 689.0)"></image><text xml:space="preserve" font-family="HelveticaNeue-Light,Helvetica Neue" font-size="100.0" fill="#558AAA" transform="matrix(1.00, 0.00, -0.00, -1.00, 405.0, 84.6)">C</text><text xml:space="preserve" font-family="HelveticaNeue-Light,Helvetica Neue" font-size="100.0" fill="#558AAA" transform="matrix(1.00, 0.00, -0.00, -1.00, 475.4, 84.6)">o</text><text xml:space="preserve" font-family="HelveticaNeue-Light,Helvetica Neue" font-size="100.0" fill="#558AAA" transform="matrix(1.00, 0.00, -0.00, -1.00, 531.0, 84.6)">n</text><text xml:space="preserve" font-family="HelveticaNeue-Light,Helvetica Neue" font-size="100.0" fill="#558AAA" transform="matrix(1.00, 0.00, -0.00, -1.00, 584.7, 84.6)">s</text><text xml:space="preserve" font-family="HelveticaNeue-Light,Helvetica Neue" font-size="100.0" fill="#558AAA" transform="matrix(1.00, 0.00, -0.00, -1.00, 632.8, 84.6)">u</text><text xml:space="preserve" font-family="HelveticaNeue-Light,Helvetica Neue" font-size="100.0" fill="#558AAA" transform="matrix(1.00, 0.00, -0.00, -1.00, 686.5, 84.6)">m</text><text xml:space="preserve" font-family="HelveticaNeue-Light,Helvetica Neue" font-size="100.0" fill="#558AAA" transform="matrix(1.00, 0.00, -0.00, -1.00, 769.8, 84.6)">e</text><text xml:space="preserve" font-family="HelveticaNeue-Light,Helvetica Neue" font-size="100.0" fill="#558AAA" transform="matrix(1.00, 0.00, -0.00, -1.00, 821.7, 84.6)">r</text><text xml:space="preserve" font-family="HelveticaNeue-Light,Helvetica Neue" font-size="100.0" fill="#558AAA" transform="matrix(1.00, 0.00, -0.00, -1.00, 853.2, 84.6)"> </text><text xml:space="preserve" font-family="HelveticaNeue-Light,Helvetica Neue" font-size="100.0" fill="#558AAA" transform="matrix(1.00, 0.00, -0.00, -1.00, 881.0, 84.6)">D</text><text xml:space="preserve" font-family="HelveticaNeue-Light,Helvetica Neue" font-size="100.0" fill="#558AAA" transform="matrix(1.00, 0.00, -0.00, -1.00, 949.5, 84.6)">e</text><text xml:space="preserve" font-family="HelveticaNeue-Light,Helvetica Neue" font-size="100.0" fill="#558AAA" transform="matrix(1.00, 0.00, -0.00, -1.00, 1001.4, 84.6)">s</text><text xml:space="preserve" font-family="HelveticaNeue-Light,Helvetica Neue" font-size="100.0" fill="#558AAA" transform="matrix(1.00, 0.00, -0.00, -1.00, 1049.5, 84.6)">e</text><text xml:space="preserve" font-family="HelveticaNeue-Light,Helvetica Neue" font-size="100.0" fill="#558AAA" transform="matrix(1.00, 0.00, -0.00, -1.00, 1101.4, 84.6)">r</text><text xml:space="preserve" font-family="HelveticaNeue-Light,Helvetica Neue" font-size="100.0" fill="#558AAA" transform="matrix(1.00, 0.00, -0.00, -1.00, 1132.9, 84.6)">i</text><text xml:space="preserve" font-family="HelveticaNeue-Light,Helvetica Neue" font-size="100.0" fill="#558AAA" transform="matrix(1.00, 0.00, -0.00, -1.00, 1151.4, 84.6)">a</text><text xml:space="preserve" font-family="HelveticaNeue-Light,Helvetica Neue" font-size="100.0" fill="#558AAA" transform="matrix(1.00, 0.00, -0.00, -1.00, 1203.3, 84.6)">l</text><text xml:space="preserve" font-family="HelveticaNeue-Light,Helvetica Neue" font-size="100.0" fill="#558AAA" transform="matrix(1.00, 0.00, -0.00, -1.00, 1221.8, 84.6)">i</text><text xml:space="preserve" font-family="HelveticaNeue-Light,Helvetica Neue" font-size="100.0" fill="#558AAA" transform="matrix(1.00, 0.00, -0.00, -1.00, 1240.3, 84.6)">z</text><text xml:space="preserve" font-family="HelveticaNeue-Light,Helvetica Neue" font-size="100.0" fill="#558AAA" transform="matrix(1.00, 0.00, -0.00, -1.00, 1286.6, 84.6)">a</text><text xml:space="preserve" font-family="HelveticaNeue-Light,Helvetica Neue" font-size="100.0" fill="#558AAA" transform="matrix(1.00, 0.00, -0.00, -1.00, 1338.5, 84.6)">t</text><text xml:space="preserve" font-family="HelveticaNeue-Light,Helvetica Neue" font-size="100.0" fill="#558AAA" transform="matrix(1.00, 0.00, -0.00, -1.00, 1368.1, 84.6)">i</text><text xml:space="preserve" font-family="HelveticaNeue-Light,Helvetica Neue" font-size="100.0" fill="#558AAA" transform="matrix(1.00, 0.00, -0.00, -1.00, 1386.6, 84.6)">o</text><text xml:space="preserve" font-family="HelveticaNeue-Light,Helvetica Neue" font-size="100.0" fill="#558AAA" transform="matrix(1.00, 0.00, -0.00, -1.00, 1442.2, 84.6)">n</text><image xlink:href="../../D96BE7B2-ED93-443D-8026-784A345E870E/assets/931714F196A50ACB6BA2A47480109345.png" width="680.00" height="224.00" transform="matrix(0.87, 0.00, -0.00, -0.88, 664.0, 397.0)"></image><g><clipPath id="clip0x7fad415a0140"><path d="M 1344.7 347.2 L 1361.5 321.4 L 1390.4 394.3 L 1312.1 397.2 L 1328.9 371.5 L 1168.8 267.0 L 1184.6 242.8 Z M 1344.7 347.2 "></path></clipPath><g clip-path="url(#clip0x7fad415a0140)"><image xlink:href="../../268AA437-0E3B-4ECB-BC0C-3BAEB21897EF/assets/AE67849DE1D28B5C07DBB1B2E44FE0A6.png" width="576.00" height="576.00" transform="matrix(0.42, 0.27, 0.27, -0.42, 1152.0, 292.8)"></image></g></g><image xlink:href="../../D96BE7B2-ED93-443D-8026-784A345E870E/assets/7F26C4B6FE54BA208550D028796B669E.png" width="690.00" height="330.00" transform="matrix(0.63, 0.00, -0.00, -0.63, 744.0, 976.0)"></image><g><clipPath id="clip0x7fad415a14a0"><path d="M 621.8 299.9 L 603.5 275.2 L 681.8 273.3 L 657.4 347.8 L 639.1 323.1 L 485.6 437.1 L 468.4 413.8 Z M 621.8 299.9 "></path></clipPath><g clip-path="url(#clip0x7fad415a14a0)"><image xlink:href="../../268AA437-0E3B-4ECB-BC0C-3BAEB21897EF/assets/AE67849DE1D28B5C07DBB1B2E44FE0A6.png" width="576.00" height="576.00" transform="matrix(0.40, -0.30, -0.30, -0.40, 504.0, 461.8)"></image></g></g><g><clipPath id="clip0x7fad416bbc30"><path d="M 638.8 821.5 L 657.5 797.0 L 680.9 871.8 L 602.6 869.0 L 621.3 844.5 L 469.3 728.5 L 486.9 705.5 Z M 638.8 821.5 "></path></clipPath><g clip-path="url(#clip0x7fad416bbc30)"><image xlink:href="../../268AA437-0E3B-4ECB-BC0C-3BAEB21897EF/assets/AE67849DE1D28B5C07DBB1B2E44FE0A6.png" width="576.00" height="576.00" transform="matrix(0.40, 0.30, 0.30, -0.40, 450.6, 753.0)"></image></g></g><g><clipPath id="clip0x7fad416bc930"><path d="M 1352.3 734.7 L 1332.8 710.9 L 1411.0 705.5 L 1390.0 781.0 L 1370.6 757.2 L 1222.4 877.9 L 1204.1 855.5 Z M 1352.3 734.7 "></path></clipPath><g clip-path="url(#clip0x7fad416bc930)"><image xlink:href="../../268AA437-0E3B-4ECB-BC0C-3BAEB21897EF/assets/AE67849DE1D28B5C07DBB1B2E44FE0A6.png" width="576.00" height="576.00" transform="matrix(0.39, -0.32, -0.32, -0.39, 1241.8, 901.8)"></image></g></g><text xml:space="preserve" font-family="HelveticaNeue-Light,Helvetica Neue" font-size="36.0" fill="#558AAA" transform="matrix(1.00, 0.00, -0.00, -1.00, 1224.0, 447.5)">A</text><text xml:space="preserve" font-family="HelveticaNeue-Light,Helvetica Neue" font-size="36.0" fill="#558AAA" transform="matrix(1.00, 0.00, -0.00, -1.00, 1246.7, 447.5)">g</text><text xml:space="preserve" font-family="HelveticaNeue-Light,Helvetica Neue" font-size="36.0" fill="#558AAA" transform="matrix(1.00, 0.00, -0.00, -1.00, 1266.7, 447.5)">g</text><text xml:space="preserve" font-family="HelveticaNeue-Light,Helvetica Neue" font-size="36.0" fill="#558AAA" transform="matrix(1.00, 0.00, -0.00, -1.00, 1286.7, 447.5)">r</text><text xml:space="preserve" font-family="HelveticaNeue-Light,Helvetica Neue" font-size="36.0" fill="#558AAA" transform="matrix(1.00, 0.00, -0.00, -1.00, 1297.4, 447.5)">e</text><text xml:space="preserve" font-family="HelveticaNeue-Light,Helvetica Neue" font-size="36.0" fill="#558AAA" transform="matrix(1.00, 0.00, -0.00, -1.00, 1316.1, 447.5)">g</text><text xml:space="preserve" font-family="HelveticaNeue-Light,Helvetica Neue" font-size="36.0" fill="#558AAA" transform="matrix(1.00, 0.00, -0.00, -1.00, 1336.1, 447.5)">a</text><text xml:space="preserve" font-family="HelveticaNeue-Light,Helvetica Neue" font-size="36.0" fill="#558AAA" transform="matrix(1.00, 0.00, -0.00, -1.00, 1354.8, 447.5)">t</text><text xml:space="preserve" font-family="HelveticaNeue-Light,Helvetica Neue" font-size="36.0" fill="#558AAA" transform="matrix(1.00, 0.00, -0.00, -1.00, 1365.5, 447.5)">i</text><text xml:space="preserve" font-family="HelveticaNeue-Light,Helvetica Neue" font-size="36.0" fill="#558AAA" transform="matrix(1.00, 0.00, -0.00, -1.00, 1372.1, 447.5)">o</text><text xml:space="preserve" font-family="HelveticaNeue-Light,Helvetica Neue" font-size="36.0" fill="#558AAA" transform="matrix(1.00, 0.00, -0.00, -1.00, 1392.1, 447.5)">n</text><text xml:space="preserve" font-family="HelveticaNeue-Light,Helvetica Neue" font-size="36.0" fill="#558AAA" transform="matrix(1.00, 0.00, -0.00, -1.00, 1411.5, 447.5)"> </text><text xml:space="preserve" font-family="HelveticaNeue-Light,Helvetica Neue" font-size="36.0" fill="#558AAA" transform="matrix(1.00, 0.00, -0.00, -1.00, 1421.5, 447.5)">P</text><text xml:space="preserve" font-family="HelveticaNeue-Light,Helvetica Neue" font-size="36.0" fill="#558AAA" transform="matrix(1.00, 0.00, -0.00, -1.00, 1444.2, 447.5)">r</text><text xml:space="preserve" font-family="HelveticaNeue-Light,Helvetica Neue" font-size="36.0" fill="#558AAA" transform="matrix(1.00, 0.00, -0.00, -1.00, 1454.8, 447.5)">o</text><text xml:space="preserve" font-family="HelveticaNeue-Light,Helvetica Neue" font-size="36.0" fill="#558AAA" transform="matrix(1.00, 0.00, -0.00, -1.00, 1474.9, 447.5)">c</text><text xml:space="preserve" font-family="HelveticaNeue-Light,Helvetica Neue" font-size="36.0" fill="#558AAA" transform="matrix(1.00, 0.00, -0.00, -1.00, 1493.5, 447.5)">e</text><text xml:space="preserve" font-family="HelveticaNeue-Light,Helvetica Neue" font-size="36.0" fill="#558AAA" transform="matrix(1.00, 0.00, -0.00, -1.00, 1512.2, 447.5)">s</text><text xml:space="preserve" font-family="HelveticaNeue-Light,Helvetica Neue" font-size="36.0" fill="#558AAA" transform="matrix(1.00, 0.00, -0.00, -1.00, 1529.5, 447.5)">s</text><text xml:space="preserve" font-family="HelveticaNeue-Light,Helvetica Neue" font-size="36.0" fill="#558AAA" transform="matrix(1.00, 0.00, -0.00, -1.00, 1546.9, 447.5)">i</text><text xml:space="preserve" font-family="HelveticaNeue-Light,Helvetica Neue" font-size="36.0" fill="#558AAA" transform="matrix(1.00, 0.00, -0.00, -1.00, 1553.5, 447.5)">n</text><text xml:space="preserve" font-family="HelveticaNeue-Light,Helvetica Neue" font-size="36.0" fill="#558AAA" transform="matrix(1.00, 0.00, -0.00, -1.00, 1572.9, 447.5)">g</text><g><clipPath id="clip0x7fad416d2ea0"><path d="M 796.9 413.1 L 953.4 413.1 L 953.4 572.7 L 796.9 572.7 Z M 796.9 413.1 "></path></clipPath><g clip-path="url(#clip0x7fad416d2ea0)"><path d="M 130.1 22.8 C 159.9 53.2 159.9 102.4 130.1 132.8 C 100.4 163.2 52.1 163.2 22.3 132.8 C -7.4 102.4 -7.4 53.2 22.3 22.8 C 52.1 -7.6 100.4 -7.6 130.1 22.8 Z M 130.1 22.8 " fill="none" stroke="#83817C" stroke-width="2.00" transform="matrix(1.00, 0.00, 0.00, -1.00, 798.9, 570.7)"></path></g></g><g><clipPath id="clip0x7fad416d4110"><path d="M 798.9 415.1 L 951.4 415.1 L 951.4 570.7 L 798.9 570.7 Z M 798.9 415.1 "></path></clipPath><g clip-path="url(#clip0x7fad416d4110)"><text xml:space="preserve" font-family="HelveticaNeue,Helvetica Neue" font-size="44.0" fill="#727272" transform="matrix(1.00, 0.00, -0.00, -1.00, 844.2, 503.7)">m</text><text xml:space="preserve" font-family="HelveticaNeue,Helvetica Neue" font-size="44.0" fill="#727272" transform="matrix(1.00, 0.00, -0.00, -1.00, 881.7, 503.7)">4</text><text xml:space="preserve" font-family="HelveticaNeue,Helvetica Neue" font-size="44.0" fill="#727272" transform="matrix(1.00, 0.00, -0.00, -1.00, 906.2, 503.7)"> </text><text xml:space="preserve" font-family="HelveticaNeue,Helvetica Neue" font-size="44.0" fill="#727272" transform="matrix(1.00, 0.00, -0.00, -1.00, 827.3, 451.7)">l</text><text xml:space="preserve" font-family="HelveticaNeue,Helvetica Neue" font-size="44.0" fill="#727272" transform="matrix(1.00, 0.00, -0.00, -1.00, 837.1, 451.7)">a</text><text xml:space="preserve" font-family="HelveticaNeue,Helvetica Neue" font-size="44.0" fill="#727272" transform="matrix(1.00, 0.00, -0.00, -1.00, 860.7, 451.7)">r</text><text xml:space="preserve" font-family="HelveticaNeue,Helvetica Neue" font-size="44.0" fill="#727272" transform="matrix(1.00, 0.00, -0.00, -1.00, 874.1, 451.7)">g</text><text xml:space="preserve" font-family="HelveticaNeue,Helvetica Neue" font-size="44.0" fill="#727272" transform="matrix(1.00, 0.00, -0.00, -1.00, 899.4, 451.7)">e</text></g></g><g><clipPath id="clip0x7fad416d8f70"><path d="M 970.7 413.1 L 1127.1 413.1 L 1127.1 572.7 L 970.7 572.7 Z M 970.7 413.1 "></path></clipPath><g clip-path="url(#clip0x7fad416d8f70)"><path d="M 130.1 22.8 C 159.9 53.2 159.9 102.4 130.1 132.8 C 100.4 163.2 52.1 163.2 22.3 132.8 C -7.4 102.4 -7.4 53.2 22.3 22.8 C 52.1 -7.6 100.4 -7.6 130.1 22.8 Z M 130.1 22.8 " fill="none" stroke="#83817C" stroke-width="2.00" transform="matrix(1.00, 0.00, 0.00, -1.00, 972.7, 570.7)"></path></g></g><g><clipPath id="clip0x7fad416da1a0"><path d="M 972.7 415.1 L 1125.1 415.1 L 1125.1 570.7 L 972.7 570.7 Z M 972.7 415.1 "></path></clipPath><g clip-path="url(#clip0x7fad416da1a0)"><text xml:space="preserve" font-family="HelveticaNeue,Helvetica Neue" font-size="44.0" fill="#727272" transform="matrix(1.00, 0.00, -0.00, -1.00, 1017.9, 503.7)">m</text><text xml:space="preserve" font-family="HelveticaNeue,Helvetica Neue" font-size="44.0" fill="#727272" transform="matrix(1.00, 0.00, -0.00, -1.00, 1055.4, 503.7)">4</text><text xml:space="preserve" font-family="HelveticaNeue,Helvetica Neue" font-size="44.0" fill="#727272" transform="matrix(1.00, 0.00, -0.00, -1.00, 1079.9, 503.7)"> </text><text xml:space="preserve" font-family="HelveticaNeue,Helvetica Neue" font-size="44.0" fill="#727272" transform="matrix(1.00, 0.00, -0.00, -1.00, 1001.1, 451.7)">l</text><text xml:space="preserve" font-family="HelveticaNeue,Helvetica Neue" font-size="44.0" fill="#727272" transform="matrix(1.00, 0.00, -0.00, -1.00, 1010.8, 451.7)">a</text><text xml:space="preserve" font-family="HelveticaNeue,Helvetica Neue" font-size="44.0" fill="#727272" transform="matrix(1.00, 0.00, -0.00, -1.00, 1034.5, 451.7)">r</text><text xml:space="preserve" font-family="HelveticaNeue,Helvetica Neue" font-size="44.0" fill="#727272" transform="matrix(1.00, 0.00, -0.00, -1.00, 1047.9, 451.7)">g</text><text xml:space="preserve" font-family="HelveticaNeue,Helvetica Neue" font-size="44.0" fill="#727272" transform="matrix(1.00, 0.00, -0.00, -1.00, 1073.1, 451.7)">e</text></g></g><g><clipPath id="clip0x7fad416de300"><path d="M 970.7 585.5 L 1127.1 585.5 L 1127.1 745.0 L 970.7 745.0 Z M 970.7 585.5 "></path></clipPath><g clip-path="url(#clip0x7fad416de300)"><path d="M 130.1 22.8 C 159.9 53.2 159.9 102.4 130.1 132.8 C 100.4 163.2 52.1 163.2 22.3 132.8 C -7.4 102.4 -7.4 53.2 22.3 22.8 C 52.1 -7.6 100.4 -7.6 130.1 22.8 Z M 130.1 22.8 " fill="none" stroke="#83817C" stroke-width="2.00" transform="matrix(1.00, 0.00, 0.00, -1.00, 972.7, 743.0)"></path></g></g><g><clipPath id="clip0x7fad416df520"><path d="M 972.7 587.5 L 1125.1 587.5 L 1125.1 743.0 L 972.7 743.0 Z M 972.7 587.5 "></path></clipPath><g clip-path="url(#clip0x7fad416df520)"><text xml:space="preserve" font-family="HelveticaNeue,Helvetica Neue" font-size="44.0" fill="#727272" transform="matrix(1.00, 0.00, -0.00, -1.00, 1017.9, 676.1)">m</text><text xml:space="preserve" font-family="HelveticaNeue,Helvetica Neue" font-size="44.0" fill="#727272" transform="matrix(1.00, 0.00, -0.00, -1.00, 1055.4, 676.1)">4</text><text xml:space="preserve" font-family="HelveticaNeue,Helvetica Neue" font-size="44.0" fill="#727272" transform="matrix(1.00, 0.00, -0.00, -1.00, 1079.9, 676.1)"> </text><text xml:space="preserve" font-family="HelveticaNeue,Helvetica Neue" font-size="44.0" fill="#727272" transform="matrix(1.00, 0.00, -0.00, -1.00, 1001.1, 624.1)">l</text><text xml:space="preserve" font-family="HelveticaNeue,Helvetica Neue" font-size="44.0" fill="#727272" transform="matrix(1.00, 0.00, -0.00, -1.00, 1010.8, 624.1)">a</text><text xml:space="preserve" font-family="HelveticaNeue,Helvetica Neue" font-size="44.0" fill="#727272" transform="matrix(1.00, 0.00, -0.00, -1.00, 1034.5, 624.1)">r</text><text xml:space="preserve" font-family="HelveticaNeue,Helvetica Neue" font-size="44.0" fill="#727272" transform="matrix(1.00, 0.00, -0.00, -1.00, 1047.9, 624.1)">g</text><text xml:space="preserve" font-family="HelveticaNeue,Helvetica Neue" font-size="44.0" fill="#727272" transform="matrix(1.00, 0.00, -0.00, -1.00, 1073.1, 624.1)">e</text></g></g><g><clipPath id="clip0x7fad416e3680"><path d="M 796.9 585.5 L 953.4 585.5 L 953.4 745.0 L 796.9 745.0 Z M 796.9 585.5 "></path></clipPath><g clip-path="url(#clip0x7fad416e3680)"><path d="M 130.1 22.8 C 159.9 53.2 159.9 102.4 130.1 132.8 C 100.4 163.2 52.1 163.2 22.3 132.8 C -7.4 102.4 -7.4 53.2 22.3 22.8 C 52.1 -7.6 100.4 -7.6 130.1 22.8 Z M 130.1 22.8 " fill="none" stroke="#83817C" stroke-width="2.00" transform="matrix(1.00, 0.00, 0.00, -1.00, 798.9, 743.0)"></path></g></g><g><clipPath id="clip0x7fad416e4940"><path d="M 798.9 587.5 L 951.4 587.5 L 951.4 743.0 L 798.9 743.0 Z M 798.9 587.5 "></path></clipPath><g clip-path="url(#clip0x7fad416e4940)"><text xml:space="preserve" font-family="HelveticaNeue,Helvetica Neue" font-size="44.0" fill="#727272" transform="matrix(1.00, 0.00, -0.00, -1.00, 844.2, 676.1)">m</text><text xml:space="preserve" font-family="HelveticaNeue,Helvetica Neue" font-size="44.0" fill="#727272" transform="matrix(1.00, 0.00, -0.00, -1.00, 881.7, 676.1)">4</text><text xml:space="preserve" font-family="HelveticaNeue,Helvetica Neue" font-size="44.0" fill="#727272" transform="matrix(1.00, 0.00, -0.00, -1.00, 906.2, 676.1)"> </text><text xml:space="preserve" font-family="HelveticaNeue,Helvetica Neue" font-size="44.0" fill="#727272" transform="matrix(1.00, 0.00, -0.00, -1.00, 827.3, 624.1)">l</text><text xml:space="preserve" font-family="HelveticaNeue,Helvetica Neue" font-size="44.0" fill="#727272" transform="matrix(1.00, 0.00, -0.00, -1.00, 837.1, 624.1)">a</text><text xml:space="preserve" font-family="HelveticaNeue,Helvetica Neue" font-size="44.0" fill="#727272" transform="matrix(1.00, 0.00, -0.00, -1.00, 860.7, 624.1)">r</text><text xml:space="preserve" font-family="HelveticaNeue,Helvetica Neue" font-size="44.0" fill="#727272" transform="matrix(1.00, 0.00, -0.00, -1.00, 874.1, 624.1)">g</text><text xml:space="preserve" font-family="HelveticaNeue,Helvetica Neue" font-size="44.0" fill="#727272" transform="matrix(1.00, 0.00, -0.00, -1.00, 899.4, 624.1)">e</text></g></g><g><clipPath id="clip0x7fad416e8a10"><path d="M 948.8 489.7 L 975.3 489.7 L 975.3 485.7 L 948.8 485.7 Z M 948.8 489.7 "></path></clipPath><g clip-path="url(#clip0x7fad416e8a10)"><path d="M 0.2 -0.3 L 24.2 -0.3 " fill="none" stroke="#717171" stroke-width="2.00" transform="matrix(1.00, 0.00, 0.00, -1.00, 949.8, 487.7)"></path></g></g><g><clipPath id="clip0x7fad416e9a50"><path d="M 948.8 665.2 L 975.3 665.2 L 975.3 661.2 L 948.8 661.2 Z M 948.8 665.2 "></path></clipPath><g clip-path="url(#clip0x7fad416e9a50)"><path d="M 0.2 0.2 L 24.2 0.2 " fill="none" stroke="#717171" stroke-width="2.00" transform="matrix(1.00, 0.00, 0.00, -1.00, 949.8, 663.2)"></path></g></g><g><clipPath id="clip0x7fad416eaa50"><path d="M 1049.4 569.4 L 1049.4 588.8 L 1053.4 588.8 L 1053.4 569.4 Z M 1049.4 569.4 "></path></clipPath><g clip-path="url(#clip0x7fad416eaa50)"><path d="M -0.4 -0.4 L 17.6 -0.4 " fill="none" stroke="#717171" stroke-width="2.00" transform="matrix(0.00, 1.00, 1.00, 0.00, 1051.4, 570.4)"></path></g></g><g><clipPath id="clip0x7fad416eba50"><path d="M 873.0 569.4 L 873.0 588.8 L 877.0 588.8 L 877.0 569.4 Z M 873.0 569.4 "></path></clipPath><g clip-path="url(#clip0x7fad416eba50)"><path d="M -0.4 0.0 L 17.6 0.0 " fill="none" stroke="#717171" stroke-width="2.00" transform="matrix(0.00, 1.00, 1.00, 0.00, 875.0, 570.4)"></path></g></g></g></svg>